<svg xmlns="http://www.w3.org/2000/svg" width="103.511" height="130.01" viewBox="0 0 103.511 130.01">
  <defs>
    <style>
      .cls-1 {
        fill: #c42b34;
      }

      .cls-2 {
        fill: #e7f1fc;
      }

      .cls-3 {
        fill: #a7242a;
      }

      .cls-4 {
        fill: #9cc8ef;
      }

      .cls-5 {
        fill: #bcd9f7;
      }

      .cls-6 {
        fill: #86171d;
      }

      .cls-7 {
        fill: none;
        stroke: #000;
        stroke-miterlimit: 10;
        stroke-width: 2px;
      }
    </style>
  </defs>
  <g id="aggression_depression" data-name="aggression/depression" transform="translate(-354.634 -745.425)">
    <path id="Path_430" data-name="Path 430" class="cls-1" d="M418.274,828.066c.571-.894,1.049-1.639,1.543-2.4a.08.08,0,0,1,.133,0l.538.809a.9.9,0,0,1-.245,1.244l-.828.555a.894.894,0,0,1-1.133-.11A.08.08,0,0,1,418.274,828.066Z" transform="translate(-29.477 -37.28)"/>
    <g id="Group_238" data-name="Group 238" transform="translate(413.583 775.027)">
      <path id="Path_431" data-name="Path 431" class="cls-2" d="M468.039,801.869l-.132.111a1.191,1.191,0,0,1-1.313.138c-.2-.1-.4-.2-.6-.312-.085-.042-.169-.085-.254-.132-.175-.09-.355-.185-.54-.28a.152.152,0,0,1-.026-.249l.746-.614a.33.33,0,0,1,.36-.037c.614.323,1.159.6,1.71.889A.293.293,0,0,1,468.039,801.869Z" transform="translate(-465.118 -800.457)"/>
    </g>
    <path id="Path_432" data-name="Path 432" class="cls-3" d="M464.7,801.826c-.644.323-1.181.59-1.733.862a.042.042,0,0,1-.06-.035l-.033-.667a.6.6,0,0,1,.567-.631l.666-.035a.6.6,0,0,1,.616.46A.044.044,0,0,1,464.7,801.826Z" transform="translate(-50.48 -25.836)"/>
    <g id="Group_239" data-name="Group 239" transform="translate(414.137 752.298)">
      <path id="Path_433" data-name="Path 433" class="cls-2" d="M466.993,758.125c.041.284.082.581.129.914a.088.088,0,0,1-.11.1l-.548-.147a.192.192,0,0,1-.14-.158c-.056-.4-.106-.76-.158-1.118a.173.173,0,0,1,.216-.193l.1.026A.7.7,0,0,1,466.993,758.125Z" transform="translate(-466.164 -757.513)"/>
    </g>
    <path id="Path_434" data-name="Path 434" class="cls-4" d="M460.327,754.23c-.717-.254-1.333-.474-1.951-.7a.191.191,0,0,1-.074-.311l.423-.449a.748.748,0,0,1,1.054-.035l.6.567a.744.744,0,0,1,.183.821A.19.19,0,0,1,460.327,754.23Z" transform="translate(-48.302 -2.871)"/>
    <g id="Group_240" data-name="Group 240" transform="translate(407.503 756.718)">
      <path id="Path_435" data-name="Path 435" class="cls-4" d="M454.917,765.916c.542-.017,1.11-.034,1.746-.052a.166.166,0,0,1,.16.226l-.39,1a.361.361,0,0,1-.327.23c-.771.022-1.451.043-2.137.067a.328.328,0,0,1-.317-.447l.069-.178A1.329,1.329,0,0,1,454.917,765.916Z" transform="translate(-453.629 -765.864)"/>
    </g>
    <path id="Path_436" data-name="Path 436" class="cls-2" d="M453.337,755.67l1.416-1.189a2.21,2.21,0,0,1,.937-.472,2.154,2.154,0,0,1,.692-.046,2.181,2.181,0,0,1,1.521.779l.114.135,1.489,1.764a2.229,2.229,0,0,1,.261,2.507.57.57,0,0,1-.754.232c-2.045-1.006-3.8-1.876-5.563-2.758A.573.573,0,0,1,453.337,755.67Z" transform="translate(-45.892 -3.539)"/>
    <path id="Path_437" data-name="Path 437" class="cls-2" d="M465.427,765.687c-.241.549-.45,1.02-.663,1.492a.151.151,0,0,1-.249.04l-.328-.359a.59.59,0,0,1,.034-.83l.481-.442a.579.579,0,0,1,.422-.155.586.586,0,0,1,.233.059A.15.15,0,0,1,465.427,765.687Z" transform="translate(-51.024 -8.943)"/>
    <path id="Path_438" data-name="Path 438" class="cls-5" d="M470.164,757.713c-.336-.5-.623-.924-.909-1.355a.15.15,0,0,1,.1-.232l.478-.087a.589.589,0,0,1,.684.471l.118.642a.579.579,0,0,1-.094.44.591.591,0,0,1-.174.166A.15.15,0,0,1,470.164,757.713Z" transform="translate(-53.47 -4.516)"/>
    <g id="Group_241" data-name="Group 241" transform="translate(413.187 753.316)">
      <path id="Path_439" data-name="Path 439" class="cls-4" d="M464.967,760.408c.451-.295.924-.6,1.454-.946a.165.165,0,0,1,.252.109l.185,1.049a.36.36,0,0,1-.158.364c-.643.417-1.208.785-1.778,1.16a.326.326,0,0,1-.5-.215l-.033-.187A1.319,1.319,0,0,1,464.967,760.408Z" transform="translate(-464.369 -759.436)"/>
    </g>
    <g id="Group_242" data-name="Group 242" transform="translate(404.751 753.455)">
      <path id="Path_440" data-name="Path 440" class="cls-5" d="M452.7,763.548c-1.232-.266-2.519-.547-3.962-.863a.386.386,0,0,1-.233-.6l1.44-2.033a.84.84,0,0,1,.864-.334c1.749.383,3.292.718,4.851,1.049a.762.762,0,0,1,.464,1.184l-.256.362A3.084,3.084,0,0,1,452.7,763.548Z" transform="translate(-448.43 -759.699)"/>
    </g>
    <g id="Group_243" data-name="Group 243" transform="translate(415.542 754.091)">
      <path id="Path_441" data-name="Path 441" class="cls-5" d="M469.358,763.164c.589-.676,1.206-1.38,1.9-2.17a.274.274,0,0,1,.453.061l.771,1.6a.6.6,0,0,1-.089.653c-.839.957-1.578,1.8-2.32,2.66a.542.542,0,0,1-.9-.118l-.137-.283A2.193,2.193,0,0,1,469.358,763.164Z" transform="translate(-468.818 -760.9)"/>
    </g>
    <path id="Path_442" data-name="Path 442" class="cls-5" d="M462.515,764.58c.326-.835.607-1.552.894-2.271a.226.226,0,0,1,.369-.076l.513.515a.882.882,0,0,1,0,1.242l-.69.691a.878.878,0,0,1-.973.186A.224.224,0,0,1,462.515,764.58Z" transform="translate(-50.302 -7.406)"/>
    <path id="Path_443" data-name="Path 443" class="cls-5" d="M460.712,758.994c-.324-.245-.6-.457-.882-.671a.1.1,0,0,1,.012-.171l.289-.161a.4.4,0,0,1,.3-.036.391.391,0,0,1,.24.188l.217.386a.4.4,0,0,1-.039.448A.1.1,0,0,1,460.712,758.994Z" transform="translate(-49.027 -5.416)"/>
    <path id="Path_444" data-name="Path 444" class="cls-5" d="M451.587,757.005c.584.006,1.087.012,1.593.021a.147.147,0,0,1,.131.208l-.2.432a.574.574,0,0,1-.757.288l-.581-.261a.572.572,0,0,1-.338-.551A.146.146,0,0,1,451.587,757.005Z" transform="translate(-45.095 -4.976)"/>
    <path id="Path_445" data-name="Path 445" class="cls-5" d="M453.816,762.978c.472.346.876.644,1.281.946a.147.147,0,0,1-.014.246l-.411.237a.574.574,0,0,1-.783-.208l-.32-.551a.567.567,0,0,1-.059-.435.579.579,0,0,1,.106-.209A.146.146,0,0,1,453.816,762.978Z" transform="translate(-46.061 -7.774)"/>
    <path id="Path_446" data-name="Path 446" class="cls-5" d="M454.673,754.232c-.389-1.055-.721-1.964-1.051-2.879a.283.283,0,0,1,.284-.378l.911.056a1.107,1.107,0,0,1,1.037,1.165l-.072,1.224a1.091,1.091,0,0,1-.368.761,1.108,1.108,0,0,1-.392.224A.282.282,0,0,1,454.673,754.232Z" transform="translate(-46.115 -2.137)"/>
    <g id="Group_244" data-name="Group 244" transform="translate(412.883 749.676)">
      <path id="Path_447" data-name="Path 447" class="cls-5" d="M464.092,754.375c.382-.539.783-1.1,1.233-1.732a.2.2,0,0,1,.337.011l.683,1.113a.442.442,0,0,1-.017.486c-.545.764-1.025,1.438-1.505,2.122a.4.4,0,0,1-.666-.021l-.122-.2A1.616,1.616,0,0,1,464.092,754.375Z" transform="translate(-463.795 -752.558)"/>
    </g>
    <path id="Path_448" data-name="Path 448" class="cls-4" d="M457.055,756.448c.245.839.453,1.561.659,2.288a.22.22,0,0,1-.241.278l-.7-.093a.861.861,0,0,1-.741-.959l.122-.945a.848.848,0,0,1,.326-.57.865.865,0,0,1,.316-.152A.219.219,0,0,1,457.055,756.448Z" transform="translate(-47.253 -4.639)"/>
    <g id="Group_245" data-name="Group 245" transform="translate(415.95 753.119)">
      <path id="Path_449" data-name="Path 449" class="cls-2" d="M471.225,760.608c-.395.248-.809.506-1.272.8a.143.143,0,0,1-.216-.1l-.144-.91a.31.31,0,0,1,.143-.312c.562-.35,1.057-.661,1.556-.975a.282.282,0,0,1,.429.194l.026.162A1.142,1.142,0,0,1,471.225,760.608Z" transform="translate(-469.589 -759.063)"/>
    </g>
    <g id="Group_246" data-name="Group 246" transform="translate(415.216 755.239)">
      <path id="Path_450" data-name="Path 450" class="cls-4" d="M469.108,763.456c.121.252.247.515.388.81a.086.086,0,0,1-.074.122l-.551.024a.185.185,0,0,1-.176-.106c-.17-.358-.322-.673-.476-.991a.169.169,0,0,1,.144-.242l.1,0A.683.683,0,0,1,469.108,763.456Z" transform="translate(-468.203 -763.069)"/>
    </g>
    <g id="Group_247" data-name="Group 247" transform="translate(404.93 748.975)">
      <path id="Path_451" data-name="Path 451" class="cls-2" d="M450.969,753.006l-1.988.228a.191.191,0,0,1-.2-.243l.349-1.179a.414.414,0,0,1,.351-.294c.878-.1,1.652-.189,2.433-.282a.375.375,0,0,1,.4.479l-.062.21A1.522,1.522,0,0,1,450.969,753.006Z" transform="translate(-448.769 -751.234)"/>
    </g>
    <g id="Group_254" data-name="Group 254" transform="translate(380.079 752.294)">
      <g id="Group_248" data-name="Group 248" transform="translate(3.77 3.886)">
        <path id="Path_452" data-name="Path 452" class="cls-1" d="M408.937,766.272c.56-.442,1.122-.881,1.817-1.424l.325,1.212c-.672.524-1.228.96-1.816,1.426Z" transform="translate(-408.937 -764.848)"/>
      </g>
      <g id="Group_249" data-name="Group 249" transform="translate(12.503 7.123)">
        <path id="Path_453" data-name="Path 453" class="cls-6" d="M427.733,775.021c-.714-1.141-1.422-2.286-2.3-3.7l2.315-.356a.05.05,0,0,1,.05.024c.839,1.361,1.54,2.489,2.29,3.682l-2.337.361A.022.022,0,0,1,427.733,775.021Z" transform="translate(-425.437 -770.963)"/>
      </g>
      <path id="Path_454" data-name="Path 454" class="cls-1" d="M414.5,776.653l-2.641-.958a3.356,3.356,0,0,1-1.333-.873,3.281,3.281,0,0,1-.587-.875,3.314,3.314,0,0,1-.132-2.593l.09-.253,1.187-3.3a3.357,3.357,0,0,1,1.745-1.928,3.4,3.4,0,0,1,1.353-.322.867.867,0,0,1,.879.815c.233,3.454.424,6.427.6,9.415A.871.871,0,0,1,414.5,776.653Z" transform="translate(-405.484 -761.292)"/>
      <path id="Path_455" data-name="Path 455" class="cls-1" d="M420,762.359c1.066-.117,1.952-.213,2.863-.305a.062.062,0,0,1,.066.08l-.3.947a.895.895,0,0,1-1.117.587l-.947-.3a.889.889,0,0,1-.621-.96A.066.066,0,0,1,420,762.359Z" transform="translate(-410.343 -759.646)"/>
      <path id="Path_456" data-name="Path 456" class="cls-1" d="M402.485,766.62c.573.79,1.056,1.461,1.543,2.144a.163.163,0,0,1-.1.254l-.821.176a.9.9,0,0,1-1.063-.681l-.212-.97a.884.884,0,0,1,.12-.673.893.893,0,0,1,.32-.3A.169.169,0,0,1,402.485,766.62Z" transform="translate(-401.813 -761.764)"/>
      <g id="Group_250" data-name="Group 250" transform="translate(4.348 2.497)">
        <path id="Path_457" data-name="Path 457" class="cls-6" d="M413.9,765.7c-1.2-.6-2.394-1.209-3.872-1.961l1.805-1.518c1.428.728,2.612,1.328,3.873,1.957Z" transform="translate(-410.029 -762.222)"/>
      </g>
      <g id="Group_251" data-name="Group 251" transform="translate(8.175 5.908)">
        <path id="Path_458" data-name="Path 458" class="cls-3" d="M422.76,769.169c.972,2.981,1.925,5.966,3.1,9.658l-5.489-.505c-1.137-3.569-2.087-6.524-3.114-9.654Z" transform="translate(-417.26 -768.667)"/>
      </g>
      <path id="Path_459" data-name="Path 459" class="cls-3" d="M421.05,765.674c-1.56.24-2.862.436-4.2.63a.119.119,0,0,1-.132-.149l.375-1.4a1.339,1.339,0,0,1,1.632-.948l1.434.381a1.332,1.332,0,0,1,.99,1.375A.119.119,0,0,1,421.05,765.674Z" transform="translate(-408.829 -760.453)"/>
      <path id="Path_460" data-name="Path 460" class="cls-3" d="M415.327,773.651c-.088.719-.164,1.318-.245,1.931a.045.045,0,0,1-.068.033l-.575-.343a.609.609,0,0,1-.214-.83l.344-.58a.6.6,0,0,1,.729-.261A.047.047,0,0,1,415.327,773.651Z" transform="translate(-407.617 -765.065)"/>
      <g id="Group_252" data-name="Group 252" transform="translate(0.141 5.411)">
        <path id="Path_461" data-name="Path 461" class="cls-3" d="M407.347,770.763c-1.628-.146-3.256-.3-5.267-.492l1.375-2.542c1.955.188,3.575.339,5.295.489l-1.362,2.522A.043.043,0,0,1,407.347,770.763Z" transform="translate(-402.08 -767.729)"/>
      </g>
      <path id="Path_462" data-name="Path 462" class="cls-6" d="M414.392,778.705c1.066-1.116,1.957-2.044,2.876-2.989a.113.113,0,0,1,.185.036l.541,1.307a1.307,1.307,0,0,1-.7,1.7l-1.336.558a1.3,1.3,0,0,1-1.584-.476A.113.113,0,0,1,414.392,778.705Z" transform="translate(-407.72 -766.062)"/>
      <g id="Group_253" data-name="Group 253" transform="translate(6.632)">
        <path id="Path_463" data-name="Path 463" class="cls-6" d="M414.344,759.361c.389-.576.782-1.148,1.268-1.856l.658,1.029c-.47.684-.858,1.252-1.265,1.857Z" transform="translate(-414.344 -757.505)"/>
      </g>
    </g>
    <g id="Group_255" data-name="Group 255" transform="translate(393.611 766.628)">
      <path id="Path_464" data-name="Path 464" class="cls-1" d="M427.482,786.138c-.033-.479-.063-.957-.1-1.549l.8.28c.035.572.066,1.046.1,1.549Z" transform="translate(-427.382 -784.589)"/>
    </g>
    <path id="Path_465" data-name="Path 465" class="cls-6" d="M432.646,790.023c.711.315,1.321.587,1.933.863a.2.2,0,0,1,.051.323l-.466.425a.764.764,0,0,1-1.076-.046l-.572-.625a.753.753,0,0,1-.2-.548.775.775,0,0,1,.077-.3A.2.2,0,0,1,432.646,790.023Z" transform="translate(-36.093 -20.511)"/>
    <g id="Group_256" data-name="Group 256" transform="translate(398.231 762.719)">
      <path id="Path_466" data-name="Path 466" class="cls-6" d="M439.035,778.773c-.9-.037-1.808-.079-2.925-.132l.682-1.42a.033.033,0,0,1,.032-.018c1.073.051,1.966.091,2.912.127l-.687,1.434A.015.015,0,0,1,439.035,778.773Z" transform="translate(-436.11 -777.203)"/>
    </g>
    <path id="Path_467" data-name="Path 467" class="cls-1" d="M435.962,785.4l-1.534,1.1a2.25,2.25,0,0,1-.991.408,2.2,2.2,0,0,1-.708-.006,2.23,2.23,0,0,1-1.488-.912l-.106-.146-1.38-1.912a2.276,2.276,0,0,1-.071-2.573.583.583,0,0,1,.786-.178c2,1.183,3.727,2.206,5.452,3.241A.585.585,0,0,1,435.962,785.4Z" transform="translate(-34.682 -16.316)"/>
    <path id="Path_468" data-name="Path 468" class="cls-1" d="M429.066,777.951c.339-.636.623-1.163.918-1.7a.042.042,0,0,1,.069-.006l.412.526a.6.6,0,0,1-.1.843l-.523.413a.6.6,0,0,1-.768-.02A.045.045,0,0,1,429.066,777.951Z" transform="translate(-34.561 -14.023)"/>
    <path id="Path_469" data-name="Path 469" class="cls-3" d="M423.74,785.7c.325.57.6,1.054.875,1.546a.11.11,0,0,1-.084.162l-.562.058a.6.6,0,0,1-.661-.532l-.07-.664a.6.6,0,0,1,.365-.618A.114.114,0,0,1,423.74,785.7Z" transform="translate(-31.818 -18.458)"/>
    <g id="Group_257" data-name="Group 257" transform="translate(393.056 764.382)">
      <path id="Path_470" data-name="Path 470" class="cls-6" d="M429.046,781.924c-.789.437-1.58.868-2.558,1.4l-.156-1.578c.946-.516,1.729-.945,2.556-1.405Z" transform="translate(-426.332 -780.344)"/>
    </g>
    <g id="Group_258" data-name="Group 258" transform="translate(395.715 763.101)">
      <path id="Path_471" data-name="Path 471" class="cls-3" d="M433.724,777.924c2.023.593,4.041,1.2,6.536,1.946l-2.365,2.853c-2.411-.725-4.411-1.32-6.537-1.939Z" transform="translate(-431.357 -777.924)"/>
    </g>
    <g id="Group_259" data-name="Group 259" transform="translate(389.443 760.611)">
      <path id="Path_472" data-name="Path 472" class="cls-3" d="M423.927,775.676c-1.064,1.056-2.134,2.1-3.458,3.4l-.963-2.454c1.28-1.252,2.338-2.293,3.454-3.4Z" transform="translate(-419.506 -773.219)"/>
    </g>
    <path id="Path_473" data-name="Path 473" class="cls-3" d="M431.562,778.339c-.459.956-.845,1.753-1.244,2.567a.08.08,0,0,1-.132.017l-.631-.738a.9.9,0,0,1,.094-1.265l.756-.65a.894.894,0,0,1,1.138-.028A.08.08,0,0,1,431.562,778.339Z" transform="translate(-34.691 -14.883)"/>
    <path id="Path_474" data-name="Path 474" class="cls-3" d="M433.645,785.73c.365.322.668.591.978.869a.03.03,0,0,1-.007.05l-.409.189a.408.408,0,0,1-.541-.2l-.191-.411a.406.406,0,0,1,.132-.5A.031.031,0,0,1,433.645,785.73Z" transform="translate(-36.62 -18.494)"/>
    <path id="Path_475" data-name="Path 475" class="cls-3" d="M442.151,788.587c-.666-.057-1.226-.107-1.8-.161a.077.077,0,0,1-.06-.114l.286-.522a.587.587,0,0,1,.794-.235l.572.311a.583.583,0,0,1,.285.668A.077.077,0,0,1,442.151,788.587Z" transform="translate(-39.845 -19.323)"/>
    <path id="Path_476" data-name="Path 476" class="cls-1" d="M440.582,781.858c-.454-.388-.843-.724-1.232-1.063a.15.15,0,0,1,.034-.249l.437-.21a.588.588,0,0,1,.782.272l.283.586a.577.577,0,0,1,.026.448.592.592,0,0,1-.123.205A.15.15,0,0,1,440.582,781.858Z" transform="translate(-39.38 -15.931)"/>
    <path id="Path_477" data-name="Path 477" class="cls-3" d="M438.461,788.771c.364,1.276.664,2.343.965,3.438a.1.1,0,0,1-.113.129l-1.2-.167a1.129,1.129,0,0,1-.965-1.266l.168-1.241a1.112,1.112,0,0,1,.433-.746,1.124,1.124,0,0,1,.605-.227A.111.111,0,0,1,438.461,788.771Z" transform="translate(-38.361 -19.891)"/>
    <g id="Group_260" data-name="Group 260" transform="translate(392.911 766.715)">
      <path id="Path_478" data-name="Path 478" class="cls-3" d="M429.22,786.5c-.7.848-1.4,1.692-2.273,2.734l-.888-1.728c.846-1.013,1.545-1.854,2.282-2.751l.882,1.713A.03.03,0,0,1,429.22,786.5Z" transform="translate(-426.059 -784.752)"/>
    </g>
    <path id="Path_479" data-name="Path 479" class="cls-6" d="M436.833,787.226c-.214-1.015-.39-1.861-.566-2.73a.076.076,0,0,1,.09-.089l.93.2a.877.877,0,0,1,.68,1.034l-.2.953a.873.873,0,0,1-.866.7A.077.077,0,0,1,436.833,787.226Z" transform="translate(-37.953 -17.874)"/>
    <g id="Group_261" data-name="Group 261" transform="translate(390.465 764.901)">
      <path id="Path_480" data-name="Path 480" class="cls-1" d="M421.438,782.5c.689-.366,1.38-.727,2.235-1.173l.11,1.367c-.826.431-1.51.79-2.233,1.175Z" transform="translate(-421.438 -781.326)"/>
    </g>
    <g id="Group_262" data-name="Group 262" transform="translate(392.334 763.87)">
      <path id="Path_481" data-name="Path 481" class="cls-6" d="M425.516,780.786c-.171-.435-.34-.87-.548-1.408l.82.025c.2.521.369.952.549,1.407Z" transform="translate(-424.968 -779.378)"/>
    </g>
    <g id="Group_263" data-name="Group 263" transform="translate(400.014 771.304)">
      <path id="Path_482" data-name="Path 482" class="cls-1" d="M440.13,793.554c1.039-.045,2.078-.084,3.363-.131l-.651,1.709c-1.242.045-2.271.085-3.362.134Z" transform="translate(-439.48 -793.423)"/>
    </g>
    <g id="Group_264" data-name="Group 264" transform="translate(393.766 784.747)">
      <path id="Path_483" data-name="Path 483" class="cls-1" d="M428.976,819.512c-.25.41-.5.818-.813,1.323l-.488-.688c.3-.487.55-.892.811-1.323Z" transform="translate(-427.675 -818.823)"/>
    </g>
    <path id="Path_484" data-name="Path 484" class="cls-3" d="M426.321,814.371c.206.749.383,1.394.557,2.042a.2.2,0,0,1-.217.244l-.624-.092a.764.764,0,0,1-.646-.862l.12-.838a.759.759,0,0,1,.58-.634A.2.2,0,0,1,426.321,814.371Z" transform="translate(-32.83 -31.912)"/>
    <g id="Group_265" data-name="Group 265" transform="translate(385.237 785.526)">
      <path id="Path_485" data-name="Path 485" class="cls-6" d="M412.965,820.3c.717.552,1.431,1.108,2.313,1.8l-1.376.765a.033.033,0,0,1-.037,0c-.847-.661-1.553-1.209-2.3-1.785l1.388-.774A.017.017,0,0,1,412.965,820.3Z" transform="translate(-411.56 -820.295)"/>
    </g>
    <path id="Path_486" data-name="Path 486" class="cls-3" d="M404.212,799.156l1.888-.014a2.259,2.259,0,0,1,1.045.239,2.313,2.313,0,0,1,1.263,2.018l0,.18.023,2.358a2.276,2.276,0,0,1-1.427,2.143.583.583,0,0,1-.745-.308c-.954-2.122-1.77-3.952-2.582-5.793A.586.586,0,0,1,404.212,799.156Z" transform="translate(-22.589 -24.811)"/>
    <path id="Path_487" data-name="Path 487" class="cls-3" d="M431.2,823.426c.063-.653.119-1.207.178-1.767a.109.109,0,0,1,.162-.084l.492.277a.6.6,0,0,1,.232.817l-.326.582a.594.594,0,0,1-.36.286.6.6,0,0,1-.294.008A.114.114,0,0,1,431.2,823.426Z" transform="translate(-35.569 -35.365)"/>
    <g id="Group_266" data-name="Group 266" transform="translate(391.324 786.057)">
      <path id="Path_488" data-name="Path 488" class="cls-6" d="M423.844,821.3c.9.1,1.792.2,2.9.331l-.783,1.378c-1.07-.125-1.957-.226-2.9-.328Z" transform="translate(-423.061 -821.298)"/>
    </g>
    <g id="Group_267" data-name="Group 267" transform="translate(384.252 781.947)">
      <path id="Path_489" data-name="Path 489" class="cls-3" d="M413.913,819.859c-1.309-1.652-2.609-3.311-4.214-5.362l3.578-.965c1.551,1.984,2.841,3.624,4.219,5.357Z" transform="translate(-409.699 -813.532)"/>
    </g>
    <path id="Path_490" data-name="Path 490" class="cls-3" d="M423.3,818.885c-.12-.5-.218-.921-.316-1.352a.033.033,0,0,1,.038-.039l.469.087a.434.434,0,0,1,.348.5l-.086.473a.429.429,0,0,1-.179.278.435.435,0,0,1-.243.077A.033.033,0,0,1,423.3,818.885Z" transform="translate(-31.702 -33.45)"/>
    <path id="Path_491" data-name="Path 491" class="cls-3" d="M417.587,811.352c.511.431.939.795,1.373,1.167a.077.077,0,0,1-.016.128l-.536.261a.587.587,0,0,1-.784-.266l-.287-.584a.576.576,0,0,1-.03-.448.582.582,0,0,1,.182-.263A.077.077,0,0,1,417.587,811.352Z" transform="translate(-29.014 -30.55)"/>
    <path id="Path_492" data-name="Path 492" class="cls-1" d="M415.265,817.621c.146.579.27,1.078.392,1.579a.15.15,0,0,1-.171.184l-.478-.082a.587.587,0,0,1-.482-.673l.107-.642a.579.579,0,0,1,.237-.381.593.593,0,0,1,.22-.1A.15.15,0,0,1,415.265,817.621Z" transform="translate(-27.715 -33.457)"/>
    <g id="Group_268" data-name="Group 268" transform="translate(393.304 779.597)">
      <path id="Path_493" data-name="Path 493" class="cls-3" d="M427.091,810.013c1.06-.289,2.122-.572,3.434-.921l-.273,1.923c-1.276.339-2.332.622-3.451.929l.268-1.908A.029.029,0,0,1,427.091,810.013Z" transform="translate(-426.802 -809.092)"/>
    </g>
    <path id="Path_494" data-name="Path 494" class="cls-6" d="M421.359,814.74c-.411.952-.755,1.746-1.114,2.556a.076.076,0,0,1-.125.021l-.647-.7a.878.878,0,0,1,.041-1.237l.711-.664a.873.873,0,0,1,1.11-.07A.076.076,0,0,1,421.359,814.74Z" transform="translate(-29.937 -32.033)"/>
    <g id="Group_269" data-name="Group 269" transform="translate(391.031 788.77)">
      <path id="Path_495" data-name="Path 495" class="cls-1" d="M425.008,827.937c-.774-.1-1.546-.2-2.5-.332l.7-1.18c.924.125,1.689.226,2.5.329Z" transform="translate(-422.506 -826.425)"/>
    </g>
    <g id="Group_270" data-name="Group 270" transform="translate(391.387 787.787)">
      <path id="Path_496" data-name="Path 496" class="cls-6" d="M424.2,825.062c-.111.454-.224.906-.365,1.466l-.655-.495c.137-.541.248-.99.364-1.467Z" transform="translate(-423.18 -824.567)"/>
    </g>
    <g id="Group_271" data-name="Group 271" transform="translate(388.345 777.123)">
      <path id="Path_497" data-name="Path 497" class="cls-1" d="M420.254,807.272c-.875-.563-1.746-1.131-2.822-1.834l1.518-1.02c1.04.68,1.9,1.241,2.824,1.831Z" transform="translate(-417.432 -804.418)"/>
    </g>
    <g id="Group_272" data-name="Group 272" transform="translate(376.168 764.115)">
      <path id="Path_498" data-name="Path 498" class="cls-1" d="M394.8,779.841c.479.027.957.056,1.55.093l-.377.755c-.572-.036-1.046-.064-1.549-.092Z" transform="translate(-394.424 -779.841)"/>
    </g>
    <path id="Path_499" data-name="Path 499" class="cls-6" d="M390.252,784.513c-.4.666-.746,1.238-1.1,1.811a.2.2,0,0,1-.327.011l-.364-.515a.764.764,0,0,1,.179-1.062l.69-.491a.753.753,0,0,1,.569-.131.763.763,0,0,1,.291.114A.2.2,0,0,1,390.252,784.513Z" transform="translate(-15.385 -17.742)"/>
    <g id="Group_273" data-name="Group 273" transform="translate(379.479 769.098)">
      <path id="Path_500" data-name="Path 500" class="cls-6" d="M400.681,792.143c.149-.893.3-1.785.494-2.886l1.324.853a.034.034,0,0,1,.015.034c-.184,1.058-.334,1.939-.488,2.874l-1.337-.859A.016.016,0,0,1,400.681,792.143Z" transform="translate(-400.681 -789.256)"/>
    </g>
    <path id="Path_501" data-name="Path 501" class="cls-1" d="M390.613,788.249l-.9-1.659a2.263,2.263,0,0,1-.282-1.034,2.19,2.19,0,0,1,.095-.7,2.226,2.226,0,0,1,1.089-1.363l.158-.087,2.069-1.132a2.275,2.275,0,0,1,2.562.249.583.583,0,0,1,.08.8c-1.422,1.842-2.651,3.424-3.892,5.008A.585.585,0,0,1,390.613,788.249Z" transform="translate(-15.904 -16.736)"/>
    <path id="Path_502" data-name="Path 502" class="cls-1" d="M402.69,782.318c.589.416,1.078.763,1.577,1.122a.042.042,0,0,1,0,.069l-.573.344a.6.6,0,0,1-.824-.2l-.345-.571a.6.6,0,0,1,.115-.76A.045.045,0,0,1,402.69,782.318Z" transform="translate(-22.027 -16.888)"/>
    <path id="Path_503" data-name="Path 503" class="cls-1" d="M394.459,776.455c-.605.252-1.12.464-1.642.676a.109.109,0,0,1-.15-.1l.012-.565a.6.6,0,0,1,.61-.589l.667.012a.6.6,0,0,1,.567.439A.113.113,0,0,1,394.459,776.455Z" transform="translate(-17.428 -13.858)"/>
    <g id="Group_274" data-name="Group 274" transform="translate(377.413 763.721)">
      <path id="Path_504" data-name="Path 504" class="cls-6" d="M397.851,781.807c-.336-.837-.666-1.676-1.075-2.712l1.585.041c.394,1,.723,1.832,1.078,2.711Z" transform="translate(-396.776 -779.095)"/>
    </g>
    <g id="Group_275" data-name="Group 275" transform="translate(375.76 766.379)">
      <path id="Path_505" data-name="Path 505" class="cls-3" d="M398.933,786.821c-.839,1.934-1.689,3.861-2.742,6.244l-2.538-2.7c1.018-2.3,1.857-4.214,2.735-6.246Z" transform="translate(-393.654 -784.118)"/>
    </g>
    <g id="Group_276" data-name="Group 276" transform="translate(378.65 760.396)">
      <path id="Path_506" data-name="Path 506" class="cls-3" d="M402.06,777.318c-.916-1.187-1.824-2.379-2.946-3.853l2.554-.652c1.084,1.425,1.986,2.6,2.95,3.85Z" transform="translate(-399.114 -772.813)"/>
    </g>
    <path id="Path_507" data-name="Path 507" class="cls-3" d="M401.086,784.762c-.892-.574-1.635-1.056-2.393-1.553a.08.08,0,0,1,0-.133l.811-.535a.9.9,0,0,1,1.244.25l.552.831a.9.9,0,0,1-.114,1.133A.08.08,0,0,1,401.086,784.762Z" transform="translate(-20.248 -16.926)"/>
    <path id="Path_508" data-name="Path 508" class="cls-3" d="M395.066,786.05c-.365.323-.669.59-.984.863a.03.03,0,0,1-.049-.014l-.137-.429a.408.408,0,0,1,.263-.513l.431-.139a.405.405,0,0,1,.483.193A.031.031,0,0,1,395.066,786.05Z" transform="translate(-17.999 -18.53)"/>
    <path id="Path_509" data-name="Path 509" class="cls-3" d="M391.082,794.08c.14-.654.258-1.2.382-1.762a.077.077,0,0,1,.121-.046l.483.349a.587.587,0,0,1,.135.817l-.379.529a.584.584,0,0,1-.7.2A.078.078,0,0,1,391.082,794.08Z" transform="translate(-16.682 -21.571)"/>
    <path id="Path_510" data-name="Path 510" class="cls-1" d="M397.556,793.408c.442-.4.823-.746,1.207-1.09a.15.15,0,0,1,.243.064l.153.46a.587.587,0,0,1-.367.742l-.617.208a.585.585,0,0,1-.636-.178A.15.15,0,0,1,397.556,793.408Z" transform="translate(-19.707 -21.581)"/>
    <path id="Path_511" data-name="Path 511" class="cls-3" d="M389.075,790.222c-1.311.2-2.407.368-3.53.532a.1.1,0,0,1-.115-.129l.315-1.174a1.13,1.13,0,0,1,1.377-.8l1.21.321a1.123,1.123,0,0,1,.837,1.152A.11.11,0,0,1,389.075,790.222Z" transform="translate(-14.02 -19.854)"/>
    <g id="Group_277" data-name="Group 277" transform="translate(373.54 763.162)">
      <path id="Path_512" data-name="Path 512" class="cls-3" d="M391.89,781.3c-.755-.8-1.505-1.6-2.431-2.594l1.825-.666c.9.965,1.648,1.763,2.447,2.606l-1.809.663A.029.029,0,0,1,391.89,781.3Z" transform="translate(-389.459 -778.039)"/>
    </g>
    <path id="Path_513" data-name="Path 513" class="cls-6" d="M391.653,789.06c1.033-.086,1.9-.156,2.779-.223a.076.076,0,0,1,.078.1l-.31.9a.878.878,0,0,1-1.11.547l-.921-.314a.864.864,0,0,1-.5-.442.873.873,0,0,1-.081-.5A.077.077,0,0,1,391.653,789.06Z" transform="translate(-16.915 -19.96)"/>
    <g id="Group_278" data-name="Group 278" transform="translate(377.661 761.097)">
      <path id="Path_514" data-name="Path 514" class="cls-1" d="M398.617,774.2c.277.729.55,1.459.887,2.363l-1.37-.06c-.326-.873-.6-1.6-.889-2.362Z" transform="translate(-397.245 -774.137)"/>
    </g>
    <g id="Group_279" data-name="Group 279" transform="translate(379.397 763.282)">
      <path id="Path_515" data-name="Path 515" class="cls-6" d="M400.652,778.636c.453-.116.905-.23,1.465-.37l-.127.811c-.541.135-.99.248-1.465.371Z" transform="translate(-400.525 -778.267)"/>
    </g>
    <g id="Group_280" data-name="Group 280" transform="translate(370.548 769.754)">
      <path id="Path_516" data-name="Path 516" class="cls-1" d="M385.708,791.352c-.085,1.037-.175,2.073-.287,3.353l-1.615-.858c.109-1.238.2-2.264.284-3.353Z" transform="translate(-383.805 -790.494)"/>
    </g>
    <g id="Group_281" data-name="Group 281" transform="translate(392.719 760.859)">
      <path id="Path_517" data-name="Path 517" class="cls-1" d="M427.185,774.529c-.459.138-.919.273-1.488.44l.1-.838c.55-.161,1.005-.3,1.488-.442Z" transform="translate(-425.697 -773.689)"/>
    </g>
    <path id="Path_518" data-name="Path 518" class="cls-6" d="M429.776,767.493c.149-.763.279-1.418.413-2.076a.2.2,0,0,1,.3-.121l.518.36a.764.764,0,0,1,.194,1.06l-.482.7a.754.754,0,0,1-.49.317.762.762,0,0,1-.312-.008A.194.194,0,0,1,429.776,767.493Z" transform="translate(-34.896 -8.862)"/>
    <g id="Group_282" data-name="Group 282" transform="translate(387.205 754.938)">
      <path id="Path_519" data-name="Path 519" class="cls-6" d="M416.838,762.864c.165.89.324,1.78.52,2.881l-1.535-.35a.033.033,0,0,1-.025-.027c-.188-1.058-.347-1.937-.521-2.868l1.55.352A.015.015,0,0,1,416.838,762.864Z" transform="translate(-415.277 -762.5)"/>
    </g>
    <path id="Path_520" data-name="Path 520" class="cls-1" d="M424.4,760.821l1.413,1.252a2.259,2.259,0,0,1,.617.876,2.184,2.184,0,0,1,.15.692,2.229,2.229,0,0,1-.559,1.653l-.119.135-1.559,1.769a2.275,2.275,0,0,1-2.493.639.582.582,0,0,1-.348-.727c.709-2.217,1.325-4.122,1.952-6.035A.586.586,0,0,1,424.4,760.821Z" transform="translate(-30.991 -6.702)"/>
    <path id="Path_521" data-name="Path 521" class="cls-1" d="M418.661,774.415c-.7-.19-1.273-.35-1.865-.518a.041.041,0,0,1-.021-.066l.421-.518a.6.6,0,0,1,.844-.091l.519.419a.6.6,0,0,1,.15.754A.046.046,0,0,1,418.661,774.415Z" transform="translate(-28.773 -12.548)"/>
    <path id="Path_522" data-name="Path 522" class="cls-3" d="M427.505,777.875c.483-.443.894-.818,1.313-1.2a.109.109,0,0,1,.177.046l.181.535a.6.6,0,0,1-.373.762l-.631.216a.6.6,0,0,1-.459-.028.607.607,0,0,1-.224-.191A.114.114,0,0,1,427.505,777.875Z" transform="translate(-33.812 -14.224)"/>
    <g id="Group_283" data-name="Group 283" transform="translate(390.085 760.183)">
      <path id="Path_523" data-name="Path 523" class="cls-6" d="M422.226,772.411c.6.672,1.2,1.347,1.934,2.183l-1.5.5c-.712-.808-1.3-1.476-1.937-2.182Z" transform="translate(-420.72 -772.411)"/>
    </g>
    <g id="Group_284" data-name="Group 284" transform="translate(388.288 751.757)">
      <path id="Path_524" data-name="Path 524" class="cls-3" d="M417.325,763.3c.13-2.1.273-4.206.45-6.8l3.306,1.675c-.172,2.512-.309,4.594-.442,6.8Z" transform="translate(-417.325 -756.491)"/>
    </g>
    <g id="Group_285" data-name="Group 285" transform="translate(387.01 762.682)">
      <path id="Path_525" data-name="Path 525" class="cls-3" d="M417.09,777.133c1.265.8,2.525,1.615,4.083,2.618l-2.178,1.484c-1.505-.971-2.755-1.771-4.085-2.614Z" transform="translate(-414.909 -777.133)"/>
    </g>
    <path id="Path_526" data-name="Path 526" class="cls-3" d="M418.331,771.428c1.034.236,1.9.436,2.779.645a.08.08,0,0,1,.046.125l-.58.779a.9.9,0,0,1-1.254.189l-.8-.593a.888.888,0,0,1-.355-.588.9.9,0,0,1,.076-.516A.081.081,0,0,1,418.331,771.428Z" transform="translate(-29.427 -11.764)"/>
    <path id="Path_527" data-name="Path 527" class="cls-3" d="M425.383,768.532c.233-.428.428-.783.631-1.147a.03.03,0,0,1,.05,0l.275.356a.409.409,0,0,1-.072.572l-.358.277a.4.4,0,0,1-.3.083.407.407,0,0,1-.219-.1A.031.031,0,0,1,425.383,768.532Z" transform="translate(-32.828 -9.855)"/>
    <path id="Path_528" data-name="Path 528" class="cls-3" d="M426.15,758.923c.092.662.167,1.219.241,1.787a.077.077,0,0,1-.1.084l-.573-.164a.588.588,0,0,1-.405-.722l.177-.626a.582.582,0,0,1,.589-.427A.076.076,0,0,1,426.15,758.923Z" transform="translate(-32.787 -5.847)"/>
    <path id="Path_529" data-name="Path 529" class="cls-1" d="M419.942,762.169c-.278.528-.519.982-.763,1.437a.151.151,0,0,1-.25.022l-.3-.38a.587.587,0,0,1,.092-.823l.509-.406a.578.578,0,0,1,.431-.125.588.588,0,0,1,.228.075A.149.149,0,0,1,419.942,762.169Z" transform="translate(-29.59 -7.276)"/>
    <path id="Path_530" data-name="Path 530" class="cls-3" d="M427.076,761.684c1.164-.637,2.138-1.167,3.138-1.7a.1.1,0,0,1,.151.081l.1,1.211a1.131,1.131,0,0,1-1.021,1.223l-1.247.111a1.124,1.124,0,0,1-1.179-.8A.11.11,0,0,1,427.076,761.684Z" transform="translate(-33.599 -6.371)"/>
    <g id="Group_286" data-name="Group 286" transform="translate(392.453 759.332)">
      <path id="Path_531" data-name="Path 531" class="cls-3" d="M426.7,770.806c.981.493,1.96.993,3.17,1.61l-1.488,1.248c-1.175-.6-2.15-1.1-3.188-1.615l1.475-1.24A.028.028,0,0,1,426.7,770.806Z" transform="translate(-425.194 -770.803)"/>
    </g>
    <path id="Path_532" data-name="Path 532" class="cls-6" d="M426.143,764.572c-.942.433-1.729.793-2.537,1.157a.076.076,0,0,1-.107-.068l-.015-.951a.878.878,0,0,1,.858-.892l.973-.018a.873.873,0,0,1,.873.69A.077.077,0,0,1,426.143,764.572Z" transform="translate(-31.936 -8.174)"/>
    <g id="Group_287" data-name="Group 287" transform="translate(391.238 763.001)">
      <path id="Path_533" data-name="Path 533" class="cls-1" d="M424.536,780.065c-.509-.591-1.015-1.185-1.639-1.919l1.308-.411c.6.71,1.105,1.3,1.641,1.917Z" transform="translate(-422.897 -777.735)"/>
    </g>
    <g id="Group_288" data-name="Group 288" transform="translate(390.156 762.343)">
      <path id="Path_534" data-name="Path 534" class="cls-6" d="M422.262,777.3c-.386.264-.773.525-1.252.847l-.157-.806c.463-.312.846-.57,1.251-.848Z" transform="translate(-420.854 -776.493)"/>
    </g>
    <g id="Group_289" data-name="Group 289" transform="translate(394.97 750.946)">
      <path id="Path_535" data-name="Path 535" class="cls-1" d="M430.822,758.209c-.274-1-.542-2.008-.873-3.25l1.811.256c.319,1.2.586,2.2.876,3.249Z" transform="translate(-429.949 -754.959)"/>
    </g>
    <g id="Group_290" data-name="Group 290" transform="translate(409.825 769.919)">
      <path id="Path_536" data-name="Path 536" class="cls-2" d="M458.07,791.727c-.017-.26-.034-.531-.053-.835a.079.079,0,0,1,.105-.08l.485.171a.173.173,0,0,1,.115.152c.023.369.044.694.066,1.023a.157.157,0,0,1-.209.159l-.086-.03A.636.636,0,0,1,458.07,791.727Z" transform="translate(-458.017 -790.807)"/>
    </g>
    <path id="Path_537" data-name="Path 537" class="cls-4" d="M462.676,795.565c.631.279,1.173.521,1.716.766a.174.174,0,0,1,.045.287l-.414.377a.679.679,0,0,1-.956-.041l-.508-.554a.675.675,0,0,1-.109-.755A.172.172,0,0,1,462.676,795.565Z" transform="translate(-50.246 -23.121)"/>
    <g id="Group_291" data-name="Group 291" transform="translate(414.002 766.423)">
      <path id="Path_538" data-name="Path 538" class="cls-4" d="M467.635,785.551l-1.582-.072a.151.151,0,0,1-.129-.216l.421-.877a.328.328,0,0,1,.311-.185c.7.033,1.315.06,1.937.086a.3.3,0,0,1,.256.426l-.075.156A1.205,1.205,0,0,1,467.635,785.551Z" transform="translate(-465.909 -784.2)"/>
    </g>
    <path id="Path_539" data-name="Path 539" class="cls-2" d="M465.62,791.459l-1.362.978a2,2,0,0,1-.88.361,1.944,1.944,0,0,1-.629-.006,1.979,1.979,0,0,1-1.322-.809l-.094-.13-1.225-1.7a2.021,2.021,0,0,1-.063-2.284.517.517,0,0,1,.7-.158c1.78,1.049,3.308,1.958,4.841,2.877A.52.52,0,0,1,465.62,791.459Z" transform="translate(-48.994 -19.397)"/>
    <path id="Path_540" data-name="Path 540" class="cls-2" d="M459.563,784.844c.256-.479.477-.891.7-1.3a.137.137,0,0,1,.228-.019l.272.347a.535.535,0,0,1-.088.748l-.465.367a.527.527,0,0,1-.393.112.546.546,0,0,1-.207-.069A.137.137,0,0,1,459.563,784.844Z" transform="translate(-48.912 -17.434)"/>
    <path id="Path_541" data-name="Path 541" class="cls-5" d="M454.787,791.768c.269.472.5.879.729,1.289a.137.137,0,0,1-.105.2l-.439.045a.534.534,0,0,1-.586-.473l-.062-.589a.525.525,0,0,1,.115-.392.536.536,0,0,1,.169-.138A.136.136,0,0,1,454.787,791.768Z" transform="translate(-46.452 -21.307)"/>
    <g id="Group_292" data-name="Group 292" transform="translate(409.343 768.07)">
      <path id="Path_542" data-name="Path 542" class="cls-4" d="M458.8,788.917l-1.38.755a.15.15,0,0,1-.221-.116l-.1-.962a.326.326,0,0,1,.168-.318c.61-.333,1.146-.627,1.688-.927a.3.3,0,0,1,.437.229l.018.17A1.2,1.2,0,0,1,458.8,788.917Z" transform="translate(-457.107 -787.313)"/>
    </g>
    <g id="Group_293" data-name="Group 293" transform="translate(412.195 767.16)">
      <path id="Path_543" data-name="Path 543" class="cls-5" d="M465.86,785.709c1.1.325,2.24.668,3.523,1.053a.35.35,0,0,1,.169.558l-1.441,1.739a.762.762,0,0,1-.805.243c-1.555-.467-2.927-.875-4.314-1.282a.691.691,0,0,1-.338-1.1l.256-.309A2.8,2.8,0,0,1,465.86,785.709Z" transform="translate(-462.495 -785.594)"/>
    </g>
    <g id="Group_294" data-name="Group 294" transform="translate(406.21 764.925)">
      <path id="Path_544" data-name="Path 544" class="cls-5" d="M454.083,784.093c-.579.571-1.186,1.165-1.866,1.832a.248.248,0,0,1-.405-.086l-.587-1.5a.541.541,0,0,1,.125-.584c.825-.808,1.551-1.522,2.281-2.246a.491.491,0,0,1,.8.168l.1.266A1.987,1.987,0,0,1,454.083,784.093Z" transform="translate(-451.186 -781.37)"/>
    </g>
    <path id="Path_545" data-name="Path 545" class="cls-5" d="M461.663,785.3c-.351.733-.656,1.361-.965,1.992a.2.2,0,0,1-.339.043l-.429-.5a.8.8,0,0,1,.083-1.123l.672-.578a.8.8,0,0,1,.892-.1A.2.2,0,0,1,461.663,785.3Z" transform="translate(-49.002 -18.124)"/>
    <path id="Path_546" data-name="Path 546" class="cls-5" d="M463.605,791.81c.276.244.514.455.752.667a.093.093,0,0,1-.023.154l-.271.125a.363.363,0,0,1-.481-.175l-.17-.365a.356.356,0,0,1-.012-.277.364.364,0,0,1,.078-.125A.092.092,0,0,1,463.605,791.81Z" transform="translate(-50.715 -21.349)"/>
    <path id="Path_547" data-name="Path 547" class="cls-5" d="M471.093,794.286c-.528-.046-.982-.086-1.438-.129a.133.133,0,0,1-.1-.2l.207-.377a.521.521,0,0,1,.7-.209l.508.276a.521.521,0,0,1,.268.521A.134.134,0,0,1,471.093,794.286Z" transform="translate(-53.613 -22.066)"/>
    <path id="Path_548" data-name="Path 548" class="cls-5" d="M469.722,788.316c-.4-.345-.748-.643-1.093-.944a.133.133,0,0,1,.03-.221l.387-.186a.522.522,0,0,1,.694.241l.251.521a.514.514,0,0,1,.023.4.521.521,0,0,1-.11.182A.133.133,0,0,1,469.722,788.316Z" transform="translate(-53.165 -19.055)"/>
    <path id="Path_549" data-name="Path 549" class="cls-5" d="M467.876,794.6c.279.981.517,1.825.752,2.675a.256.256,0,0,1-.283.322l-.82-.114a1,1,0,0,1-.857-1.125l.15-1.1a.989.989,0,0,1,.385-.663,1.008,1.008,0,0,1,.37-.176A.256.256,0,0,1,467.876,794.6Z" transform="translate(-52.26 -22.587)"/>
    <g id="Group_295" data-name="Group 295" transform="translate(409.272 770.254)">
      <path id="Path_550" data-name="Path 550" class="cls-5" d="M459.094,793.429c-.383.462-.783.942-1.233,1.481a.183.183,0,0,1-.3-.033l-.541-1.053a.4.4,0,0,1,.049-.438c.545-.653,1.025-1.231,1.507-1.815a.362.362,0,0,1,.6.065l.1.187A1.465,1.465,0,0,1,459.094,793.429Z" transform="translate(-456.972 -791.439)"/>
    </g>
    <path id="Path_551" data-name="Path 551" class="cls-4" d="M466.4,793c-.164-.776-.3-1.443-.439-2.114a.2.2,0,0,1,.237-.235l.629.133a.779.779,0,0,1,.6.918l-.175.846a.77.77,0,0,1-.334.493.784.784,0,0,1-.3.116A.2.2,0,0,1,466.4,793Z" transform="translate(-51.931 -20.814)"/>
    <g id="Group_296" data-name="Group 296" transform="translate(407.076 768.427)">
      <path id="Path_552" data-name="Path 552" class="cls-2" d="M453.376,788.633l1.206-.631a.129.129,0,0,1,.189.1l.067.833a.281.281,0,0,1-.15.272c-.532.279-1,.525-1.474.775a.256.256,0,0,1-.374-.205l-.012-.148A1.035,1.035,0,0,1,453.376,788.633Z" transform="translate(-452.823 -787.987)"/>
    </g>
    <g id="Group_297" data-name="Group 297" transform="translate(408.72 767.439)">
      <path id="Path_553" data-name="Path 553" class="cls-4" d="M456.229,786.986c-.092-.236-.188-.483-.295-.759a.077.077,0,0,1,.074-.105l.5.016a.168.168,0,0,1,.151.107c.13.335.245.631.363.929a.153.153,0,0,1-.147.209l-.089,0A.618.618,0,0,1,456.229,786.986Z" transform="translate(-455.929 -786.121)"/>
    </g>
    <g id="Group_298" data-name="Group 298" transform="translate(415.663 774.045)">
      <path id="Path_554" data-name="Path 554" class="cls-2" d="M470.376,798.671c.564-.023,1.153-.044,1.813-.069a.172.172,0,0,1,.168.233l-.4,1.042a.377.377,0,0,1-.338.242c-.8.029-1.507.057-2.219.087a.341.341,0,0,1-.333-.461l.07-.185A1.379,1.379,0,0,1,470.376,798.671Z" transform="translate(-469.047 -798.602)"/>
    </g>
    <g id="Group_299" data-name="Group 299" transform="translate(446.489 767.95)">
      <path id="Path_555" data-name="Path 555" class="cls-2" d="M528.149,787.884c-.1.241-.2.493-.316.775a.08.08,0,0,1-.13.026l-.362-.365a.174.174,0,0,1-.038-.188c.14-.342.263-.644.385-.949a.157.157,0,0,1,.257-.052l.065.065A.637.637,0,0,1,528.149,787.884Z" transform="translate(-527.291 -787.086)"/>
    </g>
    <path id="Path_556" data-name="Path 556" class="cls-4" d="M524.78,782.073c-.447-.526-.829-.98-1.211-1.437a.173.173,0,0,1,.084-.278l.537-.159a.679.679,0,0,1,.843.453l.216.72a.669.669,0,0,1-.052.516.685.685,0,0,1-.178.212A.173.173,0,0,1,524.78,782.073Z" transform="translate(-79.031 -15.88)"/>
    <g id="Group_300" data-name="Group 300" transform="translate(439.176 768.817)">
      <path id="Path_557" data-name="Path 557" class="cls-4" d="M515.043,788.869c.433.234.886.479,1.393.755a.151.151,0,0,1,.022.25l-.762.606a.327.327,0,0,1-.36.031c-.614-.333-1.157-.627-1.706-.921a.3.3,0,0,1-.046-.495l.135-.108A1.2,1.2,0,0,1,515.043,788.869Z" transform="translate(-513.473 -788.724)"/>
    </g>
    <path id="Path_558" data-name="Path 558" class="cls-2" d="M518.057,780.681l1.651-.287a2.01,2.01,0,0,1,.95.058,1.949,1.949,0,0,1,.563.279,1.978,1.978,0,0,1,.837,1.3l.029.158.364,2.062a2.022,2.022,0,0,1-.938,2.084.517.517,0,0,1-.7-.161c-1.145-1.72-2.126-3.2-3.1-4.7A.52.52,0,0,1,518.057,780.681Z" transform="translate(-76.252 -15.971)"/>
    <path id="Path_559" data-name="Path 559" class="cls-2" d="M523.426,793.417c-.439.32-.818.594-1.2.868a.137.137,0,0,1-.213-.082l-.094-.431a.535.535,0,0,1,.4-.636l.579-.128a.523.523,0,0,1,.4.071.535.535,0,0,1,.156.152A.136.136,0,0,1,523.426,793.417Z" transform="translate(-78.267 -21.918)"/>
    <path id="Path_560" data-name="Path 560" class="cls-5" d="M531.14,789.066c-.037-.542-.067-1.009-.1-1.478a.137.137,0,0,1,.183-.136l.415.15a.535.535,0,0,1,.322.681l-.2.557a.529.529,0,0,1-.274.3.541.541,0,0,1-.212.05A.137.137,0,0,1,531.14,789.066Z" transform="translate(-82.569 -19.304)"/>
    <g id="Group_301" data-name="Group 301" transform="translate(444.655 769.212)">
      <path id="Path_561" data-name="Path 561" class="cls-4" d="M524.964,789.55l1.571-.079a.15.15,0,0,1,.148.2l-.333.907a.326.326,0,0,1-.29.213c-.694.034-1.306.065-1.923.1a.3.3,0,0,1-.294-.4l.059-.161A1.2,1.2,0,0,1,524.964,789.55Z" transform="translate(-523.825 -789.471)"/>
    </g>
    <g id="Group_302" data-name="Group 302" transform="translate(437.854 765.419)">
      <path id="Path_562" data-name="Path 562" class="cls-5" d="M513.8,786.368c-.845-.77-1.725-1.577-2.713-2.482a.35.35,0,0,1,.09-.576l2.055-.938a.761.761,0,0,1,.83.132c1.2,1.1,2.254,2.063,3.325,3.033a.69.69,0,0,1-.176,1.139l-.365.167A2.8,2.8,0,0,1,513.8,786.368Z" transform="translate(-510.976 -782.304)"/>
    </g>
    <g id="Group_303" data-name="Group 303" transform="translate(445.286 771.109)">
      <path id="Path_563" data-name="Path 563" class="cls-5" d="M526.384,793.9c.77-.261,1.575-.533,2.477-.837a.249.249,0,0,1,.328.255l-.122,1.6a.541.541,0,0,1-.367.471c-1.095.368-2.059.695-3.031,1.028a.491.491,0,0,1-.649-.5l.022-.284A1.988,1.988,0,0,1,526.384,793.9Z" transform="translate(-525.017 -793.054)"/>
    </g>
    <path id="Path_564" data-name="Path 564" class="cls-5" d="M521.093,791.282c.636-.506,1.183-.939,1.736-1.373a.2.2,0,0,1,.324.109l.167.638a.8.8,0,0,1-.564.975l-.856.228a.787.787,0,0,1-.6-.08.8.8,0,0,1-.243-.218A.2.2,0,0,1,521.093,791.282Z" transform="translate(-77.848 -20.445)"/>
    <path id="Path_565" data-name="Path 565" class="cls-5" d="M523.129,785.822c-.143-.34-.265-.633-.386-.928a.093.093,0,0,1,.088-.128l.3.005a.362.362,0,0,1,.357.367l-.006.4a.356.356,0,0,1-.11.255.36.36,0,0,1-.125.079A.092.092,0,0,1,523.129,785.822Z" transform="translate(-78.658 -18.044)"/>
    <path id="Path_566" data-name="Path 566" class="cls-5" d="M516.884,779.977c.456.271.847.505,1.239.743a.133.133,0,0,1,.008.223l-.35.249a.52.52,0,0,1-.725-.119l-.337-.47a.517.517,0,0,1-.091-.387.525.525,0,0,1,.077-.2A.133.133,0,0,1,516.884,779.977Z" transform="translate(-75.779 -15.781)"/>
    <path id="Path_567" data-name="Path 567" class="cls-5" d="M515.811,785.714c.212.486.394.9.574,1.325a.134.134,0,0,1-.123.186l-.43,0a.521.521,0,0,1-.52-.519v-.578a.515.515,0,0,1,.152-.368.521.521,0,0,1,.178-.116A.132.132,0,0,1,515.811,785.714Z" transform="translate(-75.163 -18.452)"/>
    <path id="Path_568" data-name="Path 568" class="cls-5" d="M520.119,779.25c.176-1.005.329-1.869.487-2.736a.257.257,0,0,1,.4-.167l.689.459a1,1,0,0,1,.282,1.386l-.614.927a.989.989,0,0,1-.635.429,1.006,1.006,0,0,1-.41,0A.256.256,0,0,1,520.119,779.25Z" transform="translate(-77.424 -14.06)"/>
    <g id="Group_304" data-name="Group 304" transform="translate(445.736 766.011)">
      <path id="Path_569" data-name="Path 569" class="cls-5" d="M526.726,784.236c.545-.249,1.116-.507,1.755-.8a.183.183,0,0,1,.259.162l.029,1.184a.4.4,0,0,1-.235.373c-.775.351-1.459.661-2.147.978a.362.362,0,0,1-.513-.32l-.005-.211A1.465,1.465,0,0,1,526.726,784.236Z" transform="translate(-525.868 -783.423)"/>
    </g>
    <path id="Path_570" data-name="Path 570" class="cls-4" d="M520.739,782.279c-.191.77-.356,1.431-.526,2.094a.2.2,0,0,1-.315.108l-.509-.393a.779.779,0,0,1-.143-1.089l.526-.685a.769.769,0,0,1,.515-.3.78.78,0,0,1,.317.024A.2.2,0,0,1,520.739,782.279Z" transform="translate(-76.939 -16.747)"/>
    <g id="Group_305" data-name="Group 305" transform="translate(447.109 770.171)">
      <path id="Path_571" data-name="Path 571" class="cls-2" d="M529.956,792.43l-1.36.043a.129.129,0,0,1-.125-.176l.3-.78a.282.282,0,0,1,.254-.179c.6-.018,1.13-.036,1.665-.056a.255.255,0,0,1,.248.347l-.053.139A1.034,1.034,0,0,1,529.956,792.43Z" transform="translate(-528.462 -791.283)"/>
    </g>
    <g id="Group_306" data-name="Group 306" transform="translate(446.304 770.749)">
      <path id="Path_572" data-name="Path 572" class="cls-4" d="M527.653,793.03c-.02.252-.041.516-.066.812a.077.077,0,0,1-.113.063l-.444-.232a.169.169,0,0,1-.09-.163c.029-.359.055-.675.078-.994a.153.153,0,0,1,.223-.124l.079.041A.62.62,0,0,1,527.653,793.03Z" transform="translate(-526.941 -792.374)"/>
    </g>
    <g id="Group_307" data-name="Group 307" transform="translate(440.604 760.826)">
      <path id="Path_573" data-name="Path 573" class="cls-2" d="M517.937,775.5l-1.662-.728a.173.173,0,0,1-.049-.284l.811-.765a.375.375,0,0,1,.409-.071c.734.322,1.381.6,2.036.888a.341.341,0,0,1,.1.56l-.144.136A1.381,1.381,0,0,1,517.937,775.5Z" transform="translate(-516.171 -773.625)"/>
    </g>
    <g id="Group_308" data-name="Group 308" transform="translate(422.935 753.482)">
      <path id="Path_574" data-name="Path 574" class="cls-2" d="M483.1,760.19l.719-.429a.08.08,0,0,1,.12.057l.07.51a.173.173,0,0,1-.083.172c-.318.19-.6.357-.879.527a.157.157,0,0,1-.237-.113l-.013-.091A.637.637,0,0,1,483.1,760.19Z" transform="translate(-482.787 -759.75)"/>
    </g>
    <path id="Path_575" data-name="Path 575" class="cls-4" d="M481.9,766.112c.04.689.074,1.281.1,1.877a.174.174,0,0,1-.234.172l-.524-.2a.679.679,0,0,1-.4-.869l.26-.705a.676.676,0,0,1,.621-.443A.173.173,0,0,1,481.9,766.112Z" transform="translate(-58.919 -9.186)"/>
    <g id="Group_309" data-name="Group 309" transform="translate(427.973 756.041)">
      <path id="Path_576" data-name="Path 576" class="cls-4" d="M492.981,766.265c-.206-.448-.42-.916-.66-1.441a.151.151,0,0,1,.133-.213l.973-.026a.327.327,0,0,1,.307.192c.291.636.548,1.2.81,1.762a.3.3,0,0,1-.261.422l-.173,0A1.2,1.2,0,0,1,492.981,766.265Z" transform="translate(-492.307 -764.585)"/>
    </g>
    <path id="Path_577" data-name="Path 577" class="cls-2" d="M484.834,767.1l-1.493-.763a2.011,2.011,0,0,1-.724-.617,2.054,2.054,0,0,1-.168-2.107l.073-.143.949-1.866a2,2,0,0,1,1.177-1.012,2.03,2.03,0,0,1,.825-.09.517.517,0,0,1,.46.548c-.119,2.063-.227,3.838-.343,5.621A.52.52,0,0,1,484.834,767.1Z" transform="translate(-59.59 -6.617)"/>
    <path id="Path_578" data-name="Path 578" class="cls-2" d="M489.675,758.916c.544.008,1.011.016,1.48.027a.137.137,0,0,1,.121.194l-.184.4a.535.535,0,0,1-.706.264l-.539-.246a.526.526,0,0,1-.279-.3.538.538,0,0,1-.033-.215A.136.136,0,0,1,489.675,758.916Z" transform="translate(-63.029 -5.875)"/>
    <path id="Path_579" data-name="Path 579" class="cls-5" d="M481.455,757.411c-.3.456-.553.846-.812,1.238a.137.137,0,0,1-.229,0l-.241-.369a.535.535,0,0,1,.152-.738l.495-.325a.53.53,0,0,1,.6.01A.136.136,0,0,1,481.455,757.411Z" transform="translate(-58.58 -5.033)"/>
    <g id="Group_310" data-name="Group 310" transform="translate(423.443 752.716)">
      <path id="Path_580" data-name="Path 580" class="cls-4" d="M485.116,760.01l-1.3-.882a.149.149,0,0,1,0-.249l.811-.525a.327.327,0,0,1,.36,0c.575.39,1.082.732,1.6,1.076a.3.3,0,0,1,0,.494l-.144.093A1.2,1.2,0,0,1,485.116,760.01Z" transform="translate(-483.747 -758.302)"/>
    </g>
    <g id="Group_311" data-name="Group 311" transform="translate(425.633 755.03)">
      <path id="Path_581" data-name="Path 581" class="cls-5" d="M491.265,764.988c.212,1.123.431,2.3.676,3.614a.35.35,0,0,1-.419.406l-2.206-.486a.761.761,0,0,1-.584-.6c-.3-1.6-.562-3-.834-4.422a.69.69,0,0,1,.826-.8l.392.086A2.8,2.8,0,0,1,491.265,764.988Z" transform="translate(-487.886 -762.674)"/>
    </g>
    <g id="Group_312" data-name="Group 312" transform="translate(423.075 749.164)">
      <path id="Path_582" data-name="Path 582" class="cls-5" d="M485.706,754.2c-.772-.254-1.579-.521-2.483-.821a.249.249,0,0,1-.109-.4l1.061-1.207a.543.543,0,0,1,.577-.156c1.1.364,2.063.683,3.041,1a.491.491,0,0,1,.218.791l-.188.214A1.99,1.99,0,0,1,485.706,754.2Z" transform="translate(-483.052 -751.592)"/>
    </g>
    <path id="Path_583" data-name="Path 583" class="cls-5" d="M489.783,760.9c-.812.023-1.511.04-2.213.054a.2.2,0,0,1-.193-.282l.249-.61a.8.8,0,0,1,1.037-.44l.821.332a.8.8,0,0,1,.5.748A.2.2,0,0,1,489.783,760.9Z" transform="translate(-62.006 -6.179)"/>
    <path id="Path_584" data-name="Path 584" class="cls-5" d="M485.924,765.2c-.09.358-.169.665-.25.974a.092.092,0,0,1-.147.05l-.236-.184a.362.362,0,0,1-.065-.507l.247-.318a.355.355,0,0,1,.24-.138.364.364,0,0,1,.148.012A.093.093,0,0,1,485.924,765.2Z" transform="translate(-60.965 -8.775)"/>
    <path id="Path_585" data-name="Path 585" class="cls-5" d="M487.133,773.193c-.2-.49-.374-.912-.544-1.338a.133.133,0,0,1,.127-.183l.43.011a.522.522,0,0,1,.509.531l-.013.577a.518.518,0,0,1-.341.477A.132.132,0,0,1,487.133,773.193Z" transform="translate(-61.637 -11.88)"/>
    <path id="Path_586" data-name="Path 586" class="cls-5" d="M491.794,769.1c.122-.516.229-.959.338-1.4a.134.134,0,0,1,.21-.075l.343.26a.522.522,0,0,1,.1.728l-.348.462a.516.516,0,0,1-.343.2.509.509,0,0,1-.212-.014A.132.132,0,0,1,491.794,769.1Z" transform="translate(-64.09 -9.959)"/>
    <path id="Path_587" data-name="Path 587" class="cls-5" d="M483.877,770.62c-.745.7-1.387,1.3-2.034,1.893a.257.257,0,0,1-.417-.1l-.274-.781a1,1,0,0,1,.608-1.277l1.048-.371a.987.987,0,0,1,.765.039,1,1,0,0,1,.326.248A.255.255,0,0,1,483.877,770.62Z" transform="translate(-59.055 -11.056)"/>
    <g id="Group_313" data-name="Group 313" transform="translate(420.664 754.08)">
      <path id="Path_588" data-name="Path 588" class="cls-5" d="M480.521,762.714c-.585-.129-1.2-.266-1.881-.419a.183.183,0,0,1-.11-.285l.689-.963a.4.4,0,0,1,.411-.157c.83.186,1.563.348,2.3.509a.362.362,0,0,1,.217.564l-.122.171A1.466,1.466,0,0,1,480.521,762.714Z" transform="translate(-478.496 -760.879)"/>
    </g>
    <path id="Path_589" data-name="Path 589" class="cls-4" d="M485.008,768.221c.615-.5,1.145-.929,1.679-1.358a.2.2,0,0,1,.317.1l.17.62a.78.78,0,0,1-.54.957l-.833.231a.777.777,0,0,1-.83-.282A.2.2,0,0,1,485.008,768.221Z" transform="translate(-60.863 -9.596)"/>
    <g id="Group_314" data-name="Group 314" transform="translate(422.398 750.927)">
      <path id="Path_590" data-name="Path 590" class="cls-2" d="M483.16,755.11l1.112.783a.13.13,0,0,1-.006.216l-.71.441a.282.282,0,0,1-.311-.009c-.491-.346-.925-.651-1.363-.956a.256.256,0,0,1,.011-.427l.126-.078A1.035,1.035,0,0,1,483.16,755.11Z" transform="translate(-481.773 -754.923)"/>
    </g>
    <g id="Group_315" data-name="Group 315" transform="translate(424.95 751.364)">
      <path id="Path_591" data-name="Path 591" class="cls-4" d="M486.75,756.383l.54-.61a.078.078,0,0,1,.128.018l.215.452a.17.17,0,0,1-.026.185c-.239.269-.449.506-.66.747a.153.153,0,0,1-.253-.036l-.038-.08A.619.619,0,0,1,486.75,756.383Z" transform="translate(-486.595 -755.747)"/>
    </g>
    <g id="Group_316" data-name="Group 316" transform="translate(421.733 761.046)">
      <path id="Path_592" data-name="Path 592" class="cls-2" d="M482.371,774.74c.278.491.567,1,.891,1.581a.173.173,0,0,1-.131.256l-1.108.124a.376.376,0,0,1-.369-.19c-.393-.7-.74-1.314-1.093-1.933a.341.341,0,0,1,.258-.508l.2-.022A1.38,1.38,0,0,1,482.371,774.74Z" transform="translate(-480.516 -774.041)"/>
    </g>
    <path id="Path_593" data-name="Path 593" class="cls-5" d="M511.025,826.908c-1.131-1.8-2.1-3.359-3.066-4.925a.536.536,0,0,1,.379-.812l1.71-.249a2.095,2.095,0,0,1,2.374,1.756l.341,2.3a2.065,2.065,0,0,1-.386,1.552,2.1,2.1,0,0,1-.639.568A.534.534,0,0,1,511.025,826.908Z" transform="translate(-71.664 -35.053)"/>
    <g id="Group_317" data-name="Group 317" transform="translate(436.049 756.607)">
      <path id="Path_594" data-name="Path 594" class="cls-5" d="M510.007,771.748c-.747-1.622-1.522-3.318-2.391-5.222a.546.546,0,0,1,.481-.773l3.527-.1a1.189,1.189,0,0,1,1.114.695c1.053,2.307,1.986,4.339,2.936,6.387a1.078,1.078,0,0,1-.947,1.532l-.626.018A4.368,4.368,0,0,1,510.007,771.748Z" transform="translate(-507.565 -765.655)"/>
    </g>
    <path id="Path_595" data-name="Path 595" class="cls-2" d="M518.611,790.393c1.679,3.46,3.116,6.441,4.546,9.443a.969.969,0,0,1-.839,1.384l-3.119.114a3.782,3.782,0,0,1-3.92-3.616l-.166-4.19a3.727,3.727,0,0,1,1-2.713,3.769,3.769,0,0,1,1.258-.895A.964.964,0,0,1,518.611,790.393Z" transform="translate(-75.068 -20.434)"/>
    <g id="Group_318" data-name="Group 318" transform="translate(429.652 775.745)">
      <path id="Path_596" data-name="Path 596" class="cls-4" d="M508.555,812.637c-3.655.6-7.474,1.222-11.759,1.914a1.134,1.134,0,0,1-1.283-1.387l1.743-7.108a2.467,2.467,0,0,1,2-1.846c5.192-.839,9.771-1.588,14.389-2.363a2.237,2.237,0,0,1,2.544,2.736l-.308,1.263A9.06,9.06,0,0,1,508.555,812.637Z" transform="translate(-495.479 -801.815)"/>
    </g>
    <path id="Path_597" data-name="Path 597" class="cls-5" d="M529.093,798.85c-.878-2.941-1.626-5.472-2.366-8.019a.773.773,0,0,1,.838-.982l2.471.311a3.018,3.018,0,0,1,2.623,3.35l-.407,3.321a2.976,2.976,0,0,1-1.133,2.008,3.019,3.019,0,0,1-1.106.543A.77.77,0,0,1,529.093,798.85Z" transform="translate(-80.522 -20.434)"/>
    <path id="Path_598" data-name="Path 598" class="cls-2" d="M492.623,799.961c-.966-.409-1.8-.764-2.628-1.124a.264.264,0,0,1-.076-.434l.62-.583a1.032,1.032,0,0,1,1.454.039l.786.83a1.017,1.017,0,0,1,.282.736,1.033,1.033,0,0,1-.1.41A.263.263,0,0,1,492.623,799.961Z" transform="translate(-63.171 -24.057)"/>
    <path id="Path_599" data-name="Path 599" class="cls-2" d="M515.962,816.686c3.024-3.331,5.632-6.189,8.267-9.048a1.133,1.133,0,0,1,1.868.308l1.483,3.335a4.424,4.424,0,0,1-2.216,5.83l-4.475,2.005a4.361,4.361,0,0,1-3.378.1,4.417,4.417,0,0,1-1.519-.976A1.126,1.126,0,0,1,515.962,816.686Z" transform="translate(-75.329 -28.639)"/>
    <path id="Path_600" data-name="Path 600" class="cls-5" d="M475.75,803.513c1.721-2.118,3.206-3.936,4.706-5.755a.687.687,0,0,1,1.142.124l1.009,1.971a2.683,2.683,0,0,1-1.148,3.6l-2.644,1.364a2.645,2.645,0,0,1-2.042.174,2.683,2.683,0,0,1-.953-.54A.684.684,0,0,1,475.75,803.513Z" transform="translate(-56.466 -24.042)"/>
    <g id="Group_319" data-name="Group 319" transform="translate(409.228 749.167)">
      <path id="Path_601" data-name="Path 601" class="cls-5" d="M463.1,757.393c-1.8-.466-3.679-.957-5.787-1.509a.569.569,0,0,1-.307-.9l2.243-2.909a1.239,1.239,0,0,1,1.294-.441c2.554.669,4.808,1.255,7.086,1.837a1.123,1.123,0,0,1,.612,1.773l-.4.517A4.548,4.548,0,0,1,463.1,757.393Z" transform="translate(-456.889 -751.596)"/>
    </g>
    <path id="Path_602" data-name="Path 602" class="cls-2" d="M480.442,767.565c2.959-4.391,5.513-8.161,8.1-11.936a1.333,1.333,0,0,1,2.227.042l2.291,3.633a5.208,5.208,0,0,1-1.594,7.166l-4.872,3.092a5.132,5.132,0,0,1-3.917.69,5.2,5.2,0,0,1-1.935-.879A1.326,1.326,0,0,1,480.442,767.565Z" transform="translate(-58.64 -4.055)"/>
    <path id="Path_603" data-name="Path 603" class="cls-4" d="M493.9,799.311c.924-1.355,1.722-2.519,2.53-3.684a.413.413,0,0,1,.69.017l.7,1.13a1.613,1.613,0,0,1-.507,2.217l-1.515.95a1.588,1.588,0,0,1-1.215.207,1.612,1.612,0,0,1-.6-.276A.411.411,0,0,1,493.9,799.311Z" transform="translate(-65.051 -23.073)"/>
    <g id="Group_320" data-name="Group 320" transform="translate(407.38 754.464)">
      <path id="Path_604" data-name="Path 604" class="cls-2" d="M458.005,761.735c1.537.406,3.142.835,4.941,1.315a.487.487,0,0,1,.259.768l-1.931,2.478a1.058,1.058,0,0,1-1.108.371c-2.181-.583-4.105-1.093-6.05-1.6a.96.96,0,0,1-.516-1.518l.342-.44A3.889,3.889,0,0,1,458.005,761.735Z" transform="translate(-453.397 -761.606)"/>
    </g>
    <path id="Path_605" data-name="Path 605" class="cls-4" d="M473.472,763.777c4.455-.805,8.289-1.486,12.144-2.153a1.14,1.14,0,0,1,1.3,1.39l-.862,3.571a4.452,4.452,0,0,1-5.342,3.295l-4.8-1.143a4.388,4.388,0,0,1-2.758-1.989,4.444,4.444,0,0,1-.614-1.711A1.133,1.133,0,0,1,473.472,763.777Z" transform="translate(-55.024 -7.142)"/>
    <g id="Group_321" data-name="Group 321" transform="translate(424.943 775.544)">
      <path id="Path_606" data-name="Path 606" class="cls-2" d="M495.777,809.778c-2.523.856-5.161,1.744-8.12,2.738a.815.815,0,0,1-1.073-.834l.4-5.249a1.774,1.774,0,0,1,1.2-1.545c3.586-1.205,6.747-2.274,9.934-3.367a1.609,1.609,0,0,1,2.127,1.643l-.07.932A6.517,6.517,0,0,1,495.777,809.778Z" transform="translate(-486.581 -801.434)"/>
    </g>
    <g id="Group_322" data-name="Group 322" transform="translate(415.664 771.43)">
      <path id="Path_607" data-name="Path 607" class="cls-4" d="M469.143,799.671c.365-1.735.751-3.547,1.185-5.579a.543.543,0,0,1,.842-.332l2.869,2.01a1.181,1.181,0,0,1,.476,1.214c-.526,2.462-.985,4.635-1.441,6.831a1.071,1.071,0,0,1-1.662.661l-.51-.356A4.338,4.338,0,0,1,469.143,799.671Z" transform="translate(-469.05 -793.662)"/>
    </g>
    <g id="Group_323" data-name="Group 323" transform="translate(409.661 760.324)">
      <path id="Path_608" data-name="Path 608" class="cls-4" d="M464.626,779.36c-2.011-.611-4.11-1.255-6.463-1.978a.643.643,0,0,1-.3-1.027l2.671-3.179a1.4,1.4,0,0,1,1.482-.437c2.852.877,5.37,1.645,7.915,2.41a1.27,1.27,0,0,1,.608,2.031l-.474.565A5.14,5.14,0,0,1,464.626,779.36Z" transform="translate(-457.708 -772.677)"/>
    </g>
    <g id="Group_324" data-name="Group 324" transform="translate(396.203 776.432)">
      <path id="Path_609" data-name="Path 609" class="cls-3" d="M446.8,811.431c-4.26-1.264-8.831-2.275-14.455-3.517-.064-.014-.092-.068-.05-.105l5.218-4.6a.441.441,0,0,1,.376-.08c5.393,1.192,9.9,2.181,14.671,3.2.084.018.117.094.061.143l-5.556,4.911A.289.289,0,0,1,446.8,811.431Z" transform="translate(-432.279 -803.112)"/>
    </g>
    <g id="Group_325" data-name="Group 325" transform="translate(407.38 771.993)">
      <path id="Path_610" data-name="Path 610" class="cls-1" d="M455.353,801.291c-.613-1.811-1.215-3.629-1.953-5.864a.1.1,0,0,1,.075-.113l3.536-.588a.063.063,0,0,1,.074.041c.711,2.156,1.309,3.95,1.952,5.838a.094.094,0,0,1-.074.111l-3.569.6A.035.035,0,0,1,455.353,801.291Z" transform="translate(-453.396 -794.726)"/>
    </g>
    <g id="Group_326" data-name="Group 326" transform="translate(392.631 781.345)">
      <path id="Path_611" data-name="Path 611" class="cls-1" d="M432.191,816.083c-2.033.942-4.07,1.873-6.573,3.016-.05.023-.1-.007-.087-.058l.646-3.544a.12.12,0,0,1,.068-.083c2.414-1.1,4.426-2.026,6.546-3.011.049-.023.094.007.085.058l-.648,3.577A.066.066,0,0,1,432.191,816.083Z" transform="translate(-425.53 -812.395)"/>
    </g>
    <g id="Group_327" data-name="Group 327" transform="translate(399.769 763.857)">
      <path id="Path_612" data-name="Path 612" class="cls-6" d="M439.027,788.859c1.688-2.933,3.393-5.857,5.489-9.449a.105.105,0,0,1,.181-.01l3.053,4.772a.155.155,0,0,1,0,.159c-2.022,3.463-3.7,6.356-5.46,9.419a.1.1,0,0,1-.177.008l-3.085-4.813A.084.084,0,0,1,439.027,788.859Z" transform="translate(-439.016 -779.353)"/>
    </g>
    <g id="Group_328" data-name="Group 328" transform="translate(406.307 761.303)">
      <path id="Path_613" data-name="Path 613" class="cls-1" d="M454.668,774.887c.517,1.733,1.024,3.471,1.645,5.606a.065.065,0,0,1-.068.081l-3.163-.331a.078.078,0,0,1-.065-.055c-.6-2.059-1.1-3.775-1.644-5.582a.063.063,0,0,1,.068-.079l3.192.332A.04.04,0,0,1,454.668,774.887Z" transform="translate(-451.369 -774.526)"/>
    </g>
    <path id="Path_614" data-name="Path 614" class="cls-6" d="M381.845,805.817c1.922,2.947,3.5,5.39,5.123,7.923a.07.07,0,0,1-.047.106l-3.332.545a2.869,2.869,0,0,1-3.292-2.347l-.523-3.135a2.85,2.85,0,0,1,1.866-3.167A.179.179,0,0,1,381.845,805.817Z" transform="translate(-11.341 -27.915)"/>
    <path id="Path_615" data-name="Path 615" class="cls-1" d="M419.5,804.313c.922-2.766,1.692-5.051,2.5-7.407a.058.058,0,0,1,.093-.024l2.07,1.881a2.375,2.375,0,0,1,.174,3.345l-1.764,1.955a2.36,2.36,0,0,1-3.016.421A.149.149,0,0,1,419.5,804.313Z" transform="translate(-30.055 -23.741)"/>
    <path id="Path_616" data-name="Path 616" class="cls-3" d="M459.476,796.147c-1.771-.413-3.234-.76-4.744-1.127a.036.036,0,0,1-.02-.057l1.049-1.394a1.483,1.483,0,0,1,2.068-.3l1.315.984a1.473,1.473,0,0,1,.435,1.849A.092.092,0,0,1,459.476,796.147Z" transform="translate(-46.633 -21.909)"/>
    <path id="Path_617" data-name="Path 617" class="cls-6" d="M392.947,811.191c-1.387-1.177-2.53-2.154-3.706-3.169a.036.036,0,0,1,.007-.06l1.57-.761a1.481,1.481,0,0,1,1.977.677l.721,1.476a1.472,1.472,0,0,1-.458,1.843A.092.092,0,0,1,392.947,811.191Z" transform="translate(-15.81 -28.533)"/>
    <path id="Path_618" data-name="Path 618" class="cls-6" d="M429.821,774.193c-4.408.791-8.055,1.433-11.828,2.076a.089.089,0,0,1-.1-.108l1.013-4.176a3.65,3.65,0,0,1,4.383-2.694l3.934.942a3.627,3.627,0,0,1,2.787,3.758A.229.229,0,0,1,429.821,774.193Z" transform="translate(-29.302 -10.71)"/>
    <g id="Group_329" data-name="Group 329" transform="translate(390.158 749.975)">
      <path id="Path_619" data-name="Path 619" class="cls-3" d="M430.681,753.251c4.031,4.15,8.051,8.334,12.988,13.479a.1.1,0,0,1-.033.162l-9.4,3.584a.3.3,0,0,1-.321-.075c-4.779-4.982-8.773-9.127-13.02-13.482a.129.129,0,0,1,.043-.213l9.3-3.553A.413.413,0,0,1,430.681,753.251Z" transform="translate(-420.857 -753.124)"/>
    </g>
    <path id="Path_620" data-name="Path 620" class="cls-6" d="M416.365,785.715c-1.443,3.209-2.644,5.86-3.9,8.591a.07.07,0,0,1-.115.017l-2.258-2.51a2.868,2.868,0,0,1,.2-4.038l2.356-2.133a2.852,2.852,0,0,1,3.674-.14A.18.18,0,0,1,416.365,785.715Z" transform="translate(-25.283 -18.107)"/>
    <g id="Group_330" data-name="Group 330" transform="translate(388.374 766.879)">
      <path id="Path_621" data-name="Path 621" class="cls-3" d="M423.5,785.117c2.3,2.457,4.906,4.781,8.117,7.638a.066.066,0,0,1-.012.111l-5.411,2.567a.26.26,0,0,1-.284-.043c-3.079-2.742-5.656-5.026-8.392-7.422a.089.089,0,0,1,.02-.148l5.765-2.74A.169.169,0,0,1,423.5,785.117Z" transform="translate(-417.487 -785.063)"/>
    </g>
    <g id="Group_331" data-name="Group 331" transform="translate(370.022 771.346)">
      <path id="Path_622" data-name="Path 622" class="cls-3" d="M388.076,796.082c-.619,2.291-1.041,4.72-1.56,7.708a.047.047,0,0,1-.071.034l-3.552-2.289a.183.183,0,0,1-.08-.186c.5-2.866.908-5.261,1.327-7.793a.063.063,0,0,1,.1-.044l3.788,2.437A.12.12,0,0,1,388.076,796.082Z" transform="translate(-382.811 -793.503)"/>
    </g>
    <g id="Group_332" data-name="Group 332" transform="translate(389.581 771.083)">
      <path id="Path_623" data-name="Path 623" class="cls-6" d="M430.217,793.237c2.59,5.173,5.159,10.375,8.313,16.771a.1.1,0,0,1-.081.145l-10.044.578a.3.3,0,0,1-.283-.168c-3.051-6.193-5.608-11.349-8.342-16.784a.13.13,0,0,1,.106-.191l9.936-.581A.413.413,0,0,1,430.217,793.237Z" transform="translate(-419.766 -793.007)"/>
    </g>
    <g id="Group_333" data-name="Group 333" transform="translate(399.028 767.943)">
      <path id="Path_624" data-name="Path 624" class="cls-1" d="M438.528,787.763c1.8-.221,3.592-.432,5.8-.691a.062.062,0,0,1,.068.078l-.869,2.974a.077.077,0,0,1-.065.054c-2.13.248-3.905.46-5.778.694a.061.061,0,0,1-.066-.077l.874-3A.041.041,0,0,1,438.528,787.763Z" transform="translate(-437.616 -787.072)"/>
    </g>
    <g id="Group_334" data-name="Group 334" transform="translate(399.028 772.076)">
      <path id="Path_625" data-name="Path 625" class="cls-1" d="M445.96,799.209c-1.446,2.8-2.908,5.6-4.708,9.03a.109.109,0,0,1-.179.021l-3.427-4.174a.134.134,0,0,1-.014-.146c1.736-3.31,3.177-6.075,4.681-9a.106.106,0,0,1,.176-.02l3.462,4.21A.072.072,0,0,1,445.96,799.209Z" transform="translate(-437.616 -794.883)"/>
    </g>
    <g id="Group_335" data-name="Group 335" transform="translate(374.562 756.096)">
      <path id="Path_626" data-name="Path 626" class="cls-1" d="M408.684,774.565c-4.21,3.968-8.453,7.925-13.672,12.784a.1.1,0,0,1-.163-.035l-3.442-9.453a.3.3,0,0,1,.08-.32c5.054-4.7,9.257-8.635,13.676-12.816a.131.131,0,0,1,.213.047l3.413,9.35A.414.414,0,0,1,408.684,774.565Z" transform="translate(-391.39 -764.688)"/>
    </g>
    <g id="Group_336" data-name="Group 336" transform="translate(372.016 768.814)">
      <path id="Path_627" data-name="Path 627" class="cls-6" d="M390.85,788.731c3.122,1.251,6.472,2.247,10.592,3.471a.067.067,0,0,1,.037.106l-3.81,4.62a.259.259,0,0,1-.275.082c-3.951-1.176-7.255-2.149-10.749-3.158a.089.089,0,0,1-.045-.142l4.057-4.928A.169.169,0,0,1,390.85,788.731Z" transform="translate(-386.579 -788.719)"/>
    </g>
    <g id="Group_337" data-name="Group 337" transform="translate(368.242 780.775)">
      <path id="Path_628" data-name="Path 628" class="cls-3" d="M386.087,811.333c5.585,1.508,11.178,3.053,18.051,4.954a.1.1,0,0,1,.055.157l-6.252,7.882a.3.3,0,0,1-.314.1c-6.653-1.843-12.2-3.365-18.079-4.941a.13.13,0,0,1-.072-.206l6.179-7.8A.413.413,0,0,1,386.087,811.333Z" transform="translate(-379.448 -811.318)"/>
    </g>
    <g id="Group_338" data-name="Group 338" transform="translate(377.444 776.734)">
      <path id="Path_629" data-name="Path 629" class="cls-1" d="M401.438,806.031c-.726,1.657-1.461,3.309-2.366,5.341a.062.062,0,0,1-.1.018l-2.114-2.265a.076.076,0,0,1-.013-.083c.873-1.959,1.6-3.594,2.352-5.323a.061.061,0,0,1,.1-.017l2.136,2.284A.042.042,0,0,1,401.438,806.031Z" transform="translate(-396.836 -803.683)"/>
    </g>
    <g id="Group_339" data-name="Group 339" transform="translate(383.722 770.643)">
      <path id="Path_630" data-name="Path 630" class="cls-3" d="M411.072,792.179c1.648.747,3.291,1.5,5.311,2.434a.062.062,0,0,1,.017.1l-2.291,2.085a.076.076,0,0,1-.083.012c-1.947-.9-3.573-1.643-5.293-2.419a.061.061,0,0,1-.016-.1l2.311-2.106A.04.04,0,0,1,411.072,792.179Z" transform="translate(-408.697 -792.175)"/>
    </g>
    <g id="Group_340" data-name="Group 340" transform="translate(380.441 777.82)">
      <path id="Path_631" data-name="Path 631" class="cls-6" d="M406.639,805.741c2.872,1.3,5.737,2.62,9.258,4.243a.108.108,0,0,1,.03.178l-3.994,3.635a.135.135,0,0,1-.145.022c-3.394-1.566-6.228-2.864-9.227-4.217a.107.107,0,0,1-.029-.175l4.028-3.672A.072.072,0,0,1,406.639,805.741Z" transform="translate(-402.498 -805.735)"/>
    </g>
    <g id="Group_341" data-name="Group 341" transform="translate(416.079 758.234)">
      <path id="Path_632" data-name="Path 632" class="cls-2" d="M470.981,771c.93-.687,1.9-1.4,3-2.205a.354.354,0,0,1,.554.2l.527,2.224a.771.771,0,0,1-.294.8c-1.324.972-2.49,1.832-3.664,2.705a.7.7,0,0,1-1.1-.4l-.094-.4A2.83,2.83,0,0,1,470.981,771Z" transform="translate(-469.833 -768.728)"/>
    </g>
    <g id="Group_342" data-name="Group 342" transform="translate(418.88 760.552)">
      <path id="Path_633" data-name="Path 633" class="cls-5" d="M489.143,774.543c3.772,2.185,7.708,4.477,12.119,7.05a1.334,1.334,0,0,1,.13,2.22l-6.9,5.159a2.9,2.9,0,0,1-3.2.181c-5.347-3.118-10.07-5.859-14.847-8.607a2.633,2.633,0,0,1-.268-4.39l1.224-.917A10.662,10.662,0,0,1,489.143,774.543Z" transform="translate(-475.126 -773.107)"/>
    </g>
    <path id="Path_634" data-name="Path 634" class="cls-2" d="M482.358,787.153c-2.608,2.5-4.856,4.642-7.126,6.785a.909.909,0,0,1-1.478-.35l-1-2.754a3.552,3.552,0,0,1,2.1-4.546l3.7-1.357a3.5,3.5,0,0,1,2.711.107,3.551,3.551,0,0,1,1.163.866A.9.9,0,0,1,482.358,787.153Z" transform="translate(-55.024 -18.017)"/>
    <path id="Path_635" data-name="Path 635" class="cls-5" d="M489.949,816.743c-1.243,1.071-2.314,1.988-3.4,2.906a.413.413,0,0,1-.662-.195l-.388-1.273a1.613,1.613,0,0,1,1.062-2.011l1.709-.526a1.591,1.591,0,0,1,1.227.114,1.611,1.611,0,0,1,.506.421A.411.411,0,0,1,489.949,816.743Z" transform="translate(-61.096 -32.545)"/>
    <path id="Path_636" data-name="Path 636" class="cls-4" d="M486.652,803.938c.7,1.485,1.295,2.763,1.888,4.051a.413.413,0,0,1-.365.585l-1.331.032a1.613,1.613,0,0,1-1.652-1.563l-.049-1.787a1.606,1.606,0,0,1,.981-1.526A.411.411,0,0,1,486.652,803.938Z" transform="translate(-60.961 -26.956)"/>
    <path id="Path_637" data-name="Path 637" class="cls-4" d="M514.949,780.527c-1.915,1.616-3.566,3-5.231,4.387a.631.631,0,0,1-1.009-.307l-.573-1.951a2.465,2.465,0,0,1,1.653-3.056l2.619-.778a2.43,2.43,0,0,1,1.873.193,2.463,2.463,0,0,1,.767.65A.629.629,0,0,1,514.949,780.527Z" transform="translate(-71.736 -15.197)"/>
    <path id="Path_345" data-name="Path 345" class="cls-7" d="M365.423,847.446s-.575,6.191,7.079,5.221a51.3,51.3,0,0,0,13.318-3.54s3.85-1.637,5.575,1.991,2.611,9.734,2.611,9.734a59.157,59.157,0,0,1,.2,10.449,2.871,2.871,0,0,0,2.6,3.122c.09.008.18.012.27.012h37.51a2.881,2.881,0,0,0,2.6-4.121,27.8,27.8,0,0,1-2.824-10.921c-.176-7.965,10.175-27.7,10.175-27.7s14.734-21.633,12.344-49.378a36.384,36.384,0,0,0-12.863-24.763,45.85,45.85,0,0,0-32.484-11.051c-18.882.929-51.822,8.221-46.37,48.448a18.155,18.155,0,0,1-1.976,10.935,54.131,54.131,0,0,1-6.586,9.747s-2.921,4.048,1.461,5.243q.183.049.355.105a5.455,5.455,0,0,1,3.418,6.844c-.139.442-.294.961-.455,1.545-.19.691,1,1.622,1.972,2.256a.658.658,0,0,1,.192.91.65.65,0,0,1-.109.128c-.91.825-2.33,2.284-1.391,2.612,1.327.465,3.02,2.058,3.02,3.019S365.423,847.446,365.423,847.446Z"/>
    <g id="Group_343" data-name="Group 343" transform="translate(387.547 774.19)">
      <path id="Path_638" data-name="Path 638" class="cls-6" d="M419.054,800.236c-.051,1.808-.113,3.616-.19,5.839a.062.062,0,0,1-.087.056l-2.809-1.307a.076.076,0,0,1-.043-.071c.075-2.143.133-3.93.183-5.817a.061.061,0,0,1,.086-.054l2.837,1.316A.041.041,0,0,1,419.054,800.236Z" transform="translate(-415.924 -798.876)"/>
    </g>
    <path id="Path_639" data-name="Path 639" class="cls-5" d="M459.476,769.621c-1.524.621-2.837,1.151-4.158,1.678a.414.414,0,0,1-.567-.4l.038-1.335a1.618,1.618,0,0,1,1.653-1.574l1.794.046a1.6,1.6,0,0,1,1.13.5,1.629,1.629,0,0,1,.347.562A.414.414,0,0,1,459.476,769.621Z" transform="translate(-46.654 -10.148)"/>
    <g id="Group_344" data-name="Group 344" transform="translate(418.348 783.665)">
      <path id="Path_640" data-name="Path 640" class="cls-2" d="M479.937,824.8c-1.734-1.454-3.543-2.978-5.57-4.688a.693.693,0,0,1,.132-1.148l3.989-2.023a1.508,1.508,0,0,1,1.653.193c2.457,2.073,4.628,3.9,6.827,5.729a1.368,1.368,0,0,1-.255,2.269l-.708.36A5.538,5.538,0,0,1,479.937,824.8Z" transform="translate(-474.12 -816.779)"/>
    </g>
    <path id="Path_641" data-name="Path 641" class="cls-5" d="M462.159,812.656c2.915,1.062,5.42,1.982,7.933,2.918a.781.781,0,0,1,.291,1.273l-1.743,1.816a3.05,3.05,0,0,1-4.3.106l-2.448-2.334a3.009,3.009,0,0,1-.946-2.13,3.053,3.053,0,0,1,.227-1.225A.778.778,0,0,1,462.159,812.656Z" transform="translate(-49.571 -31.151)"/>
    <path id="Path_642" data-name="Path 642" class="cls-5" d="M492.251,823.527c1.346-.362,2.5-.67,3.67-.974a.35.35,0,0,1,.435.393l-.172,1.118a1.371,1.371,0,0,1-1.554,1.148l-1.5-.227a1.364,1.364,0,0,1-1.13-1.048A.349.349,0,0,1,492.251,823.527Z" transform="translate(-64.184 -35.827)"/>
    <path id="Path_643" data-name="Path 643" class="cls-1" d="M410.244,816.14c.439-1.252.81-2.3,1.2-3.365a.1.1,0,0,1,.167-.04l.887.831a1.13,1.13,0,0,1,.058,1.592l-.854.916a1.114,1.114,0,0,1-.784.359,1.128,1.128,0,0,1-.626-.165A.11.11,0,0,1,410.244,816.14Z" transform="translate(-25.7 -31.197)"/>
    <path id="Path_644" data-name="Path 644" class="cls-4" d="M465.213,803.354a.569.569,0,0,1-.132.439.585.585,0,0,1-.4.222l-.667.064a.6.6,0,0,1-.439-.132.587.587,0,0,1-.2-.3.04.04,0,0,1,.021-.048c.561-.318,1.037-.582,1.519-.847.085.048.169.09.254.132Z" transform="translate(-50.714 -26.513)"/>
  </g>
</svg>
