<svg xmlns="http://www.w3.org/2000/svg" width="103.511" height="130.01" viewBox="0 0 103.511 130.01">
  <defs>
    <style>
      .cls-1 {
        fill: none;
        stroke: #000;
        stroke-miterlimit: 10;
        stroke-width: 2px;
      }

      .cls-2 {
        fill: #a7242a;
      }

      .cls-3 {
        fill: #bcd9f7;
      }
    </style>
  </defs>
  <g id="balance_icon" data-name="balance icon" transform="translate(-595.605 -440.238)">
    <path id="Path_345" data-name="Path 345" class="cls-1" d="M606.394,542.259s-.575,6.191,7.079,5.221a51.3,51.3,0,0,0,13.318-3.54s3.85-1.638,5.575,1.991,2.611,9.734,2.611,9.734a59.141,59.141,0,0,1,.2,10.449,2.871,2.871,0,0,0,2.6,3.122c.09.008.18.012.27.012h37.51a2.881,2.881,0,0,0,2.6-4.121,27.8,27.8,0,0,1-2.824-10.921c-.176-7.964,10.175-27.7,10.175-27.7s14.733-21.633,12.344-49.377a36.384,36.384,0,0,0-12.863-24.763A45.849,45.849,0,0,0,652.5,441.319c-18.882.929-51.822,8.222-46.37,48.448a18.152,18.152,0,0,1-1.976,10.934,54.115,54.115,0,0,1-6.586,9.747s-2.921,4.048,1.461,5.243c.122.033.24.068.355.106a5.454,5.454,0,0,1,3.418,6.844c-.139.443-.294.961-.455,1.545-.191.692,1,1.622,1.972,2.256a.658.658,0,0,1,.192.911.667.667,0,0,1-.109.128c-.91.824-2.33,2.283-1.391,2.612,1.327.465,3.02,2.057,3.02,3.019S606.394,542.259,606.394,542.259Z" transform="translate(0 0)"/>
    <path id="Path_425" data-name="Path 425" class="cls-2" d="M698.593,472.772c-2.556,11.035-4.774,20.519-7.05,30.041a2.847,2.847,0,0,1-4.478,1.614l-7.336-5.483a12.892,12.892,0,0,0,3.43-3.2l7.373-9.913a12.926,12.926,0,0,0-.688-16.148,9.961,9.961,0,0,1,2.233-.572,11.028,11.028,0,0,1,4.536.275A2.841,2.841,0,0,1,698.593,472.772Z" transform="translate(-39.126 -13.062)"/>
    <g id="Path_347" data-name="Path 347" transform="translate(626.982 448.368)">
      <path id="Path_426" data-name="Path 426" class="cls-3" d="M677.729,462.957a12.446,12.446,0,0,0-1.969-1.826l-7.357-5.51a4.454,4.454,0,0,0-1.688-.789,4.6,4.6,0,0,0-5.547,3.408c-2.17,9.061-4.34,18.328-7.05,30.041a4.591,4.591,0,0,0,3.223,5.478,12.742,12.742,0,0,0,5.25.318c.233-.032.466-.074.693-.122a12.786,12.786,0,0,0,7.759-4.938l7.373-9.913A12.926,12.926,0,0,0,677.729,462.957ZM675.6,477.014l-7.372,9.918a9.32,9.32,0,0,1-9.934,3.445,1.074,1.074,0,0,1-.752-1.291v-.011c2.7-11.707,4.88-20.969,7.039-30.02a1.127,1.127,0,0,1,.5-.683,1.074,1.074,0,0,1,.355-.138,1.088,1.088,0,0,1,.471.005,1.277,1.277,0,0,1,.4.191l7.351,5.51a9.114,9.114,0,0,1,.932.8A9.4,9.4,0,0,1,675.6,477.014Z" transform="translate(-653.993 -454.701)"/>
      <path id="Path_427" data-name="Path 427" class="cls-2" d="M677.71,467.864a10.886,10.886,0,0,0-1.921,2.022l-7.362,9.9a11.125,11.125,0,0,0-.2,12.951,9.32,9.32,0,0,1-6.817.762,1.074,1.074,0,0,1-.752-1.291V492.2c2.7-11.707,4.88-20.969,7.039-30.02a1.127,1.127,0,0,1,.5-.683,1.076,1.076,0,0,1,.355-.138,1.089,1.089,0,0,1,.471.005,1.276,1.276,0,0,1,.4.191l7.351,5.51A9.125,9.125,0,0,1,677.71,467.864Z" transform="translate(-657.118 -457.825)"/>
    </g>
    <path id="Path_428" data-name="Path 428" class="cls-3" d="M721.621,485.8l-.175.064a8.665,8.665,0,0,0-5.5,9.3l1.291,8.664a8.6,8.6,0,0,0,1.011,2.964c.032.053.058.1.09.154-.175.042-.349.074-.529.1l-.021.005-6.42.979a2.143,2.143,0,0,1-.82-.042,2.025,2.025,0,0,1-1.44-2.472c1.762-6.716,3.551-13.39,5.647-21.144a2.02,2.02,0,0,1,2.371-1.455,7.965,7.965,0,0,1,2.932,1.35,7.2,7.2,0,0,1,1.2,1.1A5.579,5.579,0,0,1,721.621,485.8Z" transform="translate(-52.925 -19.592)"/>
    <path id="Path_429" data-name="Path 429" class="cls-2" d="M738.467,487.1a2.718,2.718,0,0,0-1.667-1.265,2.627,2.627,0,0,0-.693-.09,2.71,2.71,0,0,0-.413.032l-6.446.979a8.438,8.438,0,0,0-1.561.392l-.175.064a8.665,8.665,0,0,0-5.5,9.3l1.292,8.664a8.6,8.6,0,0,0,1.011,2.964c.032.053.058.1.09.154a8.661,8.661,0,0,0,1.911,2.239q.183.151.365.286a8.494,8.494,0,0,0,3.2,1.471,2.65,2.65,0,0,0,.582.064,2.729,2.729,0,0,0,2.636-2.027c2.36-8.717,4.049-15.036,5.652-21.144A2.726,2.726,0,0,0,738.467,487.1Zm-1.609,1.577c-1.683,6.388-3.419,12.909-5.652,21.133v.005a.764.764,0,0,1-.185.333.657.657,0,0,1-.19.148.005.005,0,0,0-.005.005.449.449,0,0,1-.116.048.759.759,0,0,1-.2.032.4.4,0,0,1-.079.005.521.521,0,0,1-.127-.016,6.59,6.59,0,0,1-4.012-2.757,7.9,7.9,0,0,0,4.218-8.166l-1.291-8.659a7.884,7.884,0,0,0-.524-1.905,7.271,7.271,0,0,1,.847-.191l6.441-.979a.805.805,0,0,1,.318.016.779.779,0,0,1,.471.36A.786.786,0,0,1,736.857,488.682Z" transform="translate(-58.989 -20.949)"/>
  </g>
</svg>
