<svg xmlns="http://www.w3.org/2000/svg" width="103.276" height="129.698" viewBox="0 0 103.276 129.698">
  <defs>
    <style>
      .cls-1, .cls-2, .cls-3, .cls-4, .cls-5, .cls-6, .cls-7, .cls-8, .cls-9 {
        fill: none;
        stroke-miterlimit: 10;
      }

      .cls-1 {
        stroke: #000;
        stroke-width: 2px;
      }

      .cls-2, .cls-3, .cls-7, .cls-8 {
        stroke: #a7242a;
      }

      .cls-2 {
        stroke-width: 2.447px;
      }

      .cls-3, .cls-4 {
        stroke-width: 1.352px;
      }

      .cls-4, .cls-5, .cls-6, .cls-9 {
        stroke: #bcd9f7;
      }

      .cls-5 {
        stroke-width: 2.164px;
      }

      .cls-6 {
        stroke-width: 1.372px;
      }

      .cls-7 {
        stroke-width: 1.135px;
      }

      .cls-8, .cls-9 {
        stroke-width: 0.851px;
      }
    </style>
  </defs>
  <g id="memory_loss_icon" data-name="memory loss icon" transform="translate(-381.691 -60.736)">
    <path id="head-outline" data-name="Path 25" class="cls-1" d="M391.457,162.508s-.574,6.18,7.062,5.209a51.174,51.174,0,0,0,13.287-3.531s3.84-1.633,5.562,1.987,2.6,9.711,2.6,9.711a58.994,58.994,0,0,1,.2,10.425,2.864,2.864,0,0,0,2.86,3.126h37.424a2.874,2.874,0,0,0,2.59-4.112,27.741,27.741,0,0,1-2.818-10.9c-.176-7.945,10.152-27.632,10.152-27.632s14.7-21.585,12.316-49.262a36.278,36.278,0,0,0-12.833-24.7A45.742,45.742,0,0,0,437.454,61.8c-18.837.927-51.7,8.2-46.262,48.334a18.107,18.107,0,0,1-1.972,10.909,53.965,53.965,0,0,1-6.57,9.724s-2.913,4.039,1.457,5.231c.121.033.239.068.354.106a5.441,5.441,0,0,1,3.41,6.828c-.138.441-.293.958-.454,1.542-.19.689,1,1.618,1.968,2.251a.657.657,0,0,1,.082,1.037c-.909.823-2.325,2.278-1.387,2.605,1.324.464,3.012,2.053,3.012,3.013S391.457,162.508,391.457,162.508Z" transform="translate(1 0)"/>
    <path id="Path_26" data-name="Path 26" class="cls-2" d="M443.563,87.814c-2.434,8.515-4.548,15.832-6.705,23.176a2.229,2.229,0,0,1-3.564,1.085l-5.524-4.595A8.711,8.711,0,0,1,426.6,95.259l6.151-7.441a8.585,8.585,0,0,1,5.874-3.123,8.7,8.7,0,0,1,3.532.4A2.219,2.219,0,0,1,443.563,87.814Z" transform="translate(-19.964 -10.816)"/>
    <path id="Path_27" data-name="Path 27" class="cls-3" d="M497.147,107.558c1.523,4.651,2.843,8.647,4.189,12.657a1.232,1.232,0,0,0,1.991.525l2.954-2.653a4.813,4.813,0,0,0,.391-6.773l-3.553-3.98a4.743,4.743,0,0,0-3.309-1.6,4.811,4.811,0,0,0-1.943.294A1.226,1.226,0,0,0,497.147,107.558Z" transform="translate(-54.173 -20.761)"/>
    <path id="Path_28" data-name="Path 28" class="cls-4" d="M482.82,101.225c1.656,4.605,3.069,8.57,4.471,12.56a1.232,1.232,0,0,1-1.249,1.637l-3.961-.278a4.814,4.814,0,0,1-4.47-5.1l.358-5.323a4.744,4.744,0,0,1,1.627-3.3,4.812,4.812,0,0,1,1.713-.961A1.226,1.226,0,0,1,482.82,101.225Z" transform="translate(-44.975 -18.25)"/>
    <g id="Group_11" data-name="Group 11" transform="translate(459.83 103.923)">
      <path id="Path_29" data-name="Path 29" class="cls-5" d="M540.216,151.848c-.251,3.978-.522,8.132-.829,12.792a1.22,1.22,0,0,1-1.764,1.011l-7.033-3.542a2.654,2.654,0,0,1-1.452-2.545c.373-5.647.691-10.629.992-15.659a2.407,2.407,0,0,1,3.483-2.008l1.25.628A9.749,9.749,0,0,1,540.216,151.848Z" transform="translate(-529.131 -141.638)"/>
    </g>
    <g id="Group_12" data-name="Group 12" transform="translate(436.449 67.088)">
      <path id="Path_30" data-name="Path 30" class="cls-6" d="M493.778,79.014c-2.512.262-5.137.529-8.081.827a.773.773,0,0,1-.818-1l1.474-4.768A1.682,1.682,0,0,1,487.79,72.9c3.568-.361,6.715-.686,9.89-1.027A1.526,1.526,0,0,1,499.3,73.84l-.261.847A6.177,6.177,0,0,1,493.778,79.014Z" transform="translate(-484.844 -71.866)"/>
    </g>
    <g id="Group_13" data-name="Group 13" transform="translate(460.023 81.229)">
      <path id="Path_31" data-name="Path 31" class="cls-7" d="M535.059,106.023c-1.655-1.277-3.38-2.614-5.315-4.116a.64.64,0,0,1,.079-1.063l3.6-2.016a1.392,1.392,0,0,1,1.532.116c2.345,1.82,4.416,3.421,6.513,5.028a1.262,1.262,0,0,1-.15,2.1l-.64.359A5.113,5.113,0,0,1,535.059,106.023Z" transform="translate(-529.496 -98.652)"/>
    </g>
    <g id="Group_14" data-name="Group 14" transform="translate(430.563 106.15)">
      <path id="Path_32" data-name="Path 32" class="cls-8" d="M478.545,148.619c.455,1.5.926,3.068,1.453,4.827a.48.48,0,0,1-.511.615l-3.078-.338a1.044,1.044,0,0,1-.885-.738c-.639-2.132-1.206-4.012-1.787-5.907a.946.946,0,0,1,1.007-1.218l.546.06A3.833,3.833,0,0,1,478.545,148.619Z" transform="translate(-473.694 -145.855)"/>
    </g>
    <g id="Group_15" data-name="Group 15" transform="translate(425.635 109.247)">
      <path id="Path_33" data-name="Path 33" class="cls-9" d="M465.836,157.167c-.455-1.5-.926-3.068-1.454-4.827a.48.48,0,0,1,.511-.615l3.078.337a1.045,1.045,0,0,1,.885.738c.639,2.132,1.207,4.011,1.788,5.906a.946.946,0,0,1-1.007,1.219l-.547-.059A3.835,3.835,0,0,1,465.836,157.167Z" transform="translate(-464.362 -151.722)"/>
    </g>
  </g>
</svg>
