<?xml version="1.0" encoding="utf-8"?>
<!-- Generator: Adobe Illustrator 24.1.1, SVG Export Plug-In . SVG Version: 6.00 Build 0)  -->
<svg version="1.1" xmlns="http://www.w3.org/2000/svg" xmlns:xlink="http://www.w3.org/1999/xlink" x="0px" y="0px"
	 viewBox="0 0 164 102.3" style="enable-background:new 0 0 164 102.3;" xml:space="preserve">
<style type="text/css">
	.st0{fill:#E6F4FF;}
	.st1{opacity:0.65;}
	.st2{fill:#FF8181;}
	.st3{fill:#9FD8FF;}
	.st4{opacity:0.63;}
</style>
<g id="opponent-lower">
</g>
<g id="opponent-middle">
</g>
<g id="opponent-top">
</g>
<g id="our-bottom">
</g>
<g id="our-middle">
</g>
<g id="our-top">
</g>
<g id="line-top">
	<g class="st4">
		<path class="st2" d="M35.5,94.8c0,7-0.1,7.5-1.9,7.5H5.6c-2,0-4.1,0-4.8-0.9c-0.9-1-0.7-3.2-0.7-5.1v-94C0,0.3,0.7,0,7.3,0
			c7.5,0,8.3,0.1,8.3,2.5v79.8c0,1.9-0.1,4.4,0.9,5.1c0.7,0.4,2.5,0.6,3.9,0.6h13C35.4,88,35.5,88.7,35.5,94.8z"/>
		<path class="st2" d="M59.2,99.8c0,2.2-0.1,2.3-8.2,2.3c-7.2,0-7.5,0-7.5-2V2.5c0-2.2,0.6-2.3,7.5-2.3c7.7,0,8.2,0.1,8.2,2.5V99.8z
			"/>
		<path class="st2" d="M115.7,98.1c0,3.8,0.1,4.2-7.3,4.2c-3.8,0-5.4-0.3-6.4-3.9c-4.8-17-6.6-24.7-11.7-43.1
			c-0.9-3.2-2-8.6-3.1-8.6c-1,0-1,3.1-1,5v48.1c0,2.3-0.4,2.6-8,2.6c-7.3,0-7.3-0.3-7.3-2.5V2c0-2,0.3-2,6.7-2
			c6.3,0,7.2,0.6,8.2,4.7c3.2,12,7.5,27.6,11.8,43.1c0.4,1.5,0.9,3.8,1.8,3.8c1,0,1-2.8,1-4.4V2.6c0-2.3,0.4-2.6,7.7-2.6
			c7.5,0,7.6,0.1,7.6,2.5V98.1z"/>
		<path class="st2" d="M164,95c0,6.7-0.1,7.3-1.8,7.3h-28.1c-2.3,0-4.8,0.3-5.8-0.6c-1.2-1-0.9-3.2-0.9-5V4.4c0-1.9,0.1-2,1-3.2
			c0.9-1.2,1.9-1.2,3.4-1.2h30.2c1.8,0,1.8,1.2,1.8,6.9c0,6.6,0,7.5-1.9,7.5h-14.6c-1.2,0-2.9,0.1-3.4,0.7c-0.7,1-0.7,0.9-0.7,2.8
			v19.3c0,1.3-0.3,2.9,0.9,3.8c1,0.7,2,0.6,3.2,0.6h7c1.8,0,1.9,0.9,1.9,7.3c0,6.1,0,7-1.9,7h-6.6c-1.5,0-3.1,0.1-3.7,0.4
			c-1.3,0.9-1,2.3-1,4.2v21.8c0,1.9,0,4.7,0.7,5.1c0.7,0.4,2.8,0.6,4.4,0.6h13.9C163.8,88,164,88.6,164,95z"/>
	</g>
</g>
</svg>
