<?xml version="1.0" encoding="utf-8"?>
<!-- Generator: Adobe Illustrator 24.1.1, SVG Export Plug-In . SVG Version: 6.00 Build 0)  -->
<svg version="1.1" xmlns="http://www.w3.org/2000/svg" xmlns:xlink="http://www.w3.org/1999/xlink" x="0px" y="0px"
	 viewBox="0 0 165.2 109.8" style="enable-background:new 0 0 165.2 109.8;" xml:space="preserve">
<style type="text/css">
	.st0{fill:#A7242A;}
	.st1{fill:#FF8181;}
	.st2{fill:none;stroke:#19030F;stroke-miterlimit:10;}
	.st3{fill:#BCD9F7;}
</style>
<g id="tau-right5">
</g>
<g id="tau-right4">
</g>
<g id="tau-right3">
</g>
<g id="tau-right2">
</g>
<g id="tau-right1">
</g>
<g id="damaged-right-blob5">
</g>
<g id="damaged-right-blob4">
</g>
<g id="damaged-right-blob3">
</g>
<g id="damaged-right-blob2">
</g>
<g id="damaged-right-blob1">
</g>
<g id="damaged-right-outline">
</g>
<g id="tau-left5">
</g>
<g id="tau-left4">
</g>
<g id="tau-left3">
</g>
<g id="tau-left2">
</g>
<g id="tau-left1">
</g>
<g id="damaged-left-blob5">
</g>
<g id="damaged-left-blob4">
</g>
<g id="damaged-left-blob3">
</g>
<g id="damaged-left-blob2">
</g>
<g id="damaged-left-blob1">
</g>
<g id="damaged-left-outline">
	<g>
		<path class="st3" d="M56.9,18.6c0.5-0.6,1.4,0,1.1,0.7c-3.3,6-8.4,14.2-11.5,13.9C41.5,32.7,43,18,43,18c0.5,0.4,1.2,0.4,1.7,0
			c0.3,0.3,5.4,5.4,5.5,7.4C50.3,26.6,53.8,22.4,56.9,18.6z"/>
		<path class="st3" d="M36,29c-0.7,1.2-3.1-1-5.9-0.5C27.4,29,26,25.7,24.5,24c-1.6-1.7-4.4-1.6-4.4-1.6c1.5-1.7,3.1-3.4,4.6-4.9
			C34.4,19.5,36.7,27.8,36,29z"/>
		<path class="st3" d="M20.1,36c0,0,10.2,1.7,12.2,4.5c0.9,1.3,0.8,2,0.4,2.4c-0.5,0.5-1.4,0.4-1.7-0.2c-0.6-0.9-1.7-2.3-3.9-2.4
			c-3.2-0.1-9.8-0.1-9.8-1.3S17.7,36,20.1,36z"/>
		<path class="st3" d="M20.3,50.8c0,0,9.5-0.8,12.7-4.4c1.8-2,3.1-1.7,4-0.9c0.7,0.6,1.1,1.6,1.1,2.5c0.1,2.7,0.2,9.7-1.2,10.3
			C35,59,35.3,55,30.1,54.1C24.9,53.1,9.3,53.4,20.3,50.8z"/>
		<path class="st3" d="M32.4,59.4c-0.9,0.3-2.8,4.3-5.9,6.4c-3.1,2.1-19.8,9.6-19.8,9.6c0.2-1.3,0.3-2.2,0.1-2.5
			c-0.2-0.5-1.2-2.3-2.2-4.7c4.7-0.1,12.2-4.9,13.6-5.7c1.4-0.9,8.5-3.4,11.4-3.8C32.5,58.2,33.3,59.1,32.4,59.4z"/>
		<path class="st3" d="M19.7,89.6c-0.8,0.2-1.3-0.8-0.8-1.4c2.4-2.6,6.7-6.9,9.2-6.3c1.4,0.3,1.6,1.4,1.5,2.5c-0.3,2-2,3.6-4,4
			L19.7,89.6z"/>
		<path class="st3" d="M58.6,99.5c-0.6-0.2-1.2-0.4-1.7-0.8c-0.7-0.6-1.1-0.3-1.3,0.5c-0.2-0.3-4-5.8-7-7.6c-3-1.9-4.1,5-4.7,9.6
			c-0.6,4.6-5.1,3.5-2.3-0.5c2.1-2.9,1.7-7.7,1.4-10.3c-0.2-1.3,0-2.7,0.7-3.9c0.6-1,1.3-1.9,1.8-1.3c1.1,1.1,8.1,3.8,8.6,5.3
			C54.6,92,58.5,99.3,58.6,99.5z"/>
		<path class="st3" d="M16.2,93.2c0.2-0.2,0.6-0.1,0.8,0.1c0.7,1.1,2.8,3.8,5.3,4.1c2.3,0.2,5.7-0.1,7.8,0.1c1,0.1,1.2,1.4,0.4,1.9
			c-0.9,0.5-2.4,0.9-4.7,0.9c-5.5-0.1-8.6-2-9.9-4.2C15,94.6,15.7,93.7,16.2,93.2z"/>
		<path class="st3" d="M50,51.3c2.4,0,4.6,0.8,6.4,2.4c2.9,2.7,7.1,7.1,6.9,10.2c-0.2,4.8-5.8,15.4-9.6,14.3
			c-3.8-1.1-10.2-14.3-10-20.2C43.9,53.2,44.8,51.4,50,51.3z"/>
		<path class="st2" d="M81.3,88.4c-0.3,0.8-0.9,1.6-2.1,2.2c-3.6,1.6,1.7,6.1,0.5,8.8c-1.2,2.7-7.6-1.1-7.6-1.1s-1.4-1.1-3.3-5
			c-1.9-4-6.3-8.6-7.6-6.9c-1.3,1.7,5.1,4.7,6.1,7.5c1,2.8-2.1,5.2-2.1,5.2s-3.7,1.2-6.5,0.4c-0.6-0.2-1.2-0.4-1.7-0.8
			c-0.7-0.6-1.1-0.3-1.3,0.5c0,0,0,0,0,0c-0.5,2,0,7.1-2.6,7.5c-3.5,0.4-13.2,3.9-20.4,0.4c-7.2-3.4-7.7-2.7-10.4-2.8
			c-2.7-0.1-12-4-13.7-6.2c-1.7-2.3-3.1-8.3-3.5-11.3c-0.3-2.2,1.1-8,1.6-11.4c0.2-1.3,0.3-2.2,0.1-2.5c-0.2-0.5-1.2-2.3-2.2-4.7
			c-1.7-3.8-3.7-8.7-3.8-11C0.7,53.6,3.3,45,4.6,43.7c1.3-1.3,4.6,0.1,4.6,0.1s8,2.5,10.8,2.3c1.4-0.1-2-1-5.3-2.8
			c-3.1-1.7-5.9-4.3-4.2-5c0.8-0.3,1.3-2.1,1.7-3.8c0.4-2.3,1.4-4.5,2.8-6.3c1.3-1.6,3-3.7,4.9-5.8c1.5-1.7,3.1-3.4,4.6-4.9
			c3-2.9,5.8-5.2,7.4-5.1c3.3,0.2,8.3,3.6,11,5.6c0.5,0.4,1.2,0.4,1.7,0c0.3-0.2,0.5-0.5,0.6-0.8c0.9-4,3-12,4.4-12.2
			c1.9-0.3,7.6,2.4,9.8,0.6c2.1-1.8,3.9-5.6,9.2-3.7c0,0,5.9,1.9,5.6,6.1c-0.3,4.2-7.2,9.5-6.4,10.6c0.8,1.1,3.5,2.3,6,1.7
			c2.5-0.5,4.9,1.7,4.8,4.4c-0.1,1.5-1.8,2.5-3.6,3c-1.5,0.4-3.2,0.5-3.9,0.1c-1.6-0.7-8.5,3.5-4.2,7.1c4.3,3.5,5.9-2.5,9.5,0.7
			c0.6,0.5,0.9,1.1,1.1,1.7c0,0,0,0.1,0,0.2c0.7,3.2-3.1,7.3-3.1,7.3s-3.5,4.3-1.4,10c1.3,3.5,2.3,7.4,2.8,10
			c0.3,1.5,1.1,2.9,2.4,3.9c1.2,0.9,2.5,2.3,2.5,3.8c0,2.1-2.3,4.4-3.5,5.5c-0.5,0.4-1,0.8-1.7,0.9c-0.8,0.3-1.5-0.2-3.1,0.2
			c0,0-3.7,0.5,0.6,2.5c2.6,1.2,4.8,2.3,6.2,2.9C80.9,85.2,81.7,86.8,81.3,88.4z"/>
		<path class="st3" d="M108.3,18.6c-0.5-0.6-1.4,0-1.1,0.7c3.3,6,8.4,14.2,11.5,13.9c4.9-0.5,3.4-15.2,3.4-15.2
			c-0.5,0.4-1.2,0.4-1.7,0c-0.3,0.3-5.4,5.4-5.5,7.4C114.9,26.6,111.3,22.4,108.3,18.6z"/>
		<path class="st3" d="M129.2,29c0.7,1.2,3.1-1,5.9-0.5c2.7,0.5,4.1-2.9,5.6-4.6c1.6-1.7,4.4-1.6,4.4-1.6c-1.5-1.7-3.1-3.4-4.6-4.9
			C130.8,19.5,128.5,27.8,129.2,29z"/>
		<path class="st3" d="M145.1,36c0,0-10.2,1.7-12.2,4.5c-0.9,1.3-0.8,2-0.4,2.4c0.5,0.5,1.4,0.4,1.7-0.2c0.6-0.9,1.7-2.3,3.9-2.4
			c3.2-0.1,9.8-0.1,9.8-1.3S147.4,36,145.1,36z"/>
		<path class="st3" d="M144.9,50.8c0,0-9.5-0.8-12.7-4.4c-1.8-2-3.1-1.7-4-0.9c-0.7,0.6-1.1,1.6-1.1,2.5c-0.1,2.7-0.2,9.7,1.2,10.3
			c1.8,0.7,1.6-3.3,6.8-4.2C140.3,53.1,155.8,53.4,144.9,50.8z"/>
		<path class="st3" d="M132.8,59.4c0.9,0.3,2.8,4.3,5.9,6.4c3.1,2.1,19.8,9.6,19.8,9.6c-0.2-1.3-0.3-2.2-0.1-2.5
			c0.2-0.5,1.2-2.3,2.2-4.7c-4.7-0.1-12.2-4.9-13.6-5.7c-1.4-0.9-8.5-3.4-11.4-3.8C132.6,58.2,131.8,59.1,132.8,59.4z"/>
		<path class="st3" d="M145.5,89.6c0.8,0.2,1.3-0.8,0.8-1.4c-2.4-2.6-6.7-6.9-9.2-6.3c-1.4,0.3-1.6,1.4-1.5,2.5c0.3,2,2,3.6,4,4
			L145.5,89.6z"/>
		<path class="st3" d="M106.6,99.5c0.6-0.2,1.2-0.4,1.7-0.8c0.7-0.6,1.1-0.3,1.3,0.5c0.2-0.3,4-5.8,7-7.6c3-1.9,4.1,5,4.7,9.6
			c0.6,4.6,5.1,3.5,2.3-0.5c-2.1-2.9-1.7-7.7-1.4-10.3c0.2-1.3,0-2.7-0.7-3.9c-0.6-1-1.3-1.9-1.8-1.3c-1.1,1.1-8.1,3.8-8.6,5.3
			C110.5,92,106.7,99.3,106.6,99.5z"/>
		<path class="st3" d="M149,93.2c-0.2-0.2-0.6-0.1-0.8,0.1c-0.7,1.1-2.8,3.8-5.3,4.1c-2.3,0.2-5.7-0.1-7.8,0.1
			c-1,0.1-1.2,1.4-0.4,1.9c0.9,0.5,2.4,0.9,4.7,0.9c5.5-0.1,8.6-2,9.9-4.2C150.2,94.6,149.5,93.7,149,93.2z"/>
		<path class="st3" d="M115.2,51.3c-2.4,0-4.6,0.8-6.4,2.4c-2.9,2.7-7.1,7.1-6.9,10.2c0.2,4.8,5.8,15.4,9.6,14.3
			c3.8-1.1,10.2-14.3,10-20.2C121.3,53.2,120.3,51.4,115.2,51.3z"/>
		<path class="st2" d="M83.9,88.4c0.3,0.8,0.9,1.6,2.1,2.2c3.6,1.6-1.7,6.1-0.5,8.8c1.2,2.7,7.6-1.1,7.6-1.1s1.4-1.1,3.3-5
			c1.9-4,6.3-8.6,7.6-6.9c1.3,1.7-5.1,4.7-6.1,7.5c-1,2.8,2.1,5.2,2.1,5.2s3.7,1.2,6.5,0.4c0.6-0.2,1.2-0.4,1.7-0.8
			c0.7-0.6,1.1-0.3,1.3,0.5c0,0,0,0,0,0c0.5,2,0,7.1,2.6,7.5c3.5,0.4,13.2,3.9,20.4,0.4c7.2-3.4,7.7-2.7,10.4-2.8
			c2.7-0.1,12-4,13.7-6.2c1.7-2.3,3.1-8.3,3.5-11.3c0.3-2.2-1.1-8-1.6-11.4c-0.2-1.3-0.3-2.2-0.1-2.5c0.2-0.5,1.2-2.3,2.2-4.7
			c1.7-3.8,3.7-8.7,3.8-11c0.1-3.6-2.6-12.2-3.9-13.5c-1.3-1.3-4.6,0.1-4.6,0.1s-8,2.5-10.8,2.3c-1.4-0.1,2-1,5.3-2.8
			c3.1-1.7,5.9-4.3,4.2-5c-0.8-0.3-1.3-2.1-1.7-3.8c-0.4-2.3-1.4-4.5-2.8-6.3c-1.3-1.6-3-3.7-4.9-5.8c-1.5-1.7-3.1-3.4-4.6-4.9
			c-3-2.9-5.8-5.2-7.4-5.1c-3.3,0.2-8.3,3.6-11,5.6c-0.5,0.4-1.2,0.4-1.7,0c-0.3-0.2-0.5-0.5-0.6-0.8c-0.9-4-3-12-4.4-12.2
			c-1.9-0.3-7.6,2.4-9.8,0.6c-2.1-1.8-3.9-5.6-9.2-3.7c0,0-5.9,1.9-5.6,6.1c0.3,4.2,7.2,9.5,6.4,10.6c-0.8,1.1-3.5,2.3-6,1.7
			c-2.5-0.5-4.9,1.7-4.8,4.4c0.1,1.5,1.8,2.5,3.6,3c1.5,0.4,3.2,0.5,3.9,0.1c1.6-0.7,8.5,3.5,4.2,7.1c-4.3,3.5-5.9-2.5-9.5,0.7
			c-0.6,0.5-0.9,1.1-1.1,1.7c0,0,0,0.1,0,0.2c-0.7,3.2,3.1,7.3,3.1,7.3s3.5,4.3,1.4,10c-1.3,3.5-2.3,7.4-2.8,10
			c-0.3,1.5-1.1,2.9-2.4,3.9c-1.2,0.9-2.5,2.3-2.5,3.8c0,2.1,2.3,4.4,3.5,5.5c0.5,0.4,1,0.8,1.7,0.9c0.8,0.3,1.5-0.2,3.1,0.2
			c0,0,3.7,0.5-0.6,2.5c-2.6,1.2-4.8,2.3-6.2,2.9C84.3,85.2,83.5,86.8,83.9,88.4z"/>
	</g>
</g>
</svg>
