<?xml version="1.0" encoding="utf-8"?>
<!-- Generator: Adobe Illustrator 24.1.1, SVG Export Plug-In . SVG Version: 6.00 Build 0)  -->
<svg version="1.1" id="Layer_1" xmlns="http://www.w3.org/2000/svg" xmlns:xlink="http://www.w3.org/1999/xlink" x="0px" y="0px"
	 viewBox="0 0 1398.1 641.2" style="enable-background:new 0 0 1398.1 641.2;" xml:space="preserve">
<style type="text/css">
	.st0{fill:#A7242A;}
	.st1{fill:#C42B34;}
	.st2{fill:#86171D;}
	.st3{fill:#19030F;}
	.st4{fill:#BCD9F7;}
	.st5{fill:none;}
	.st6{fill:#FFFFFF;}
	.st7{fill:#9B9B9B;}
	.st8{fill:#85171D;}
	.st9{fill:#C32B34;}
	.st10{fill:#4C4B4B;}
	.st11{fill:#090909;}
	.st12{fill:#9BB3C9;}
	.st13{clip-path:url(#SVGID_2_);fill:#86171D;}
	.st14{clip-path:url(#SVGID_2_);fill:#C42B34;}
	.st15{clip-path:url(#SVGID_2_);}
	.st16{fill:#891D25;}
	.st17{clip-path:url(#SVGID_4_);}
	.st18{clip-path:url(#SVGID_6_);fill:#86171D;}
	.st19{clip-path:url(#SVGID_6_);fill:#C42B34;}
	.st20{clip-path:url(#SVGID_6_);}
	.st21{clip-path:url(#SVGID_8_);}
	.st22{fill:#FFFFFF;stroke:#9B9B9B;stroke-width:0.3855;stroke-miterlimit:10;}
</style>
<g>
	<path class="st22" d="M611.2,8.9h-1L496,9.2l-6.1,0l-12.4,0l-6.1,0l-12.4,0l-6.1,0h-8.5L399,9.4h0l-45.6,0.1h0l0,0L238.1,9.8
		l-8.7,0l-11.4,0l-8.7,0h0l-8.7,0l-11.4,0l-8.7,0l-8.7,0l-11.4,0h-1.7l-7,0l-7.8,0l-15.9,0l-19.3,0.1L4.4,10.3l7.2,139.5
		c0,0,4.4-3.9,20.7-0.4c0,0,0,0,0,0c0.5,0.1,1.1,0.2,1.6,0.4c0.5,0.1,1.1,0.3,1.7,0.4c2.9,0.7,6.2,1.7,9.8,2.9
		c0.7,0.3,1.5,0.5,2.2,0.8h0h0c0,0,0,0,0,0c3.2,1.1,6.7,2.4,10.5,4c5.5,2.3,10.8,4.9,16,7.7c5.3,2.9,10.6,6.1,16.1,9.4
		c0.6,0.4,1.2,0.8,1.9,1.2c1.2,0.8,2.5,1.5,3.8,2.3c0.6,0.3,1.1,0.7,1.7,1.1c0.7,0.4,1.4,0.9,2.1,1.3c7.1,4.4,14.7,9,23,13.6
		c0,0,0,0,0,0c1.2,0.6,2.4,1.3,3.6,1.9c0.6,0.3,1.2,0.7,1.9,1c0.6,0.3,1.2,0.6,1.9,1c0.5,0.2,0.9,0.5,1.4,0.7c1.9,1,3.8,2,5.8,2.9
		c1.8,0.9,3.7,1.8,5.6,2.7c1.3,0.6,2.5,1.2,3.8,1.8c1.8,0.8,3.7,1.7,5.6,2.5c4.3,1.9,8.9,3.7,13.7,5.5c0.8,0.3,1.6,0.6,2.4,0.9
		c0.4,0.1,0.7,0.3,1.1,0.4c0.8,0.3,1.7,0.6,2.5,0.9c0.7,0.3,1.4,0.5,2.1,0.8c0.4,0.1,0.7,0.2,1.1,0.4c0.3,0.1,0.7,0.2,1,0.4
		c1.4,0.5,2.8,1,4.3,1.4c1.4,0.5,2.9,1,4.4,1.4c1,0.3,2.1,0.6,3.1,1c1.2,0.4,2.4,0.7,3.7,1.1c0,0,0,0,0,0h0c3,0.9,6.1,1.8,9.3,2.6
		c0.2,0,0.4,0.1,0.5,0.1c2,0.6,4.1,1.1,6.1,1.6c1.9,0.5,3.7,1,5.6,1.4c0,0,0,0,0,0c0.3,0.1,0.7,0.1,1,0.2c3.1,0.8,6.2,1.5,9.2,2.3h0
		c0.7,0.2,1.4,0.4,2.1,0.5c0,0,0,0,0,0c1.5,0.3,3,0.7,4.4,1c0.9,0.2,1.7,0.4,2.5,0.6c0,0,0,0,0,0c1.4,0.3,2.7,0.6,4.1,0.9
		c3.1,0.7,6.1,1.3,9.1,2c2.2,0.5,4.4,0.9,6.5,1.4c13.9,2.9,27.2,5.3,39.2,7.2c0,0,0,0,0,0c0.9,0.2,1.9,0.3,2.8,0.5
		c4.7,0.8,9.2,1.5,13.5,2.1h0c28.7,4.3,47.5,5.9,47.5,5.9s60.4,6.3,74.7,81l0,0c1.2,6,2,12.5,2.5,19.4h0c0.1,1.4,0.2,2.7,0.3,4.1
		c0.1,2.4,0.2,4.9,0.3,7.4c0,1.4,0,2.8,0,4.3c0,1.9,0,3.9,0,5.9c0,1.4,0,2.8-0.1,4.2l0,3.1c0,1.4,0,2.8-0.1,4.2
		c0,3.4-0.1,6.8-0.2,10.1c0,1,0,2.1,0,3.1c0,1.4-0.1,2.8-0.1,4.2c0,1-0.1,2-0.1,3c0,1.4-0.1,2.8-0.1,4.2c0,1-0.1,2.1-0.1,3.1
		c-0.1,2.4-0.1,4.7-0.2,7v0.3c-0.1,2.3-0.2,4.6-0.2,6.9c0,0.9-0.1,1.8-0.1,2.7h0c0,0.1,0,0.3,0,0.4c0,1.4-0.1,2.8-0.1,4.1
		c0,1.2-0.1,2.4-0.1,3.6l0,0c0,0.9-0.1,1.7-0.1,2.6c-0.1,3.7-0.3,7.4-0.5,11c-0.9,19.8-2,38.6-3.1,55.5h0v0
		c-0.2,2.3-0.3,4.6-0.5,6.8h0v0c-2.9,43.2-5.8,72.5-5.8,72.5c0.2,0,0.3,0,0.5,0c0.2,0,0.3,0,0.5,0.1c54.1,4.6,44.3,16.1,92,30.6
		c48,14.6,119.4,17.7,119.4,17.7h125.2c0,0,70.9-2,106.7-12.7c1-0.3,2-0.6,3-0.9c0.4-0.1,0.9-0.3,1.3-0.4c1.2-0.4,2.4-0.8,3.6-1.1
		c0.5-0.2,1-0.3,1.4-0.5c0.5-0.2,1.1-0.3,1.6-0.5c0.6-0.2,1.3-0.4,1.9-0.6c1.2-0.4,2.4-0.8,3.5-1.2c4.6-1.5,8.2-2.8,11.4-4
		c3.1-1.2,5.8-2.3,8.2-3.4c0.4-0.2,0.8-0.4,1.2-0.6l0,0c1.1-0.5,2.1-1,3.2-1.5c2.3-1.1,4.5-2.2,7.2-3.5c0.5-0.2,1-0.5,1.5-0.7
		c0.8-0.4,1.7-0.8,2.6-1.3c0.9-0.4,1.8-0.8,2.8-1.3c0.5-0.3,1.1-0.5,1.7-0.8c19.6-8.8,52.2-15.2,54.2-15.7h0.1c0,0,0,0,0,0s0,0,0,0
		c0-0.1,0-0.3,0-0.8c0-0.1,0-0.2,0-0.3c0-0.2,0-0.5,0-0.8c0-0.1,0-0.2-0.1-0.3v-0.3c0-0.2,0-0.5-0.1-0.7c0-0.5-0.1-1-0.1-1.6
		c0-0.3,0-0.7-0.1-1c-0.1-1.1-0.2-2.3-0.3-3.7c0-0.2,0-0.5,0-0.7c-0.1-1-0.2-2.1-0.3-3.3c-0.2-2.5-0.4-5.4-0.6-8.6
		c-0.1-1.2-0.2-2.4-0.3-3.7c-0.1-1.4-0.2-2.7-0.3-4.2h0v0c0-0.1,0-0.2,0-0.3c-0.1-1.2-0.2-2.4-0.3-3.7c0-0.3,0-0.7-0.1-1.1
		c-0.1-1.4-0.2-2.8-0.3-4.3c-0.2-2.3-0.3-4.7-0.5-7.1c0-0.6-0.1-1.1-0.1-1.7c-0.2-2.9-0.4-5.8-0.6-8.8c-0.1-1.3-0.2-2.5-0.3-3.8
		c-0.1-2.1-0.3-4.2-0.4-6.3v-0.2l0,0c-0.1-1.3-0.2-2.6-0.2-3.9c-0.1-0.8-0.1-1.6-0.2-2.4c-0.2-2.4-0.3-4.9-0.5-7.4v0
		c0-0.8-0.1-1.6-0.1-2.4c-0.1-1.5-0.2-3.1-0.3-4.6l0,0v0c-0.1-1.7-0.2-3.5-0.3-5.2c0-0.2,0-0.4,0-0.7c-0.2-3.2-0.4-6.6-0.5-9.9
		c0-0.8-0.1-1.6-0.1-2.4c-0.2-2.5-0.3-5-0.4-7.5c-0.1-0.8-0.1-1.6-0.1-2.4c-0.1-2.6-0.3-5.2-0.4-7.8l0,0v0c-0.1-0.7-0.1-1.4-0.1-2.1
		c-0.2-3.6-0.3-7.1-0.5-10.7c0-0.7-0.1-1.4-0.1-2c0-0.1,0-0.3,0-0.4c-0.1-2.5-0.2-5.1-0.3-7.6c0-0.8-0.1-1.6-0.1-2.5
		c-0.1-3.6-0.3-7.2-0.4-10.7c-0.1-3.4-0.2-6.8-0.3-10.2c-1-33.3-1-64.1,0.8-84c6.1-66.7,82.2-80,82.2-80s16.7-1.3,42-4.9h0
		c6.8-1,14.3-2.1,22.2-3.4l0,0c10.4-1.7,21.7-3.7,33.4-6.1c2.1-0.4,4.3-0.9,6.5-1.3c1.6-0.3,3.2-0.7,4.8-1h0l0,0h0
		c1.4-0.3,2.8-0.6,4.3-1c2.2-0.5,4.4-1,6.5-1.5c0,0,0,0,0,0c1.2-0.3,2.4-0.6,3.7-0.9l0,0c1-0.2,1.9-0.5,2.9-0.7
		c3.1-0.8,6.2-1.5,9.3-2.3c1.9-0.5,3.9-1,5.9-1.5c0,0,0,0,0,0v0c0.3-0.1,0.5-0.1,0.8-0.2c1.1-0.3,2.2-0.6,3.3-0.9c0,0,0,0,0,0
		c1.1-0.3,2.2-0.6,3.3-0.9c0.5-0.1,1-0.3,1.5-0.4c2.6-0.8,5.3-1.5,7.9-2.3c0.5-0.1,1-0.3,1.4-0.4c1.4-0.4,2.8-0.8,4.2-1.3
		c0.4-0.1,0.8-0.3,1.2-0.4v0c1.9-0.6,3.8-1.2,5.7-1.8v0c39.8-13,75.1-29.4,96.8-40.4l0,0c0,0,0,0,0,0l0,0c3.1-1.6,6-3.1,8.5-4.4
		c2.6-1.3,5.1-2.7,7.7-3.9c2-1,4-2,6.1-3c0.3-0.1,0.5-0.2,0.8-0.3v0c10-4.8,20.2-9,30.6-12.9c7.5-2.7,14.2-4.9,17.2-5.1l0.5-10.5h0
		l0.9-16.7l1.5-29.2l0.4-8.1l0,0v0l3.9-75.1h-83.9h-23.3h-47.4h-18.7h-104.2h-10.3h-7.5h-2.3h-61.2h-6.9v0H785.7c0,0,0,0,0,0h-0.5v0
		c0,0-6.4-2.5-15-4.1c-3.5-0.6-7.4-1.1-11.3-1.2h-0.4c-0.3,0-0.6,0-0.9,0h-0.9h-0.4c-1.8,0-3.5,0.1-5.3,0.3
		c-0.8,0.1-1.6,0.2-2.3,0.4c-15.9,3.3-25.1,9.7-48.3,10.2c-0.4,0-0.8,0-1.1,0c0.4,0,0.8,0,1.1,0c-0.7,0-1.5,0-2.3,0h-0.3
		c-0.3,0-0.5,0-0.8,0c-16.5-0.1-33.6-4.9-43.3-8.1c-2.7-0.9-5.4-1.6-8.2-2c-1-0.2-2-0.3-2.9-0.5c-1.9-0.2-3.9-0.4-5.8-0.4h-0.4
		c-0.9,0-1.9,0-2.8,0.1c-1,0.1-2,0.2-3,0.3c-0.1,0-0.2,0-0.3,0c-1.1,0.1-2.2,0.3-3.3,0.5C622.5,5.5,617.2,6.8,611.2,8.9L611.2,8.9"
		/>
	<path class="st1" d="M1202.4,85.8l130.7-1.5l-0.1-19.2c0-6.4-4-12.2-9.9-14.7l-19.7-8L1202.4,85.8z"/>
	<path class="st4" d="M785.2,9.2c-93.9,26.3-174-0.3-174-0.3c6-2.1,11.3-3.4,15.8-4.2c1.1-0.2,2.1-0.4,3.2-0.5c0.1,0,0.2,0,0.3,0
		c1-0.1,2-0.2,3-0.3c0.9-0.1,1.9-0.1,2.8-0.1h0.4c1.9,0,3.9,0.2,5.8,0.4c1,0.1,1.9,0.3,2.9,0.5c2.8,0.5,5.5,1.2,8.2,2
		c9.6,3.2,26.7,7.9,43.3,8.1c0.3,0,0.5,0,0.8,0h0.3c0.8,0,1.5,0,2.3,0c23.7-0.3,32.5-7.2,48.9-10.2c0.8-0.2,1.6-0.3,2.3-0.4
		c1.7-0.2,3.4-0.3,5.1-0.3h0.9c0.3,0,0.6,0,0.9,0h0.4c3.9,0.1,7.8,0.6,11.3,1.2C778.9,6.7,785.2,9.2,785.2,9.2z"/>
	<path class="st1" d="M611.4,53.6c4.3-24.8-0.2-44.7-0.2-44.7h-1L496,9.2l-6.1,0l-12.4,0l-6.1,0l-12.4,0l-6.1,0h-8.5L399,9.4h0
		l-36.8,14.3L611.4,53.6z"/>
	<path class="st6" d="M1049.4,116.3l8.8,73.1c0.8,6.4,5.3,11.7,11.5,13.4l103.4,28.9c1-0.2,1.9-0.5,2.9-0.7c3.1-0.8,6.2-1.5,9.3-2.3
		c1.9-0.5,3.9-1,5.9-1.5l16.2-62.5l0.7-2.6l1.3-5.1c1.1-4.4,4.1-8,7.9-10.1c1.6-0.9,3.4-1.5,5.3-1.7h0L1309,133l24.3-14.3l-0.1-17.9
		l-174.3,2l-2.7,0l-5.2,0.1c-4.5,0-8.8-1.8-11.8-5c-1.3-1.3-2.3-2.9-3.1-4.7v0L1101.6,13l-3.9-3.8h-18.4L1049.4,116.3z"/>
	<path class="st2" d="M917.8,566.3l56.3-10.3c0-0.1,0-0.2,0-0.3c-0.1-1.2-0.2-2.4-0.3-3.7c0-0.3,0-0.7-0.1-1.1
		c-0.1-1.4-0.2-2.8-0.3-4.2c-0.2-2.3-0.3-4.7-0.5-7.1c0-0.6-0.1-1.1-0.1-1.7c-0.2-2.9-0.4-5.8-0.6-8.8c-0.1-1.3-0.2-2.5-0.3-3.8
		c-0.1-2.1-0.3-4.2-0.4-6.3v-0.2L917.8,566.3z"/>
	<path class="st1" d="M936.2,528.1l34.1-30.2c-0.1-1.7-0.2-3.5-0.3-5.2c0-0.2,0-0.4,0-0.7c-0.2-3.2-0.4-6.6-0.5-9.9
		c0-0.8-0.1-1.6-0.1-2.4c-0.2-2.5-0.3-5-0.4-7.5c0-0.8-0.1-1.6-0.1-2.4c-0.1-2.6-0.3-5.2-0.4-7.8L936.2,528.1z"/>
	<path class="st2" d="M427.8,508.8l113.8,6.9l-110.2-76c0,0.9-0.1,1.7-0.1,2.6c-0.1,3.7-0.3,7.4-0.5,11
		C429.9,473.1,428.9,491.9,427.8,508.8z"/>
	<path class="st0" d="M1117.8,9.2l7.4,17.3l52.8,51.4c4.6,4.5,11.5,5.7,17.4,3.2l98.8-42.4l-72.2-29.5H1117.8z"/>
	<polygon class="st2" points="120.1,23.1 144.1,10 128.2,10 	"/>
	<path class="st1" d="M148.1,139.5l65,89.5c0.3,0.1,0.7,0.2,1.1,0.3c3.1,0.8,6.2,1.5,9.2,2.3h0c0.7,0.2,1.4,0.3,2.1,0.5l36-64.1
		l-21.3-34.7c-3.4-5.5-9.7-8.4-16.1-7.4l-72.7,11.6L148.1,139.5z"/>
	<path class="st2" d="M232.5,233.6c1.4,0.3,2.7,0.6,4.1,0.9c3.1,0.7,6.1,1.3,9.1,2c2.2,0.5,4.4,0.9,6.5,1.4
		c13.9,2.9,27.2,5.3,39.2,7.2l0.6-27.5l-26.4-43L232.5,233.6z"/>
	<path class="st1" d="M4.4,10.3l7.2,139.5c0,0,4.4-3.9,20.7-0.4l84-13.4l-1.6-14.9L80.8,74.8v0c-1.1-1.5-1.9-3.2-2.4-5
		c-1.2-4.2-0.6-8.8,1.7-12.7l2.7-4.5l1.4-2.3l24.6-40.2L4.4,10.3z"/>
	<polygon class="st2" points="1036.5,9.2 1044.3,73.8 1062.3,9.2 	"/>
	<polygon class="st1" points="1240.8,9.2 1303.4,34.7 1310.8,31.6 1288.2,9.2 	"/>
	<path class="st0" d="M1340.4,165.1v1.5c10-4.8,20.2-9,30.7-12.9c7.5-2.7,14.2-4.9,17.2-5.1l0.5-10.5l-39.7,5.6L1340.4,165.1z"/>
	<path class="st1" d="M1311.5,9.2l52.7,52.2l1.9,1.9l3.7,3.7c3.2,3.2,4.9,7.5,4.7,11.9c-0.1,1.9-0.5,3.7-1.2,5.5v0l-5.7,14
		l23.9-14.1l3.9-75.1H1311.5z"/>
	<path class="st2" d="M1072.4,211l41.5,32.5c10.4-1.7,21.7-3.7,33.4-6.1c2.1-0.4,4.3-0.9,6.5-1.3c1.6-0.3,3.2-0.7,4.8-1L1072.4,211z
		"/>
	<path class="st2" d="M1218.7,205.7l1.8,12.9c39.8-13,75.1-29.4,96.8-40.4l13-31.7l-40.5,5.8l-63.4,37.5
		C1220.8,193,1217.8,199.3,1218.7,205.7z"/>
	<path class="st2" d="M125,153.6l4.9,44.8c14.9,7.8,32.6,15.6,54.8,22.7c1,0.3,2.1,0.6,3.1,1l-53.7-74L125,153.6z"/>
	<path class="st1" d="M90.2,175c9.9,6.1,20.3,12.7,32.5,19.5l-4.1-36.9L90.2,175z"/>
	<g>
		<g>
			<path class="st4" d="M975.2,572.5l-311.6,56.9l-2.7,0.5l-5.1,1c-4.5,0.8-9-0.3-12.5-3c-1.5-1.1-2.8-2.5-3.8-4.1h0L592,550.5l0,0
				l-9.7-15l-7.1-10.9h0l-4.6-7.1v0l-90.9-140.4l-17.2-26.6l28.5,13.8h0l17.2,26.6l82.7,127.7l4.6,7.1l22,34l9.7,15l20,30.9
				c3.5,5.4,9.9,8.2,16.2,7l14.8-2.7l0,0c5.3,3.7,12.3,3.7,17.7,0.3l7.6-4.9h0L882,572.9l8.8,4.3h0c1.7,0.8,3.5,1.3,5.3,1.5
				c4.3,0.5,8.8-0.9,12.2-3.9l3.9-3.5l2-1.8l3.6-3.2L974,556c0.1,1.5,0.2,2.8,0.3,4.2c0.1,1.3,0.2,2.5,0.3,3.7
				C974.8,567.1,975,570,975.2,572.5z"/>
		</g>
		<g>
			<path class="st3" d="M971.6,518.7l-53.8,47.6l-35.8,6.5l-69.7-33.9h0l-16.1-7.8L508.2,391l-28.5-13.9l-47.3-23h0
				c-0.5-6.9-1.3-13.4-2.5-19.4l32.6,15.9l28.5,13.8h0l347.9,169.3h0l16,7.8l33.1,16.1c5.8,2.8,12.7,1.9,17.5-2.4l11.2-10h0.1
				c6.4,0.4,12.5-3.2,15.3-8.9l4-8.2l34.1-30.2c0.1,1.6,0.2,3.1,0.3,4.6c0,0.8,0.1,1.6,0.1,2.4v0c0.1,2.5,0.3,5,0.5,7.4
				c0,0.8,0.1,1.6,0.2,2.4C971.4,516.1,971.5,517.4,971.6,518.7z"/>
		</g>
		<g>
			<path class="st4" d="M968.4,462L968.4,462l-32.2,66.1l-19.4,17.2l-61.9-3.7l-42.7-2.6h0l-5.3-0.3l-12-0.7l-199.4-12.1l-20.3-1.2
				h0l-9.6-0.6l-13.2-0.8l-125.1-7.6c0.1-2.2,0.3-4.5,0.5-6.8l113.8,6.9h0l13.2,0.8h0l15.9,1v0l20.3,1.2l205.2,12.4l8.5,0.5
				l11.8,0.7l22.5,1.4h0l73.6,4.5c6.4,0.4,12.5-3.2,15.3-8.9l40-82.1c0,0.7,0.1,1.4,0.1,2c0.1,3.6,0.3,7.1,0.5,10.7
				C968.4,460.5,968.4,461.3,968.4,462z"/>
		</g>
		<g>
			<path class="st3" d="M971.6,518.7l-53.8,47.6l-35.8,6.5l-69.7-33.9h0l-16.1-7.8L508.2,391l-28.5-13.9l-47.3-23h0
				c-0.5-6.9-1.3-13.4-2.5-19.4l32.6,15.9l28.5,13.8h0l347.9,169.3h0l16,7.8l33.1,16.1c5.8,2.8,12.7,1.9,17.5-2.4l11.2-10h0.1
				c6.4,0.4,12.5-3.2,15.3-8.9l4-8.2l34.1-30.2c0.1,1.6,0.2,3.1,0.3,4.6c0,0.8,0.1,1.6,0.1,2.4v0c0.1,2.5,0.3,5,0.5,7.4
				c0,0.8,0.1,1.6,0.2,2.4C971.4,516.1,971.5,517.4,971.6,518.7z"/>
		</g>
		<g>
			<path class="st2" d="M855,541.5l33.1,16.1c5.8,2.8,12.7,1.9,17.5-2.4l11.2-10L855,541.5z"/>
			<polygon class="st1" points="508.2,391 590.9,518.7 796.2,531.1 			"/>
			<path class="st4" d="M968.4,462L968.4,462l-32.2,66.1l-19.4,17.2l-61.9-3.7l-42.7-2.6h0l-5.3-0.3l-12-0.7l-199.4-12.1l-20.3-1.2
				h0l-9.6-0.6l-10.9-7.5l15.9,1l20.3,1.2l205.2,12.4l8.5,0.5l11.8,0.7l22.5,1.4h0l73.6,4.5c6.4,0.4,12.5-3.2,15.3-8.9l40-82.1
				c0,0.7,0.1,1.4,0.1,2c0.1,3.6,0.3,7.1,0.5,10.7C968.4,460.5,968.4,461.3,968.4,462z"/>
			<path class="st4" d="M565.6,524l-13.2-0.8l-125.1-7.6c0.1-2.2,0.3-4.5,0.5-6.8l113.8,6.9h0l13.2,0.8h0L565.6,524z"/>
		</g>
		<g>
			<path class="st3" d="M804.6,531.6l11.8,0.7c0.4-3-5.5-2-4.8-5.2L804.6,531.6z"/>
			<path class="st0" d="M627.3,574.8l20,30.9c3.5,5.4,9.9,8.2,16.2,7l14.8-2.7L627.3,574.8z"/>
			<path class="st2" d="M595.6,525.8l22,34l60.7,41.8c5.3,3.7,12.3,3.7,17.7,0.3l99-64L595.6,525.8z"/>
			<polygon class="st6" points="703.7,605.4 882,572.9 812.3,538.9 812.2,538.9 807,538.6 			"/>
			<polygon class="st1" points="565.6,524 582.3,535.5 575.3,524.6 575.3,524.6 			"/>
			<path class="st3" d="M807,538.6l-103.3,66.8h0l-25.3,4.6l-51.1-35.2L592,550.5l0,0l-39.6-27.3l-10.8-7.5h0l-110.2-76l0,0
				c0-1.2,0.1-2.4,0.1-3.6c0-1.4,0.1-2.7,0.1-4.1c0-0.1,0-0.3,0-0.4h0l123,84.9h0l10.9,7.5l16.7,11.5l35.3,24.3l60.7,41.9
				c5.3,3.7,12.3,3.7,17.7,0.3l99-64.1L807,538.6z"/>
		</g>
	</g>
	<g>
		<g>
			<path class="st3" d="M213.1,229c-1.9-0.5-3.7-1-5.6-1.4c-2-0.5-4.1-1.1-6.1-1.6c-0.2-0.1-0.3-0.1-0.5-0.1
				c-3.2-0.8-6.3-1.7-9.3-2.7h0c-1.2-0.4-2.5-0.7-3.7-1.1l-53.7-74l-5.2-7.1l-4.5-6.2v0l-1.8-2.4l-8.1-11.2L80.8,74.8v0
				c-1.1-1.5-1.9-3.2-2.4-5c-1.2-4.2-0.6-8.8,1.7-12.7l2.7-4.5l1.4-2.3l24.6-40.2l19.3-0.1l-8,13.1l-6.1,3.3
				c-5.6,3.1-8.8,9.3-8.2,15.7l0.4,3.5l-6.5,10.6c-3.4,5.5-3.1,12.5,0.7,17.7L111,88.4l8.1,11.1l19.4,26.6l4.1,5.7l4.5,6.2l1,1.4
				L213.1,229z"/>
		</g>
		<g>
			<path class="st2" d="M100.5,74L111,88.4l-4.7-42.7l-6.5,10.6C96.4,61.8,96.7,68.8,100.5,74z"/>
			<path class="st4" d="M125,153.6l4.9,44.8c-2.5-1.3-4.9-2.6-7.3-3.9l-4.1-36.9l-1.6-14.7l-0.4-3.3l-0.4-3.5l-1.6-14.9L111,88.4
				l-4.7-42.7l13.8-22.6L144.1,10l7.8,0l7,0l-37.5,20.6c-5.6,3.1-8.9,9.3-8.2,15.7l5.9,53.3l3.6,32.8l0.3,2.7l0.1,0.6l0.7,6.2
				L125,153.6z"/>
		</g>
		<g>
			<path class="st4" d="M305.6,174.8l-12.4-9l-16.1-11.7l-5.5-4l-22.9-16.6l-4.8-7.8c-3.4-5.5-9.7-8.4-16.1-7.4l-0.1,0l-12.2-8.8
				c-5.2-3.8-12.2-4-17.7-0.7L166.7,128l-15.2,9.3l-3.4,2.1l-14,8.6l-9.1,5.6l-6.4,4L90.2,175c-5.4-3.3-10.7-6.5-16.1-9.4l35.1-21.5
				l7.4-4.5l6.4-4l1.4-0.8l0,0l14-8.6l60.3-37h0c1.6-1,3.4-1.7,5.2-2.1c4.3-0.8,8.8,0.1,12.5,2.7l4.2,3.1l2.2,1.6l56.8,41.2l5.6,4
				l8.4,6.1l8.8,6.4c0.1,0.8,0.2,1.6,0.3,2.4c0.4,2.4,0.7,4.9,1,7.4c0.1,0.8,0.2,1.6,0.4,2.4c0.5,3.2,0.9,6.5,1.4,9.8
				C305.6,174.3,305.6,174.6,305.6,174.8z"/>
		</g>
		<g>
			<path class="st3" d="M399,9.4l-36.8,14.3l-7.7-0.9c-6.4-0.8-12.6,2.4-15.8,8l-1.4,2.6l-14.9,5.8c-6,2.3-10,8-10.2,14.5L311.6,79
				l-0.3,14.5l-3.5,154.2h0c-5.1-0.8-10.6-1.6-16.3-2.6l0.6-27.6l0.3-13.1v0l0.9-38.7l0.4-19.9l0.5-22l0.4-14.5l1.5-67.1v0
				c0-1.9,0.4-3.8,1.1-5.5c1.6-4.1,4.9-7.4,9.1-9.1l4.9-1.9l2.5-1l39.8-15.4h0L399,9.4z"/>
		</g>
		<g>
			<path class="st2" d="M166.7,128l61.2-9.7l-12.2-8.8c-5.2-3.8-12.2-4-17.7-0.7L166.7,128z"/>
			<path class="st3" d="M302.1,220.4c-0.8,3.2-1.6,6.4-2.4,9.6l-7.7-12.5l-26.4-43l-4.1-6.7l-21.3-34.7c-3.4-5.5-9.7-8.4-16.1-7.4
				l-72.7,11.6l-4.4,0.7l-18.1,2.9l-5.2,0.8l-6.8,1.1l-7.8,1.2l-61.5,9.8h0c-6.1-2.2-11.1-3.6-15.4-4.5l84-13.4l6.7-1.1l1.4-0.2h0
				l18.1-2.9l24.1-3.8l61.2-9.7l20.9,15.2l16.8,27.4l4.1,6.6l22.7,37v0L302.1,220.4z"/>
		</g>
		<g>
			<path class="st1" d="M311.6,79l25.7-45.7l-14.9,5.8c-6,2.3-10,8-10.2,14.5L311.6,79z"/>
			<polygon class="st1" points="285.3,139.7 293.7,145.8 294.2,123.8 			"/>
			<polygon class="st2" points="248.8,133.5 265.6,160.9 271.6,150.1 			"/>
			<polygon class="st1" points="269.7,167.5 292.3,204.5 293.2,165.8 277.2,154.1 			"/>
			<path class="st4" d="M619.6,54.6l-5.3,6.7l-2.5-0.1L358,30.3c-6.4-0.8-12.6,2.4-15.8,8l-31,55.1l-17.1,30.4l-8.9,15.9l-8.1,14.4
				l-7.5,13.4l-4,7.1l-33.2,59c-0.8-0.2-1.6-0.4-2.5-0.6c-1.5-0.3-2.9-0.7-4.4-1l36-64.1l4-7.1l6.1-10.8l8.1-14.4l14.8-26.3
				L311.6,79l25.7-45.7l24.9-9.7l249.2,29.9L619.6,54.6z"/>
		</g>
	</g>
	<g>
		<g>
			<path class="st4" d="M1367.3,84c-0.1,0.2-0.3,0.3-0.4,0.5c-2.3,2.4-4.6,4.8-6.8,7.2c-0.5,0.6-1.1,1.1-1.6,1.8
				c-1.8,1.9-3.4,3.6-5.1,5.4c-0.6,0.6-1.1,1.2-1.6,1.7l-2.7,0l-9,0.1l-6.9,0.1l-174.3,2l-2.7,0l-5.2,0.1c-4.5,0-8.8-1.8-11.8-5
				c-1.3-1.3-2.3-2.9-3.1-4.7v0L1101.6,13l-1.6-3.8h17.8l7.4,17.3l7,16.4l14.5,33.8c2.6,5.9,8.4,9.7,14.8,9.6l15.1-0.2l0,0
				c4.6,4.5,11.5,5.8,17.4,3.2l8.3-3.5l130.7-1.5l6.8-0.1l15.2-0.2L1367.3,84z"/>
		</g>
		<g>
			<path class="st3" d="M1374.5,78.9c-0.1,1.9-0.5,3.7-1.2,5.5v0l-5.7,14l-4.3,10.4l0,0l-7.1,17.5l-7.2,17.6l-8.7,21.3l-0.8,1.8v0
				c-2,1-4.1,1.9-6.1,2.9c-2.6,1.3-5.2,2.6-7.7,3.9c-2.5,1.3-5.4,2.8-8.5,4.4l12.9-31.7l3.1-7.6l4.1-9.9l2.6-6.4l0.1-0.3l4.1-10.2
				l0,0l4.7-11.6l5-12.3c0.5-1.4,0.9-2.8,1.1-4.2c0.6-4.8-1.1-9.7-4.6-13.2l-10.7-10.6v-0.1c0-6.4-4-12.2-9.9-14.7l-8.5-3.5
				l-5.3-5.2l-5.4-5.4l-22.6-22.4h23.3l52.7,52.2l1.9,1.9l3.7,3.7C1373,70.2,1374.7,74.5,1374.5,78.9z"/>
		</g>
		<g>
			<path class="st2" d="M1339.8,60.3l0.1,23.9l15.2-0.2c0.6-4.8-1.1-9.7-4.6-13.2L1339.8,60.3z"/>
			<path class="st4" d="M1340.4,165.1v1.5c-0.3,0.1-0.5,0.2-0.8,0.3v0c-2,1-4.1,1.9-6.1,2.9l0-8.6l-0.1-15.3l0-7.2l-0.1-9.4v-3
				l0-7.9l-0.1-17.9l-0.1-16.4l-0.1-19.2c0-6.4-4-12.2-9.9-14.7l-19.7-8l-9.2-3.8l-72.2-29.5h18.7l62.6,25.6l9.2,3.8l8.9,3.6
				l18.4,18.2l0.1,23.9l0.1,16.4l0.1,14l0,7.7v0.2l0,6.1l0.1,16.5L1340.4,165.1z"/>
		</g>
		<g>
			<path class="st4" d="M1113.9,243.6c-7.9,1.3-15.4,2.4-22.2,3.4h0l-63.9-50.1l-2.1-1.7l-4.1-3.2c-3.6-2.8-5.7-6.9-6.1-11.3
				c-0.1-1.9,0-3.7,0.5-5.6v0l23.5-84l4.8-17.3l18.1-64.6h17l-29.9,107.1l-4.8,17.2l-9.9,35.4c-1.7,6.2,0.5,12.8,5.5,16.8l11.9,9.3
				v0.1c0.8,6.4,5.3,11.7,11.5,13.4l8.8,2.5L1113.9,243.6z"/>
		</g>
		<g>
			<path class="st0" d="M1040.2,185.8l11.9,9.3l-7.5-61.6l-9.9,35.4C1033,175.2,1035.2,181.8,1040.2,185.8z"/>
			<path class="st3" d="M1173.2,231.8c-1.2,0.3-2.5,0.6-3.7,0.9c-2.2,0.5-4.4,1-6.5,1.5c-1.5,0.3-2.9,0.6-4.3,1c0,0,0,0,0,0h0
				l-86.2-24.1l-20.4-16l-7.5-61.6l-5.1-42.5l-0.6-5.3l-1.4-11.9l-7.8-64.6h6.9l7.8,64.6l1,8.4l1.4,11.8l2.7,22.4l8.8,73.1
				c0.8,6.4,5.4,11.7,11.5,13.4L1173.2,231.8z"/>
		</g>
		<g>
			<path class="st2" d="M1132.3,42.9l14.5,33.8c2.6,5.9,8.4,9.7,14.8,9.6l15.1-0.2L1132.3,42.9z"/>
			<polygon class="st2" points="1312.6,38.5 1321.5,42.1 1316.2,37 			"/>
			<path class="st3" d="M1326,25c-1.2,3.1-2.4,6.2-3.5,9.3l-6.2,2.7l-3.6,1.6l-9.2,3.9l-101.1,43.4l-25.7,0.3l-44.4-43.3L1101.6,13
				l-3.9-3.8h9.8l17.8,17.3l52.8,51.4c4.6,4.5,11.5,5.7,17.4,3.2l98.8-42.4l9.1-3.9l7.4-3.2L1326,25z"/>
		</g>
		<g>
			<path class="st3" d="M1389.6,121.5l-0.9,16.7l-39.7,5.6l-8.8,1.3l-6.8,1l-3.2,0.4l-40.5,5.8l-17.6,2.5l-36.5,5.2
				c-6.4,0.9-11.6,5.6-13.2,11.8l-3.8,14.6c-5.6,3.3-8.6,9.6-7.7,15.9l1.3,8.9l-2.8,10.9c-0.5,0.2-1,0.3-1.4,0.4
				c-2.6,0.8-5.3,1.6-7.9,2.3c-0.5,0.1-1,0.3-1.5,0.4c-2.2,0.6-4.5,1.2-6.7,1.8c-0.3,0.1-0.5,0.1-0.8,0.2l16.2-62.5l0.7-2.6l1.3-5.1
				c1.1-4.4,4.1-8,7.9-10.1c1.6-0.9,3.4-1.5,5.3-1.7h0L1309,133l17.6-2.5l6.7-0.9l4.1-0.6l2.7-0.4l16.1-2.3L1389.6,121.5
				L1389.6,121.5z"/>
		</g>
		<g>
			<path class="st2" d="M1218.7,186.4l53.4-31.6l-36.5,5.2c-6.4,0.9-11.6,5.6-13.2,11.8L1218.7,186.4z"/>
			<polygon class="st0" points="1326.6,130.5 1333.3,129.5 1333.3,126.5 			"/>
			<polygon class="st2" points="1340.1,100.7 1340.1,114.6 1344.3,112.1 1344.3,112.1 1349,100.6 			"/>
			<path class="st4" d="M1391.5,84.2l-0.4,8.1h0l-27.7,16.4l0,0l-23.2,13.7l-0.1,0.1l-6.7,4l-6.7,4l-36.9,21.8l-63.4,37.5
				c-5.5,3.3-8.5,9.6-7.7,16l1.8,12.9c-1.9,0.6-3.8,1.2-5.7,1.8v0c-0.4,0.1-0.8,0.2-1.2,0.4l-1.4-9.6l6.4-24.8l53.5-31.6L1309,133
				l24.3-14.3l6.8-4l4.2-2.5l0,0l23.3-13.8L1391.5,84.2z"/>
		</g>
	</g>
	<path class="st0" d="M791.4,60.3c0,0-94.9,11.7-183.1,0.4c-1.1-0.1-2.2-0.3-3.3-0.4l5.7-49.1l0.5-2.3c0,0,80.1,26.5,174,0.3
		L791.4,60.3z"/>
	<g>
		<path class="st0" d="M243.4,67.8h-48.9c-15.6,0-25.6-10.6-25.6-27.1c0-15.9,10.5-27.1,25.6-27.1h48.9c15.1,0,25.6,11.1,25.6,27.1
			C269,57.2,258.9,67.8,243.4,67.8z"/>
	</g>
	<path class="st4" d="M194.5,63.8c-13.5,0-21.5-9.2-21.5-23c0-13.3,8.5-23,21.5-23h48.9c13,0,21.5,9.7,21.5,23c0,13.8-8,23-21.5,23
		H194.5z M199.9,44.1c14.8-0.1,23.3,0,38.1,0c3.7,0,7.9,0.5,7.9-3.3c0-3.9-4.2-3.3-7.9-3.3h-38.1c-3.7,0-7.9-0.7-7.9,3.3
		C192,44.6,196.2,44.1,199.9,44.1z"/>
	<g>
		<g>
			<path class="st0" d="M688.3,246.8v101.7c0,32.4-22.1,53.3-56.3,53.3c-33.2,0-56.3-21.9-56.3-53.3V246.8
				c0-31.4,23.2-53.3,56.3-53.3C666.2,193.5,688.3,214.4,688.3,246.8z"/>
		</g>
		<g>
			<path class="st0" d="M814.2,302.8v101.7c0,32.4-22.1,53.3-56.3,53.3c-33.2,0-56.3-21.9-56.3-53.3V302.8
				c0-31.4,23.2-53.3,56.3-53.3C792.1,249.5,814.2,270.4,814.2,302.8z"/>
		</g>
		<path class="st4" d="M679.8,348.5c0,28.2-19.1,44.8-47.8,44.8c-27.6,0-47.8-17.8-47.8-44.8V246.8c0-27.1,20.2-44.8,47.8-44.8
			c28.7,0,47.8,16.7,47.8,44.8V348.5z M638.8,337.3c-0.3-30.9,0-48.4,0-79.3c0-7.7,1.1-16.4-6.8-16.4c-8.2,0-6.8,8.7-6.8,16.4v79.3
			c0,7.7-1.4,16.4,6.8,16.4C639.9,353.7,638.8,344.9,638.8,337.3z"/>
		<path class="st4" d="M805.8,404.5c0,28.2-19.1,44.8-47.8,44.8c-27.6,0-47.8-17.8-47.8-44.8V302.8c0-27.1,20.2-44.8,47.8-44.8
			c28.7,0,47.8,16.7,47.8,44.8V404.5z M764.8,393.3c-0.3-30.9,0-48.4,0-79.3c0-7.7,1.1-16.4-6.8-16.4c-8.2,0-6.8,8.7-6.8,16.4v79.3
			c0,7.7-1.4,16.4,6.8,16.4C765.8,409.7,764.8,401,764.8,393.3z"/>
	</g>
	<g>
		<g>
			<path class="st0" d="M540.7,153.7c0.3,6.3,0.6,11.3-5.5,11.7c-7.1,0.5-14.2,1.1-21.2,1.8c-0.2,0-0.5,0.1-0.8,0.1
				c-0.3,0-0.6,0.1-0.9,0.1c-1.6,0.2-3.6,0.2-5.4-1c-2.7-1.8-2.9-4.6-3.1-6c-2.3-18.9-4.6-37.8-6.9-56.7c-0.8-6.6,6.6-7.5,12-8
				c6.8-0.7,13.8-1.2,14.3,5.4c1.1,14.2,2.2,28.4,3.3,42.6c2.3-0.2,4.7-0.4,7-0.5C540.1,142.9,540.4,148.2,540.7,153.7z"/>
		</g>
		<g>
			<path class="st0" d="M586.1,162c-2,2.3-5.1,2.3-10.4,2.2c-0.7,0-1.4,0-2.1,0c-2.6,0-6.3-0.2-8.2-2.6c-1.9,2.7-6.4,2.8-9.5,2.9
				c-0.2,0-0.5,0-0.7,0c-5.7,0.2-8.4,0-10.3-1.9c-1.1-1-1.6-2.5-1.5-3.9c0-0.1,0-0.2,0-0.3c2.9-24.2,4.7-37.9,7.7-60.1
				c0.7-5.6,8.8-5.8,13.2-5.8c3.9-0.1,11.9-0.1,13,5.6c4,22,6.4,36,10.2,59.6C587.6,159.3,587.2,160.8,586.1,162z"/>
		</g>
		<g>
			<path class="st0" d="M632,147.9c-1.3,11.5-10.3,18.4-22.6,17.5c-11.9-0.8-20.4-9.1-20.2-20.4c0-1.6,0.1-3.3,0.1-4.9
				c0-0.5,0.3-5,6.1-5.2c1.2-0.1,2.7,0,5.6,0.1c0.3,0,0.6,0,0.9,0c-1.1-1-2.3-2.1-3.5-3.2c-6.3-6.3-8.6-10.4-8.3-20.5
				c0.2-10.5,10.3-18.3,23.4-17.4c13.3,0.9,22.1,9.7,20.9,20.3c-0.2,1.5-0.3,3-0.5,4.6c-0.1,1.4-0.9,2.6-2,3.5c-2,1.5-4.1,1.3-7.2,1
				c-0.8-0.1-1.8-0.2-2.8-0.3C627.2,127.7,633.4,134.4,632,147.9z"/>
		</g>
		<g>
			<path class="st0" d="M683.8,113.2c-1.1,6.1-2.1,11.4-8.6,10.3c-1-0.2-2.1-0.4-3.1-0.5c-2.4,14.3-4.8,28.7-7.1,43
				c-1,5.7-6,4.9-13,3.9c-6-0.9-11.3-1.5-10.6-7.3c1.8-14.4,3.5-28.9,5.3-43.3c-0.8-0.1-1.6-0.2-2.5-0.3c-7.1-0.8-6.5-7.2-6-11.9
				c0.5-5.1,1.2-11,8.2-10.2c10.8,1.3,21.6,2.8,32.3,4.7C685.7,102.8,684.7,108.6,683.8,113.2z"/>
		</g>
		<g>
			<path class="st0" d="M769.9,131c-6.2,18.6-12.4,37.2-18.5,55.8c-0.2,0.7-0.8,2.6-2.9,3.6c-2.5,1.2-4.4,0.6-10.1-1.2
				c-0.5-0.1-0.9-0.3-1.4-0.4c-2.6-0.8-6-2.1-6.3-6.7c0-0.2,0-0.4,0-0.7c-2.1,4.8-6.9,3.4-12.9,1.8c-5.4-1.4-7.4-1.9-8.7-4.2
				c-1.2-2-0.7-3.9-0.5-4.5c4.7-19.1,9.4-38.2,14.1-57.3c0.2-0.8,0.6-2.7,2.9-3.9c2.5-1.3,4.6-0.8,10.8,0.8
				c5.2,1.4,9.4,2.6,10.1,7.1c2.4-3.6,7.5-2.2,13.2-0.4c6.3,2,8.6,2.7,10.1,5.3C770.8,128.4,770.1,130.3,769.9,131z"/>
		</g>
		<g>
			<path class="st0" d="M792.8,206.6c-2.7,1.4-5.6,0.3-10.5-1.7c-0.7-0.3-1.3-0.5-2-0.8c-2.4-1-5.8-2.5-6.6-5.5
				c-2.8,1.8-6.9,0.3-9.9-0.8c-0.2-0.1-0.4-0.2-0.6-0.2c-5.3-1.9-7.8-3.1-8.8-5.5c-0.6-1.3-0.6-2.9,0-4.2c0-0.1,0.1-0.2,0.1-0.2
				c11.6-21.4,18.3-33.5,29.2-53c2.7-4.9,10.3-2.2,14.3-0.6c3.6,1.4,11,4.3,9.9,10c-4.4,22-7.3,35.8-12.4,59.1
				C795.2,204.7,794.2,205.9,792.8,206.6z"/>
		</g>
		<g>
			<path class="st0" d="M840.9,230.4c-2.6,0.8-4.4-0.2-9.7-3c-5.5-2.9-10.3-5.2-7.5-10.8c2-4,3.9-7.9,5.9-11.9
				c-0.3-0.1-0.6-0.2-0.9-0.4c-0.7-0.3-1.3-0.7-2-1c-0.4-0.2-0.8-0.4-1.1-0.7c-1.9,3.9-3.8,7.9-5.7,11.8c-2.8,5.8-7.6,3.4-13.7,0.7
				c-5.1-2.3-6.8-3.1-7.7-5.6c-0.6-1.5-0.4-3,0.4-4.5c7.8-18,15.6-36,23.4-54c2.6-6,8.5-3.4,13.7-1c5.2,2.4,10.7,5,9.8,10.5
				c-0.2,1.5-0.4,3.3-0.6,5c-0.1,1-0.3,2.1-0.4,3.1c0.8-0.8,1.6-1.6,2.4-2.4c1.2-1.2,2.4-2.4,3.5-3.6c3.7-3.9,8.8-1.4,13.7,1.1
				c5.4,2.8,11.5,6.1,8.3,11.9c-9.4,17.2-18.7,34.3-28.1,51.5C844.1,228,843.2,229.7,840.9,230.4z"/>
		</g>
		<g>
			<path class="st0" d="M882.2,243.8c-3.4,5.4-6.1,9.5-11.3,6.3c-6-3.8-12.1-7.4-18.3-11c-0.2-0.1-0.5-0.3-0.7-0.4
				c-0.3-0.2-0.5-0.3-0.8-0.5c-1.4-0.8-3-1.9-3.8-3.9c-1.1-3,0.3-5.5,1-6.7c0.1-0.1,0.1-0.2,0.2-0.3c9-16.3,18-32.5,27-48.8
				c1-1.8,2-2.7,3.9-3.4c3.4-1.2,6.2,0.4,7.4,1c7.4,4.2,14.6,8.6,21.9,13.1c5.9,3.7,3.1,8,0.2,12.6c-3.5,5.5-6.3,9.8-12,6.1
				c-2-1.3-4-2.5-6.1-3.8c-0.2,0.4-0.5,0.8-0.7,1.2c0.6,0.4,1.2,0.7,1.8,1.1c1.6,1,2.6,2.2,3,3.8c0.7,2.6-0.2,4.1-2.7,8.1
				c-0.6,0.9-1.1,1.8-1.7,2.7c-2,3.1-2.9,4.7-5.5,5.2c-1.6,0.3-3.1,0-4.7-1c-0.6-0.4-1.1-0.7-1.7-1.1c-0.7,1.1-1.3,2.1-2,3.2
				c2,1.2,4,2.4,6,3.7C888.1,234.7,885.2,239.1,882.2,243.8z"/>
		</g>
		<path class="st4" d="M535.5,154c0.4,6.3,0.3,6.4-0.7,6.5c-7.1,0.5-14.3,1.1-21.4,1.8c-1.5,0.1-3,0.5-3.7,0
			c-0.8-0.5-0.8-1.9-0.9-2.9c-2.1-18.8-4.2-37.5-6.3-56.3c-0.1-1.2-0.2-1.8,6.9-2.5c7.7-0.8,8.1-0.5,8.2,1
			c1.3,14.7,2.6,29.4,3.8,44.1c0.1,1.1,0.2,2.8,0.7,3c0.5,0.2,1.8,0.2,2.8,0.1c2.9-0.2,5.9-0.5,8.8-0.7
			C535.1,148.1,535.2,148.3,535.5,154z"/>
		<path class="st4" d="M582.4,158.5c0.2,1-4.7,0.8-7.2,0.8c-2.6,0-5.6,0.2-5.8-1.1c-0.8-4.9-1-7.1-1.8-12c-0.1-0.9-0.9-0.7-2.4-0.7
			c-1.8,0-2.7-0.1-2.8,0.7c-0.5,5-0.7,7.1-1.1,12.2c-0.1,1-3.3,0.9-6.2,1c-1.4,0-6.6,0.2-6.6-0.6c3-23.4,5-37.2,8.2-60.1
			c0.2-1.2,5.4-1.4,7.6-1.5c2.5,0,7.1,0,7.4,1.5C576,121.6,578.5,135.3,582.4,158.5z M566.8,136.5c-0.3-5.3-0.6-7.9-1.2-14.9
			c0-0.4-0.3-3.8-1-3.8c-0.6,0-0.8,3.9-0.8,4.2c-0.3,6.4-0.6,9-0.8,14.4c0,0.7,0.2,0.7,1.8,0.7C566,137.2,566.8,137.4,566.8,136.5z"
			/>
		<path class="st4" d="M626.8,147.4c-0.9,9.1-7.7,13.8-17.2,13.1c-8.9-0.6-15.6-6.3-15.3-15.3c0.1-1.6,0.1-3.3,0.2-4.9
			c0-0.6,1.1-0.6,6.3-0.3c5.3,0.3,7.8,0.3,7.8,0.9c-0.1,0.8-0.1,1.6-0.2,2.5c-0.3,4.4-0.2,5.8,1.9,6c1.9,0.1,2.5-2,2.6-4.2
			c0.6-8.3-5.6-11.5-10.6-16.6c-5.6-5.7-7.1-8.4-6.7-17c0.3-8.2,8.2-13.3,17.6-12.7c9.6,0.6,16.6,6.5,15.8,14.9
			c-0.1,1.5-0.3,3-0.4,4.6c0,0.5-1.5,0.2-6-0.2c-5.5-0.5-8.2-0.6-8.1-1.1c0.1-1.3,0.2-2.6,0.3-4c0.1-2-1-3.2-2.3-3.2
			c-1.3-0.1-2.5,0.9-2.6,2.8c-0.4,5.9,0.1,6.4,7,12.6C622.1,129.9,628,135.1,626.8,147.4z"/>
		<path class="st4" d="M678.4,112.2c-1.1,6.1-1.2,6.6-2.3,6.4c-1.4-0.2-2.8-0.5-4.2-0.7c-1.5-0.2-3.2-0.5-3.7-0.4
			c-1,0.5-1,2-1.2,3.1c-2.3,14.9-4.6,29.7-7,44.6c-0.1,0.8-0.7,0.8-7.3-0.2c-5.8-0.8-6.4-0.9-6.3-1.8c2-14.9,3.9-29.8,5.9-44.7
			c0.2-1.1,0.5-2.6-0.3-3.3c-0.5-0.2-2.2-0.5-3.6-0.6c-1.2-0.2-2.4-0.3-3.6-0.4c-1.5-0.2-1.7-1-1-6.4c0.6-5.5,0.9-6,2.1-5.9
			c10.7,1.3,21.4,2.8,32.1,4.6C679.3,106.7,679.2,107.3,678.4,112.2z"/>
		<path class="st4" d="M746.6,185.2c-0.4,1.4-0.2,1.5-6.8-0.6c-3.2-1-4-1-4.1-2.6c-0.6-9.8-0.3-12.9-0.7-24.8c0-1.6-0.1-4.1-0.9-4.3
			c-0.8-0.2-1.4,2.4-1.8,4.1c-2.1,7.3-4.1,14.7-6.2,22c-0.4,1.4-0.5,1.4-7.2-0.4c-6.3-1.7-5.9-1.6-5.6-2.8c4.9-19,9.7-38,14.6-57
			c0.4-1.5,0.1-1.6,7,0.2c5.5,1.5,5.9,1.7,5.9,3.4c0.1,3.6,0.7,15.9,1.2,24.2c0,0.9,0,2.5,0.6,2.7c0.8,0.2,1.4-2,1.8-3.3
			c2.1-7,4.1-13.9,6.2-20.9c0.4-1.5,0.6-1.5,7.4,0.6c7.5,2.3,7,2.3,6.6,3.8C758.5,148,752.6,166.6,746.6,185.2z"/>
		<path class="st4" d="M790.6,202c-0.2,1-4.7-1-7-1.9c-2.4-1-5.3-1.9-5-3.1c1.1-4.9,1.7-7,2.7-11.8c0.2-0.9-0.6-1-2-1.5
			c-1.6-0.6-2.5-1.1-2.9-0.3c-2.3,4.4-3.3,6.3-5.5,11c-0.4,0.9-3.4-0.3-6.1-1.3c-1.3-0.5-6.2-2.2-5.9-2.9
			c11.4-20.6,18.3-32.8,29.7-52.9c0.6-1.1,5.5,0.6,7.6,1.4c2.3,0.9,6.5,2.6,6.3,4.1C798.2,165.4,795.5,179,790.6,202z M784.2,175.9
			c1.6-5,2.3-7.6,4.4-14.3c0.2-0.4,1.1-3.7,0.4-3.9c-0.5-0.2-2.2,3.3-2.3,3.7c-2.6,5.8-3.9,8.1-6.1,13.1c-0.2,0.7-0.1,0.7,1.4,1.3
			C783.3,176.2,783.9,176.7,784.2,175.9z"/>
		<path class="st4" d="M840,224.8c-0.7,1.3-0.3,1.5-6.5-1.7c-5.8-3-5.8-3.1-5.2-4.2c4.6-9.2,9.3-18.4,13.9-27.6
			c0.7-1.3-0.5-2.4-1.2-1.5c-3.2,4.1-6.9,8.9-8.1,9.8c-0.9,0.7-1.6,0.6-2.1,0.4c-0.7-0.3-1.4-0.7-2-1c-0.3-0.2-1-0.8-1-1.8
			c0-1.5,1.5-7.3,2.8-12.3c0.3-1-1.7-1.7-2.3-0.4c-4.4,9.3-8.7,18.5-13.1,27.8c-0.6,1.3-0.7,1.3-7.1-1.6c-6-2.7-5.3-2.5-4.8-3.6
			c8-17.9,15.9-35.8,23.9-53.7c0.6-1.4,1.1-1.3,6.5,1.2c5.9,2.7,6.6,3.5,6.4,4.8c-0.5,3.6-0.9,7.7-1.4,11.3
			c-0.9,6-1.5,11.3-0.8,11.7c0.7,0.3,4.2-3.3,8.6-7.9c2.5-2.7,5.6-5.6,8.1-8.2c1-1,2.1-0.7,7.2,1.9c5.7,3,6.4,3.5,5.7,4.9
			C858.4,190.3,849.2,207.6,840,224.8z"/>
		<path class="st4" d="M877.8,241c-3.4,5.4-3.5,5.4-4.4,4.9c-6.1-3.8-12.2-7.5-18.4-11.1c-1.3-0.7-2.7-1.3-3-2.1
			c-0.3-0.9,0.5-2,1-2.9c9.2-16.2,18.3-32.4,27.5-48.6c0.6-1,0.7-1,1.6-1.3c0.9-0.3,1.5,0,2.4,0.5c7.3,4.2,14.5,8.5,21.7,13
			c1,0.7,0.9,0.9-2,5.4c-3.4,5.4-3.6,5.7-4.7,5c-2.8-1.8-5.6-3.5-8.5-5.2c-0.7-0.4-1.8-1-2.2-0.8c-0.7,0.3-0.7,0.2-1.3,1.2
			c-1.1,1.8-2.2,3.7-3.3,5.5c-0.4,0.7-1.1,1.4-0.7,2.3c0.4,0.7,1,1,1.7,1.4c1.4,0.8,2.7,1.7,4.1,2.5c1,0.6,0.7,0.9-2.4,5.9
			c-3,4.8-3,5.2-4,4.6c-1.2-0.8-2.5-1.5-3.7-2.2c-0.8-0.5-1.8-1-2.2-1c-1,0-1.3,0.9-1.9,1.9c-1.3,2.1-2.5,4.2-3.8,6.3
			c-0.6,1-1.5,2.4-1.2,2.9c0.3,0.5,1.3,1.2,2.2,1.8c2.5,1.5,5.1,3.1,7.6,4.7C880.9,236,880.9,236.2,877.8,241z"/>
	</g>
	<g>
		<g>
			<g>
				<path class="st0" d="M951.8,40.7c-0.2-0.3-0.3-0.6-0.4-0.9l-0.4-0.9c-1.6-3.5-3.5-7.6-6.6-9c1-3.3-0.9-7.5-2.2-10.3l-0.4-0.8
					c-1.3-3-4.1-9.3-9.9-7.1c-15.2,5.5-41.3,14.9-58.2,21l-7.9,2.9h0c-1.6,0.6-2.8,1.8-3.4,3.3c-1.3,3.2,0.3,6.4,2,10.2l0.4,0.9
					c2,4.3,5,10.9,10.7,8.4c4.6-1.9,9.3-3.8,14.1-5.7c0.4-0.2,0.9-0.4,1.3-0.5c0.4,1.5,1.3,3.5,2.2,4.8c-4.4,2.4-9.2,4.8-14.6,7.7
					c-5.7,2.7-2.7,9.4-0.4,14.3c3.4,7.5,6.2,8.3,7.1,8.6c1.5,0.4,3.1,0.3,4.4-0.5l14.1-7.9c17.7-10,34.5-19.3,47.1-26.4
					C955.6,49.9,953.4,44.1,951.8,40.7z M922.2,40.4C922.2,40.4,922.3,40.4,922.2,40.4L922.2,40.4L922.2,40.4z"/>
			</g>
			<path class="st4" d="M946.3,41.6c-1.1-2.4-3.1-7.1-4.5-6.8c-4.4,1-9,2.2-13.6,3.3c-0.3,0-1,0.3-1.2-0.1c-0.3-0.6,0.4-0.9,0.7-1.1
				c3.8-2.9,7.1-5.1,11.3-8.4c0.8-0.6-1.2-5.4-1.8-6.6c-1.1-2.4-2.4-5.6-3.6-5.2c-17.9,6.5-50.8,18.4-66.2,23.9
				c-1.3,0.5,0.8,4.6,2,7.1c1,2.2,2.8,6.1,3.7,5.7c13.6-5.5,27.8-11.1,44.7-18.2c0.4-0.2,1.1-0.4,1.3,0.2c0.2,0.5-0.4,0.9-0.7,1
				c-8.9,5.1-13.9,7.4-22.5,12c-0.9,0.5-0.4,2.2,0.5,4.1c0.8,1.7,1.6,2.8,2.5,2.5c8.3-3.2,14-5.6,23.4-9.1c0.4-0.2,1.1-0.4,1.3,0.2
				c0.2,0.5-0.4,0.9-0.7,1c-15.5,7.9-25.3,13.5-42.5,22.3c-1,0.4,0.8,4.5,2.1,7.3c0.8,1.9,3.2,6.1,4,5.7
				C909.5,69.5,932.1,56.8,948,48C949.2,47.3,946.9,42.8,946.3,41.6z"/>
		</g>
		<g>
			<g>
				<g>
					<path class="st0" d="M921.6,9.2l-76.3,27.2c-1.8,0.7-3.8,0.6-5.5-0.3c-1.7-0.8-3-2.3-3.7-4.1l-1.5-4.3
						c-1.3-3.7,0.6-7.8,4.3-9.1h0l26.3-9.4H921.6z"/>
					<path class="st0" d="M970,25.7c-0.8,1.7-2.2,3-4,3.6l-3.7,1.3c-1.8,0.7-3.8,0.5-5.5-0.3c-1.4-0.6-2.6-1.8-3.3-3.2
						c-0.1-0.3-0.3-0.5-0.3-0.8l-6.1-17.1h19.3l3.9,11C971,22,970.9,24,970,25.7z"/>
				</g>
			</g>
			<g>
				<path class="st4" d="M956.8,25.5c3.3-3.1,6-5.6,8.8-8.2l1.4,4.1c0.3,0.9,0.3,1.9-0.1,2.7c-0.4,0.9-1.1,1.5-2,1.8l-3.7,1.3
					c-0.9,0.3-1.9,0.3-2.7-0.1C957.7,26.8,957.1,26.2,956.8,25.5z"/>
				<path class="st4" d="M962.9,9.9c-3.3,3-6,5.5-8.8,8.2l-0.4-1l-1.8-5.2c1-0.9,1.9-1.8,2.9-2.7h7.9L962.9,9.9z"/>
				<g>
					<path class="st4" d="M962.9,9.9c-3.3,3-6,5.5-8.8,8.2l-0.4-1l-1.8-5.2c1-0.9,1.9-1.8,2.9-2.7h7.9L962.9,9.9z"/>
				</g>
				<g>
					<path class="st4" d="M911,9.2l-66.9,23.9c-0.9,0.3-1.9,0.3-2.8-0.1c-0.9-0.4-1.5-1.1-1.9-2.1l-1.5-4.3
						c-0.7-1.8,0.3-3.9,2.2-4.6l35.7-12.8H911z"/>
				</g>
			</g>
		</g>
	</g>
</g>
</svg>
