<?xml version="1.0" encoding="utf-8"?>
<!-- Generator: Adobe Illustrator 24.1.1, SVG Export Plug-In . SVG Version: 6.00 Build 0)  -->
<svg version="1.1" xmlns="http://www.w3.org/2000/svg" xmlns:xlink="http://www.w3.org/1999/xlink" x="0px" y="0px"
	 viewBox="0 0 147.6 102.3" style="enable-background:new 0 0 147.6 102.3;" xml:space="preserve">
<style type="text/css">
	.st0{fill:#E6F4FF;}
	.st1{opacity:0.65;}
	.st2{fill:#FF8181;}
	.st3{fill:#9FD8FF;}
</style>
<g id="our-bottom">
	<g>
		<path class="st0" d="M42.5,81.3c0,12.3-7.2,21-21.3,21C7.7,102.3,0,93.2,0,81.3V20.9C0,8.2,9.1,0,21.2,0
			c12.6,0,21.3,8.2,21.3,20.9V81.3z M26.7,78V23.8c0-4.1-1.3-8.8-5.5-8.8c-4.4,0-5.5,4.7-5.5,8.8V78c0,4.1,0.1,8.8,5.5,8.8
			C26.3,86.8,26.7,82.1,26.7,78z"/>
		<path class="st0" d="M94.6,81.8c0,12.1-7.7,20.5-21.3,20.5c-13.3,0-21.2-9.6-21.2-20.3V2.5c0-2.3,1-2.5,8.2-2.5
			c5.8,0,7.4,0.3,7.4,2.5v76.1c0,3.9,0.7,8.2,5.5,8.2c4.7,0,5.5-4.1,5.5-8.2V2.3c0-2,0.7-2.3,7.3-2.3c7.6,0,8.5,0.4,8.5,2.2V81.8z"
			/>
		<path class="st0" d="M147.6,100c0,2.3-1,2.3-8,2.3s-7.6,0.1-7.6-2.5V66.2c0-5.1-1.8-9.2-5.4-9.2c-5.1,0-5.7-0.1-5.7,1.9v40.6
			c0,2.8-1.2,2.8-8.5,2.8c-6,0-7.2,0-7.2-3.2V4.5c0-1.5,0.1-2.9,0.6-3.7c0.9-1.2,1.9-0.9,3.8-0.9h14.5c6.3,0,12.7,1.8,17.1,6
			c4.4,4.1,6,9.9,6,16.1v12.4c0,4.2-0.6,7-2.5,9.6c-2.6,3.9-7.2,4.8-7.2,5.3c0,0.6,4.7,0.9,7.4,4.5c1.9,2.6,2.6,5.1,2.6,9.2V100z
			 M131.6,35.1v-9.9c0-3.1-0.1-5.8-2-8c-1-1.2-1.9-1.8-5.3-1.8c-1.3,0-2.3,0-2.9,0.7c-0.3,0.6-0.4,1.2-0.4,1.9v21.8
			c0,1.3,0,2.3,0.7,2.9c0.6,0.4,1.5,0.3,2.6,0.3c1.3,0,3.7-0.4,5.3-2.2C131.4,38.7,131.6,36.5,131.6,35.1z"/>
	</g>
</g>
<g id="our-middle">
</g>
<g id="our-top">
</g>
</svg>
