<?xml version="1.0" encoding="utf-8"?>
<!-- Generator: Adobe Illustrator 24.1.1, SVG Export Plug-In . SVG Version: 6.00 Build 0)  -->
<svg version="1.1" id="Layer_1" xmlns="http://www.w3.org/2000/svg" xmlns:xlink="http://www.w3.org/1999/xlink" x="0px" y="0px"
	 viewBox="0 0 113.9 79.6" style="enable-background:new 0 0 113.9 79.6;" xml:space="preserve">
<style type="text/css">
	.st0{fill:#BCD9F7;}
	.st1{fill:#19030F;}
</style>
<g>
	<path id="Path_6073_16_" class="st0" d="M113.1,0.1H0.1v78.7c0,0.3,0,0.5,0,0.8h113.8V0.1C113.6,0.1,113.3,0.1,113.1,0.1z
		 M109.2,75h-0.6c-34.4,0-68.8,0-103.1,0c-0.6,0-0.7-0.2-0.7-0.7c0-23,0-45.9,0-68.9c0-0.5,0.1-0.7,0.7-0.7c34.4,0,68.8,0,103.2,0
		c0.2,0,0.4,0,0.6,0V75z"/>
	<path id="Path_6074_16_" class="st0" d="M113.9,0.1c-0.3,0-0.5,0-0.8,0H0.1v0.8c0,26,0,52,0,77.9c0,0.3,0,0.5,0,0.8
		c0,0-0.1,0-0.1-0.1c0-0.1,0-0.3,0-0.4V0h1c37.4,0,74.9,0,112.3,0C113.5,0,113.7,0.1,113.9,0.1z"/>
	<path id="Path_6075_16_" class="st0" d="M106.4,6.8H7.6c-0.9,0-0.8-0.1-0.8,0.8v64.5c0,1-0.1,0.8,0.9,0.8h98.8c0.8,0,0.8,0,0.8-0.8
		V7.6C107.2,6.7,107.3,6.8,106.4,6.8z M44.2,56.9c-1.5,0.5-3.1,0.8-4.6,0.8H19.7c-0.2,0-0.3,0-0.6,0c0-0.3,0-0.7,0-1
		c0-0.1,0.3-0.3,0.4-0.3c1-0.1,2-0.1,3-0.1c0.3,0,0.5-0.1,0.8-0.1c1.3-0.2,2.2-1.2,2.2-2.5c0.1-0.5,0.1-1,0.1-1.5
		c0-7.8,0-15.5,0-23.3c0-0.6-0.1-1.2-0.2-1.8c-0.1-1-0.9-1.8-2-1.9c-1.1-0.2-2.2-0.2-3.3-0.2c-0.4,0-0.7,0-0.6-0.5
		c0-0.4-0.1-0.9,0.6-0.9c5.2-0.1,10.3-0.4,15.5-0.4c2.7-0.1,5.4,0.3,8,1.1c2,0.6,3.6,1.9,4.7,3.6c0.2,0.3,0.4,0.7,0.5,1.1
		c1.3,3.5-0.6,7.5-4.1,8.8c-0.4,0.2-0.8,0.3-1.2,0.5c1,0.5,2,0.9,2.9,1.4c2.6,1.3,4.3,3.8,4.7,6.7C51.6,50.9,48.8,55.3,44.2,56.9z
		 M95.6,24.7c-0.2,0-0.4,0-0.6,0c-3,0.2-4.3,1.4-4.3,4.4c-0.1,5.2,0,10.4-0.1,15.6c0.1,4.9-2.6,9.5-6.9,11.9c-2.1,1.2-4.5,1.8-6.9,2
		c-2.8,0.3-5.7,0.1-8.5-0.6c-3.7-0.9-6.9-3.3-8.6-6.7c-1-2-1.5-4.2-1.5-6.4c0-5.3,0-10.6,0-15.8c0-0.7,0-1.4-0.1-2.1
		c0-1.1-0.9-1.9-1.9-2c-0.7-0.1-1.4-0.2-2.1-0.2c-0.5,0-0.6-0.2-0.6-0.6c0-0.3,0-0.6,0-0.8l14.5,0c0,0.1,0.1,0.1,0.1,0.2
		c0.1,1.2,0.1,1.2-1.1,1.3c-0.3,0-0.6,0-0.9,0.1c-0.1,0-0.2,0-0.3,0c-1.5,0.1-2.6,1.4-2.5,2.9c0,0.2,0,0.3,0,0.4
		c0,5.5-0.1,11,0,16.6c-0.1,3,1.2,5.9,3.5,7.9c1.5,1.3,3.3,2.1,5.3,2.4c2.6,0.5,5.3,0.4,7.9-0.2c4.2-0.9,7.3-4.3,7.7-8.5
		c0.1-0.9,0.2-1.8,0.2-2.8c0-4.6,0-9.1,0-13.6c0-0.9-0.1-1.8-0.3-2.7c-0.2-1.2-1.1-2.1-2.3-2.3c-0.8-0.1-1.5-0.2-2.3-0.3
		c-0.4,0-0.6-0.2-0.5-0.6c0-0.1,0-0.1,0-0.2c-0.1-0.5,0.1-0.7,0.7-0.7c4,0,8,0,12,0h0.6V24.7z"/>
	<path class="st0" d="M45.7,49.3c-0.3,1.4-0.9,2.7-1.8,3.8c-0.8,1-1.9,1.8-3.2,2.2c-2.2,0.7-4.5,0.9-6.7,0.4
		c-1.9-0.2-3.3-1.8-3.3-3.6c-0.1-0.5-0.1-1-0.1-1.5c0-3.7,0-7.3,0-11c0-0.2,0-0.3,0-0.7l8.2,0.4C43.5,40.1,46.6,44.6,45.7,49.3z"/>
	<path class="st0" d="M42.8,35.5c-1,1.1-2.3,1.8-3.8,1.9c-0.7,0.1-1.5,0.2-2.2,0.2c-2.1,0-4.1,0-6.2,0V24.5c0.6,0,1.2-0.1,1.8-0.1
		c2.1-0.2,4.1-0.1,6.1,0.3c1.9,0.3,3.7,1.5,4.7,3.2C44.5,30.3,44.4,33.2,42.8,35.5z"/>
</g>
</svg>
